<?xml version="1.0" encoding="UTF-8" standalone="no"?>
<!-- Created with Inkscape (http://www.inkscape.org/) -->

<svg
   xmlns:dc="http://purl.org/dc/elements/1.1/"
   xmlns:cc="http://creativecommons.org/ns#"
   xmlns:rdf="http://www.w3.org/1999/02/22-rdf-syntax-ns#"
   xmlns:svg="http://www.w3.org/2000/svg"
   xmlns="http://www.w3.org/2000/svg"
   xmlns:xlink="http://www.w3.org/1999/xlink"
   xmlns:sodipodi="http://sodipodi.sourceforge.net/DTD/sodipodi-0.dtd"
   xmlns:inkscape="http://www.inkscape.org/namespaces/inkscape"
   width="345.5145568847656"
   height="509.24560546875"
   id="svg2"
   sodipodi:version="0.32"
   inkscape:version="0.47 r22583"
   sodipodi:docname="Brush.svg"
   version="1.1">
  <title
     id="title4253">Brush images</title>
  <defs
     id="defs3">
    <inkscape:perspective
       sodipodi:type="inkscape:persp3d"
       inkscape:vp_x="0 : 355 : 1"
       inkscape:vp_y="0 : 1000 : 0"
       inkscape:vp_z="680 : 355 : 1"
       inkscape:persp3d-origin="340 : 236.6666666666667 : 1"
       id="perspective206" />
    <inkscape:path-effect
       effect="spiro"
       id="path-effect3139"
       is_visible="true" />
    <linearGradient
       id="linearGradient4129">
      <stop
         style="stop-color:#c17d11;stop-opacity:1;"
         offset="0"
         id="stop4131" />
      <stop
         style="stop-color:#8f5902;stop-opacity:1;"
         offset="0.49965063"
         id="stop4133" />
      <stop
         style="stop-color:#c17d11;stop-opacity:1;"
         offset="1"
         id="stop4135" />
    </linearGradient>
    <linearGradient
       id="linearGradient4119">
      <stop
         id="stop4121"
         offset="0"
         style="stop-color:#d3d7cf;stop-opacity:1;" />
      <stop
         style="stop-color:#a1a39d;stop-opacity:1;"
         offset="0.31745353"
         id="stop4127" />
      <stop
         id="stop4123"
         offset="0.560866"
         style="stop-color:#888a85;stop-opacity:1;" />
      <stop
         id="stop4125"
         offset="1"
         style="stop-color:#babdb6;stop-opacity:1;" />
    </linearGradient>
    <linearGradient
       id="linearGradient3717">
      <stop
         style="stop-color:#e9b96e;stop-opacity:1;"
         offset="0"
         id="stop3719" />
      <stop
         style="stop-color:#000000;stop-opacity:1.0000000;"
         offset="1.0000000"
         id="stop3721" />
    </linearGradient>
    <linearGradient
       id="linearGradient17115"
       inkscape:collect="always">
      <stop
         id="stop17117"
         offset="0"
         style="stop-color:#ffffff;stop-opacity:1;" />
      <stop
         id="stop17119"
         offset="1"
         style="stop-color:#ffffff;stop-opacity:0;" />
    </linearGradient>
    <linearGradient
       id="linearGradient8340">
      <stop
         id="stop8342"
         offset="0"
         style="stop-color:#ff6c00;stop-opacity:1;" />
      <stop
         id="stop8344"
         offset="1.0000000"
         style="stop-color:#000000;stop-opacity:1.0000000;" />
    </linearGradient>
    <linearGradient
       id="linearGradient10538">
      <stop
         style="stop-color:#808080;stop-opacity:1.0000000;"
         offset="0.00000000"
         id="stop10540" />
      <stop
         style="stop-color:#000000;stop-opacity:1.0000000;"
         offset="0.50000000"
         id="stop10542" />
      <stop
         style="stop-color:#808080;stop-opacity:1.0000000;"
         offset="1.0000000"
         id="stop10544" />
    </linearGradient>
    <linearGradient
       id="linearGradient7420">
      <stop
         style="stop-color:#ffffff;stop-opacity:1.0000000;"
         offset="0.00000000"
         id="stop7422" />
      <stop
         style="stop-color:#808080;stop-opacity:1.0000000;"
         offset="0.50000000"
         id="stop7428" />
      <stop
         style="stop-color:#ffffff;stop-opacity:1.0000000;"
         offset="1.0000000"
         id="stop7424" />
    </linearGradient>
    <linearGradient
       y2="544.2366333007812"
       x2="-89.84892272949219"
       y1="545.6839599609375"
       x1="-338.5803527832031"
       gradientTransform="matrix(0.484326,0,0,0.604203,661.0250999999999,220.2956)"
       gradientUnits="userSpaceOnUse"
       id="linearGradient10987"
       xlink:href="#linearGradient7420"
       inkscape:collect="always" />
    <linearGradient
       y2="544.2366333007812"
       x2="-89.84892272949219"
       y1="545.6839599609375"
       x1="-338.5803527832031"
       gradientTransform="matrix(0.484326,0,0,-0.9081699999999999,661.0250999999999,1141.158)"
       gradientUnits="userSpaceOnUse"
       id="linearGradient10990"
       xlink:href="#linearGradient8340"
       inkscape:collect="always" />
    <linearGradient
       gradientUnits="userSpaceOnUse"
       y2="182.92626953125"
       x2="1112.27734375"
       y1="186.2458190917969"
       x1="791.132080078125"
       gradientTransform="scale(0.5773609999999997,1.732019)"
       id="linearGradient15597"
       xlink:href="#linearGradient10538"
       inkscape:collect="always" />
    <linearGradient
       gradientUnits="userSpaceOnUse"
       y2="143.9681854248047"
       x2="1370.638305664062"
       y1="143.9681854248047"
       x1="1218.02392578125"
       gradientTransform="scale(0.42943,2.328667)"
       id="linearGradient17121"
       xlink:href="#linearGradient17115"
       inkscape:collect="always" />
    <linearGradient
       id="linearGradient10538-8">
      <stop
         style="stop-color:#808080;stop-opacity:1.0000000;"
         offset="0.00000000"
         id="stop10540-8" />
      <stop
         style="stop-color:#000000;stop-opacity:1.0000000;"
         offset="0.50000000"
         id="stop10542-5" />
      <stop
         style="stop-color:#808080;stop-opacity:1.0000000;"
         offset="1.0000000"
         id="stop10544-0" />
    </linearGradient>
    <linearGradient
       id="linearGradient17115-6"
       inkscape:collect="always">
      <stop
         id="stop17117-1"
         offset="0"
         style="stop-color:#ffffff;stop-opacity:1;" />
      <stop
         id="stop17119-1"
         offset="1"
         style="stop-color:#ffffff;stop-opacity:0;" />
    </linearGradient>
    <linearGradient
       id="linearGradient7420-9">
      <stop
         style="stop-color:#ffffff;stop-opacity:1.0000000;"
         offset="0.00000000"
         id="stop7422-8" />
      <stop
         style="stop-color:#808080;stop-opacity:1.0000000;"
         offset="0.50000000"
         id="stop7428-4" />
      <stop
         style="stop-color:#ffffff;stop-opacity:1.0000000;"
         offset="1.0000000"
         id="stop7424-8" />
    </linearGradient>
    <linearGradient
       id="linearGradient7420-9-8">
      <stop
         style="stop-color:#ffffff;stop-opacity:1.0000000;"
         offset="0.00000000"
         id="stop7422-8-4" />
      <stop
         style="stop-color:#808080;stop-opacity:1.0000000;"
         offset="0.50000000"
         id="stop7428-4-9" />
      <stop
         style="stop-color:#ffffff;stop-opacity:1.0000000;"
         offset="1.0000000"
         id="stop7424-8-3" />
    </linearGradient>
    <linearGradient
       id="linearGradient17115-6-4"
       inkscape:collect="always">
      <stop
         id="stop17117-1-9"
         offset="0"
         style="stop-color:#ffffff;stop-opacity:1;" />
      <stop
         id="stop17119-1-4"
         offset="1"
         style="stop-color:#ffffff;stop-opacity:0;" />
    </linearGradient>
    <linearGradient
       id="linearGradient3717-9">
      <stop
         style="stop-color:#e9b96e;stop-opacity:1;"
         offset="0"
         id="stop3719-3" />
      <stop
         style="stop-color:#000000;stop-opacity:1.0000000;"
         offset="1.0000000"
         id="stop3721-3" />
    </linearGradient>
    <linearGradient
       id="linearGradient10538-8-9">
      <stop
         style="stop-color:#808080;stop-opacity:1.0000000;"
         offset="0.00000000"
         id="stop10540-8-7" />
      <stop
         style="stop-color:#000000;stop-opacity:1.0000000;"
         offset="0.50000000"
         id="stop10542-5-3" />
      <stop
         style="stop-color:#808080;stop-opacity:1.0000000;"
         offset="1.0000000"
         id="stop10544-0-2" />
    </linearGradient>
    <linearGradient
       id="linearGradient3717-9-7-8-3">
      <stop
         style="stop-color:#e9b96e;stop-opacity:1;"
         offset="0"
         id="stop3719-3-7-5-9" />
      <stop
         style="stop-color:#3c3232;stop-opacity:1;"
         offset="1"
         id="stop3721-3-3-0-7" />
    </linearGradient>
    <linearGradient
       id="linearGradient17115-6-4-8-6-5"
       inkscape:collect="always">
      <stop
         id="stop17117-1-9-0-3-0"
         offset="0"
         style="stop-color:#ffffff;stop-opacity:1;" />
      <stop
         id="stop17119-1-4-1-85-2"
         offset="1"
         style="stop-color:#ffffff;stop-opacity:0;" />
    </linearGradient>
    <linearGradient
       inkscape:collect="always"
       xlink:href="#linearGradient17115-6-4-8-6-5"
       id="linearGradient4104"
       gradientUnits="userSpaceOnUse"
       gradientTransform="matrix(0.4294299999999998,0,0,1.0120889,981.6214099999995,1377.9604)"
       x1="1218.02392578125"
       y1="143.9681854248047"
       x2="1370.638305664062"
       y2="143.9681854248047" />
    <linearGradient
       inkscape:collect="always"
       xlink:href="#linearGradient4119"
       id="linearGradient4109"
       gradientUnits="userSpaceOnUse"
       gradientTransform="matrix(0.49218516,0,0,0.34057876,1953.3747,1528.9321)"
       x1="-387.555908203125"
       y1="516.4258422851562"
       x2="71.24900817871094"
       y2="603.0982666015625" />
    <linearGradient
       inkscape:collect="always"
       xlink:href="#linearGradient3717-9-7-8-3"
       id="linearGradient4113"
       gradientUnits="userSpaceOnUse"
       gradientTransform="matrix(0.49218516,0,0,-0.68898011,1953.8223,2154.3594)"
       x1="-212.6003723144531"
       y1="609.319091796875"
       x2="-212.6003723144531"
       y2="481.612548828125" />
    <linearGradient
       inkscape:collect="always"
       xlink:href="#linearGradient4129"
       id="linearGradient4116"
       gradientUnits="userSpaceOnUse"
       gradientTransform="matrix(0.5868535099999999,0,0,0.77157377,1281.9512,1463.9498)"
       x1="815.937255859375"
       y1="153.0357055664062"
       x2="1154.338256835938"
       y2="189.5653076171875" />
    <filter
       inkscape:collect="always"
       id="filter4137"
       x="-0.1019242182374001"
       width="1.203848361968994"
       y="-0.0432465523481369"
       height="1.086493134498596"
       color-interpolation-filters="sRGB">
      <feGaussianBlur
         inkscape:collect="always"
         stdDeviation="2.7832615"
         id="feGaussianBlur4139" />
    </filter>
    <inkscape:path-effect
       effect="spiro"
       id="path-effect3139-1"
       is_visible="true" />
    <linearGradient
       id="linearGradient4129-7">
      <stop
         style="stop-color:#c17d11;stop-opacity:1;"
         offset="0"
         id="stop4131-4" />
      <stop
         style="stop-color:#8f5902;stop-opacity:1;"
         offset="0.49965063"
         id="stop4133-8" />
      <stop
         style="stop-color:#c17d11;stop-opacity:1;"
         offset="1"
         id="stop4135-5" />
    </linearGradient>
    <linearGradient
       id="linearGradient3717-9-7-8-3-2">
      <stop
         style="stop-color:#e9b96e;stop-opacity:1;"
         offset="0"
         id="stop3719-3-7-5-9-6" />
      <stop
         style="stop-color:#3c3232;stop-opacity:1;"
         offset="1"
         id="stop3721-3-3-0-7-0" />
    </linearGradient>
    <linearGradient
       inkscape:collect="always"
       xlink:href="#linearGradient17115-6-4-8-6-5-6"
       id="linearGradient4104-6"
       gradientUnits="userSpaceOnUse"
       gradientTransform="matrix(0.4294299999999998,0,0,1.0120889,981.6214099999989,1377.9604)"
       x1="1218.02392578125"
       y1="143.9681854248047"
       x2="1370.638305664062"
       y2="143.9681854248047" />
    <linearGradient
       id="linearGradient17115-6-4-8-6-5-6"
       inkscape:collect="always">
      <stop
         id="stop17117-1-9-0-3-0-4"
         offset="0"
         style="stop-color:#ffffff;stop-opacity:1;" />
      <stop
         id="stop17119-1-4-1-85-2-6"
         offset="1"
         style="stop-color:#ffffff;stop-opacity:0;" />
    </linearGradient>
    <filter
       color-interpolation-filters="sRGB"
       inkscape:collect="always"
       id="filter4137-2"
       x="-0.1019242182374001"
       width="1.203848361968994"
       y="-0.0432465523481369"
       height="1.086493134498596">
      <feGaussianBlur
         inkscape:collect="always"
         stdDeviation="2.7832615"
         id="feGaussianBlur4139-8" />
    </filter>
    <linearGradient
       id="linearGradient4119-6">
      <stop
         id="stop4121-0"
         offset="0"
         style="stop-color:#d3d7cf;stop-opacity:1;" />
      <stop
         style="stop-color:#a1a39d;stop-opacity:1;"
         offset="0.31745353"
         id="stop4127-7" />
      <stop
         id="stop4123-0"
         offset="0.560866"
         style="stop-color:#888a85;stop-opacity:1;" />
      <stop
         id="stop4125-1"
         offset="1"
         style="stop-color:#babdb6;stop-opacity:1;" />
    </linearGradient>
    <linearGradient
       inkscape:collect="always"
       xlink:href="#linearGradient4119-6"
       id="linearGradient4037"
       gradientUnits="userSpaceOnUse"
       gradientTransform="matrix(0.49218516,0,0,0.34057876,2393.528867447113,1578.89901345213)"
       x1="-387.555908203125"
       y1="516.4258422851562"
       x2="71.24900817871094"
       y2="603.0982666015625" />
    <linearGradient
       inkscape:collect="always"
       xlink:href="#linearGradient3717-9-7-8-3-2"
       id="linearGradient4041"
       gradientUnits="userSpaceOnUse"
       gradientTransform="matrix(0.49218516,0,0,-0.68898011,2393.976467447113,2204.326313452129)"
       x1="-212.6003723144531"
       y1="609.319091796875"
       x2="-212.6003723144531"
       y2="481.612548828125" />
    <linearGradient
       inkscape:collect="always"
       xlink:href="#linearGradient4129-7"
       id="linearGradient4044"
       gradientUnits="userSpaceOnUse"
       gradientTransform="matrix(0.5868535099999999,0,0,0.77157377,1722.383650393269,1514.100361210984)"
       x1="815.937255859375"
       y1="153.0357055664062"
       x2="1154.338256835938"
       y2="189.5653076171875" />
    <linearGradient
       id="linearGradient4129-7-7">
      <stop
         style="stop-color:#c17d11;stop-opacity:1;"
         offset="0"
         id="stop4131-4-5" />
      <stop
         style="stop-color:#8f5902;stop-opacity:1;"
         offset="0.49965063"
         id="stop4133-8-9" />
      <stop
         style="stop-color:#c17d11;stop-opacity:1;"
         offset="1"
         id="stop4135-5-6" />
    </linearGradient>
    <linearGradient
       id="linearGradient3717-9-7-8-3-2-1">
      <stop
         style="stop-color:#e9b96e;stop-opacity:1;"
         offset="0"
         id="stop3719-3-7-5-9-6-7" />
      <stop
         style="stop-color:#3c3232;stop-opacity:1;"
         offset="1"
         id="stop3721-3-3-0-7-0-8" />
    </linearGradient>
    <linearGradient
       id="linearGradient17115-6-4-8-6-5-6-4"
       inkscape:collect="always">
      <stop
         id="stop17117-1-9-0-3-0-4-1"
         offset="0"
         style="stop-color:#ffffff;stop-opacity:1;" />
      <stop
         id="stop17119-1-4-1-85-2-6-8"
         offset="1"
         style="stop-color:#ffffff;stop-opacity:0;" />
    </linearGradient>
    <filter
       color-interpolation-filters="sRGB"
       inkscape:collect="always"
       id="filter4137-2-5"
       x="-0.1019242182374001"
       width="1.203848361968994"
       y="-0.0432465523481369"
       height="1.086493134498596">
      <feGaussianBlur
         inkscape:collect="always"
         stdDeviation="2.7832615"
         id="feGaussianBlur4139-8-9" />
    </filter>
    <linearGradient
       id="linearGradient4119-6-53">
      <stop
         id="stop4121-0-8"
         offset="0"
         style="stop-color:#d3d7cf;stop-opacity:1;" />
      <stop
         style="stop-color:#a1a39d;stop-opacity:1;"
         offset="0.31745353"
         id="stop4127-7-8" />
      <stop
         id="stop4123-0-3"
         offset="0.560866"
         style="stop-color:#888a85;stop-opacity:1;" />
      <stop
         id="stop4125-1-1"
         offset="1"
         style="stop-color:#babdb6;stop-opacity:1;" />
    </linearGradient>
    <linearGradient
       inkscape:collect="always"
       xlink:href="#linearGradient4119-6-53"
       id="linearGradient3248"
       gradientUnits="userSpaceOnUse"
       gradientTransform="matrix(0.49218516,0,0,0.34057876,2959.709692979492,2026.441697947132)"
       x1="-387.555908203125"
       y1="516.4258422851562"
       x2="71.24900817871094"
       y2="603.0982666015625" />
    <linearGradient
       inkscape:collect="always"
       xlink:href="#linearGradient3717-9-7-8-3-2-1"
       id="linearGradient3252"
       gradientUnits="userSpaceOnUse"
       gradientTransform="matrix(0.49218516,0,0,-0.68898011,2960.319401121427,2651.86899794713)"
       x1="-212.6003723144531"
       y1="609.319091796875"
       x2="-212.6003723144531"
       y2="481.612548828125" />
    <linearGradient
       inkscape:collect="always"
       xlink:href="#linearGradient4129-7-7"
       id="linearGradient3256"
       gradientUnits="userSpaceOnUse"
       gradientTransform="matrix(0.5868535099999999,0,0,0.77157377,2288.28619297949,1961.643045705985)"
       x1="815.937255859375"
       y1="153.0357055664062"
       x2="1154.338256835938"
       y2="189.5653076171875" />
    <linearGradient
       inkscape:collect="always"
       xlink:href="#linearGradient17115-6-4-8-6-5-6-4"
       id="linearGradient3258"
       gradientUnits="userSpaceOnUse"
       gradientTransform="matrix(0.4294299999999998,0,0,1.0120889,981.6214099999937,1377.9604)"
       x1="1218.02392578125"
       y1="143.9681854248047"
       x2="1370.638305664062"
       y2="143.9681854248047" />
    <linearGradient
       inkscape:collect="always"
       xlink:href="#linearGradient10538-8"
       id="linearGradient4083"
       gradientUnits="userSpaceOnUse"
       gradientTransform="matrix(0.5773609999999997,0,0,0.9491898131060667,576.4125869552899,426.1098768418715)"
       x1="791.132080078125"
       y1="186.2458190917969"
       x2="1112.27734375"
       y2="182.92626953125" />
    <linearGradient
       inkscape:collect="always"
       xlink:href="#linearGradient3717"
       id="linearGradient4085"
       gradientUnits="userSpaceOnUse"
       gradientTransform="matrix(0.484326,0,0,-0.4976999170150771,1237.43768695529,1051.493056093654)"
       x1="-212.6003723144531"
       y1="609.319091796875"
       x2="-212.6003723144531"
       y2="481.612548828125" />
    <linearGradient
       inkscape:collect="always"
       xlink:href="#linearGradient17115-6"
       id="linearGradient4087"
       gradientUnits="userSpaceOnUse"
       gradientTransform="matrix(0.42943,0,0,1.276167867971579,576.4125869552899,426.1098768418715)"
       x1="1218.02392578125"
       y1="143.9681854248047"
       x2="1370.638305664062"
       y2="143.9681854248047" />
    <linearGradient
       inkscape:collect="always"
       xlink:href="#linearGradient7420-9"
       id="linearGradient4089"
       gradientUnits="userSpaceOnUse"
       gradientTransform="matrix(0.484326,0,0,0.3311183841794606,1237.43768695529,546.8373858311429)"
       x1="-338.5803527832031"
       y1="545.6839599609375"
       x2="-89.84892272949219"
       y2="544.2366333007812" />
    <linearGradient
       inkscape:collect="always"
       xlink:href="#linearGradient10538-8-9"
       id="linearGradient4097"
       gradientUnits="userSpaceOnUse"
       gradientTransform="matrix(0.5773609999999997,0,0,0.9491898131060667,874.1169478177819,515.4935471011995)"
       x1="791.132080078125"
       y1="186.2458190917969"
       x2="1112.27734375"
       y2="182.92626953125" />
    <linearGradient
       inkscape:collect="always"
       xlink:href="#linearGradient3717-9"
       id="linearGradient4099"
       gradientUnits="userSpaceOnUse"
       gradientTransform="matrix(0.484326,0,0,-0.4976999170150771,1535.142047817782,1140.876726352982)"
       x1="-212.6003723144531"
       y1="609.319091796875"
       x2="-212.6003723144531"
       y2="481.612548828125" />
    <linearGradient
       inkscape:collect="always"
       xlink:href="#linearGradient17115-6-4"
       id="linearGradient4101"
       gradientUnits="userSpaceOnUse"
       gradientTransform="matrix(0.42943,0,0,1.276167867971579,874.1169478177819,515.4935471011995)"
       x1="1218.02392578125"
       y1="143.9681854248047"
       x2="1370.638305664062"
       y2="143.9681854248047" />
    <linearGradient
       inkscape:collect="always"
       xlink:href="#linearGradient7420-9-8"
       id="linearGradient4103"
       gradientUnits="userSpaceOnUse"
       gradientTransform="matrix(0.484326,0,0,0.3311183841794606,1535.142047817782,636.2210560904709)"
       x1="-338.5803527832031"
       y1="545.6839599609375"
       x2="-89.84892272949219"
       y2="544.2366333007812" />
    <linearGradient
       inkscape:collect="always"
       xlink:href="#linearGradient4129-7"
       id="linearGradient4117"
       gradientUnits="userSpaceOnUse"
       gradientTransform="matrix(0.5868535099999999,0,0,0.77157377,1722.383650393269,1514.100361210984)"
       x1="815.937255859375"
       y1="153.0357055664062"
       x2="1154.338256835938"
       y2="189.5653076171875" />
    <linearGradient
       inkscape:collect="always"
       xlink:href="#linearGradient3717-9-7-8-3-2"
       id="linearGradient4120"
       gradientUnits="userSpaceOnUse"
       gradientTransform="matrix(0.49218516,0,0,-0.68898011,2393.976467447113,2204.326313452129)"
       x1="-212.6003723144531"
       y1="609.319091796875"
       x2="-212.6003723144531"
       y2="481.612548828125" />
    <linearGradient
       inkscape:collect="always"
       xlink:href="#linearGradient17115-6-4-8-6-5-6"
       id="linearGradient4122"
       gradientUnits="userSpaceOnUse"
       gradientTransform="matrix(0.4294299999999998,0,0,1.0120889,981.6214099999976,1377.9604)"
       x1="1218.02392578125"
       y1="143.9681854248047"
       x2="1370.638305664062"
       y2="143.9681854248047" />
    <linearGradient
       inkscape:collect="always"
       xlink:href="#linearGradient4119-6"
       id="linearGradient4124"
       gradientUnits="userSpaceOnUse"
       gradientTransform="matrix(0.49218516,0,0,0.34057876,2393.528867447113,1578.89901345213)"
       x1="-387.555908203125"
       y1="516.4258422851562"
       x2="71.24900817871094"
       y2="603.0982666015625" />
    <linearGradient
       inkscape:collect="always"
       xlink:href="#linearGradient4129-7-7-3"
       id="linearGradient3256-5"
       gradientUnits="userSpaceOnUse"
       gradientTransform="matrix(0.5868535099999999,0,0,0.77157377,2288.28619297949,1961.643045705985)"
       x1="815.937255859375"
       y1="153.0357055664062"
       x2="1154.338256835938"
       y2="189.5653076171875" />
    <linearGradient
       id="linearGradient4129-7-7-3">
      <stop
         style="stop-color:#c17d11;stop-opacity:1;"
         offset="0"
         id="stop4131-4-5-8" />
      <stop
         style="stop-color:#8f5902;stop-opacity:1;"
         offset="0.49965063"
         id="stop4133-8-9-2" />
      <stop
         style="stop-color:#c17d11;stop-opacity:1;"
         offset="1"
         id="stop4135-5-6-7" />
    </linearGradient>
    <linearGradient
       inkscape:collect="always"
       xlink:href="#linearGradient3717-9-7-8-3-2-1-5"
       id="linearGradient3252-3"
       gradientUnits="userSpaceOnUse"
       gradientTransform="matrix(0.49218516,0,0,-0.68898011,2960.319401121427,2651.86899794713)"
       x1="-212.6003723144531"
       y1="609.319091796875"
       x2="-212.6003723144531"
       y2="481.612548828125" />
    <linearGradient
       id="linearGradient3717-9-7-8-3-2-1-5">
      <stop
         style="stop-color:#e9b96e;stop-opacity:1;"
         offset="0"
         id="stop3719-3-7-5-9-6-7-3" />
      <stop
         style="stop-color:#3c3232;stop-opacity:1;"
         offset="1"
         id="stop3721-3-3-0-7-0-8-7" />
    </linearGradient>
    <linearGradient
       inkscape:collect="always"
       xlink:href="#linearGradient17115-6-4-8-6-5-6-4-8"
       id="linearGradient3258-4"
       gradientUnits="userSpaceOnUse"
       gradientTransform="matrix(0.4294299999999998,0,0,1.0120889,981.621409999993,1377.9604)"
       x1="1218.02392578125"
       y1="143.9681854248047"
       x2="1370.638305664062"
       y2="143.9681854248047" />
    <linearGradient
       id="linearGradient17115-6-4-8-6-5-6-4-8"
       inkscape:collect="always">
      <stop
         id="stop17117-1-9-0-3-0-4-1-0"
         offset="0"
         style="stop-color:#ffffff;stop-opacity:1;" />
      <stop
         id="stop17119-1-4-1-85-2-6-8-0"
         offset="1"
         style="stop-color:#ffffff;stop-opacity:0;" />
    </linearGradient>
    <filter
       color-interpolation-filters="sRGB"
       inkscape:collect="always"
       id="filter4137-2-5-1"
       x="-0.1019242182374001"
       width="1.203848361968994"
       y="-0.0432465523481369"
       height="1.086493134498596">
      <feGaussianBlur
         inkscape:collect="always"
         stdDeviation="2.7832615"
         id="feGaussianBlur4139-8-9-6" />
    </filter>
    <linearGradient
       id="linearGradient4119-6-53-5">
      <stop
         id="stop4121-0-8-8"
         offset="0"
         style="stop-color:#d3d7cf;stop-opacity:1;" />
      <stop
         style="stop-color:#a1a39d;stop-opacity:1;"
         offset="0.31745353"
         id="stop4127-7-8-3" />
      <stop
         id="stop4123-0-3-1"
         offset="0.560866"
         style="stop-color:#888a85;stop-opacity:1;" />
      <stop
         id="stop4125-1-1-2"
         offset="1"
         style="stop-color:#babdb6;stop-opacity:1;" />
    </linearGradient>
    <linearGradient
       y2="603.0982666015625"
       x2="71.24900817871094"
       y1="516.4258422851562"
       x1="-387.555908203125"
       gradientTransform="matrix(0.49218516,0,0,0.34057876,2959.709692979492,2026.441697947132)"
       gradientUnits="userSpaceOnUse"
       id="linearGradient4166"
       xlink:href="#linearGradient4119-6-53-5"
       inkscape:collect="always" />
    <linearGradient
       inkscape:collect="always"
       xlink:href="#linearGradient4119-6-53-5"
       id="linearGradient4234"
       gradientUnits="userSpaceOnUse"
       gradientTransform="matrix(0.2109365852696279,0,0,0.1450907602722615,2297.979006921051,287.7639419483101)"
       x1="-387.555908203125"
       y1="516.4258422851562"
       x2="71.24900817871094"
       y2="603.0982666015625" />
    <linearGradient
       inkscape:collect="always"
       xlink:href="#linearGradient3717-9-7-8-3-2-1-5"
       id="linearGradient4239"
       gradientUnits="userSpaceOnUse"
       gradientTransform="matrix(0.2109365852696279,0,0,-0.2935140405478203,2298.240310519621,554.2037001176903)"
       x1="-212.6003723144531"
       y1="609.319091796875"
       x2="-212.6003723144531"
       y2="481.612548828125" />
    <linearGradient
       inkscape:collect="always"
       xlink:href="#linearGradient4129-7-7-3"
       id="linearGradient4243"
       gradientUnits="userSpaceOnUse"
       gradientTransform="matrix(0.2515087522201916,0,0,0.3286999603129538,2010.225958129856,260.1589153803411)"
       x1="815.937255859375"
       y1="153.0357055664062"
       x2="1154.338256835938"
       y2="189.5653076171875" />
  </defs>
  <sodipodi:namedview
     id="base"
     pagecolor="#ffffff"
     bordercolor="#666666"
     borderopacity="1.0"
     inkscape:pageopacity="0.0"
     inkscape:pageshadow="2"
     inkscape:zoom="0.4014084333178587"
     inkscape:cx="-408.3196843336172"
     inkscape:cy="300.7251759869332"
     inkscape:document-units="px"
     inkscape:current-layer="layer1"
     showguides="true"
     inkscape:guide-bbox="true"
     inkscape:window-width="1269"
     inkscape:window-height="947"
     inkscape:window-x="0"
     inkscape:window-y="25"
     showgrid="false"
     inkscape:window-maximized="1"
     inkscape:snap-bbox="true"
     inkscape:bbox-paths="true"
     inkscape:bbox-nodes="true"
     inkscape:snap-bbox-edge-midpoints="true"
     inkscape:snap-bbox-midpoints="true"
     inkscape:object-paths="true"
     inkscape:snap-intersection-paths="true"
     inkscape:object-nodes="true"
     inkscape:snap-smooth-nodes="true"
     inkscape:snap-midpoints="true"
     inkscape:snap-center="true"
     inkscape:snap-object-midpoints="true"
     inkscape:snap-global="false" />
  <metadata
     id="metadata4">
    <rdf:RDF>
      <cc:Work
         rdf:about="">
        <dc:format>image/svg+xml</dc:format>
        <dc:type
           rdf:resource="http://purl.org/dc/dcmitype/StillImage" />
        <dc:title>Brush images</dc:title>
        <dc:description>Gfx for Enigma</dc:description>
        <dc:creator>
          <cc:Agent>
            <dc:title>R. Bourquin</dc:title>
          </cc:Agent>
        </dc:creator>
        <cc:license
           rdf:resource="http://creativecommons.org/licenses/publicdomain/" />
      </cc:Work>
      <cc:License
         rdf:about="http://creativecommons.org/licenses/publicdomain/">
        <cc:permits
           rdf:resource="http://creativecommons.org/ns#Reproduction" />
        <cc:permits
           rdf:resource="http://creativecommons.org/ns#Distribution" />
        <cc:permits
           rdf:resource="http://creativecommons.org/ns#DerivativeWorks" />
      </cc:License>
    </rdf:RDF>
  </metadata>
  <g
     style="display:inline"
     inkscape:label="Layer 1"
     inkscape:groupmode="layer"
     id="layer1"
     transform="translate(-1231.209505737537,-85.78012448057825)">
    <path
       style="opacity:0.989999988;fill:#c8c8c8;fill-opacity:1;stroke:none"
       d="m 971.6244701887311,462.0719233391857 c -4.7027325898756,-2.264323849184 -7.1622810195341,-5.849017435239 -7.1622810195341,-10.438738478433 0,-1.253186839422 0.8724837897706,-5.213395494922 1.938852866155,-8.8004636788881 1.5083949713469,-5.0739614739379 1.8796898022449,-7.3398631527921 1.672372735542,-10.20599231068 -0.3395038130528,-4.6935922511269 -1.6845985036663,-6.5647836798449 -6.441684238418,-8.9611715944891 -3.532790870918,-1.7796478390529 -4.078904072956,-1.8682010290729 -11.4941034023423,-1.863788531207 -9.5557849545487,0.0056862774 -11.6279594812547,0.629941266589 -28.3248386105389,8.533027306042 -18.6364781637061,8.8211509024941 -26.2775804789817,10.9938090041972 -40.5720872327288,11.5361986258102 -10.2913494567773,0.390494141135 -16.7573897722201,-0.389582172576 -24.83553445583,-2.9962096155004 -10.829317747769,-3.4943663347301 -15.5701761294181,-7.6521488583071 -15.5701761294181,-13.6552077679688 0,-4.7524582420849 1.957805915559,-6.6531779922481 11.9777784899461,-11.6285276073442 7.331567190649,-3.6404401039268 8.8284008143688,-4.6374170424188 10.435490001581,-6.950634130985 1.6671897436461,-2.3997248165029 1.8741456418147,-3.1976302098179 1.8577093396701,-7.1622810195318 -0.02157260025,-5.2035930162931 -1.309096235541,-8.168640214572 -5.0668880184935,-11.6685719092462 -3.3469012546796,-3.1172365199529 -5.0124197626917,-4.0399840155939 -9.9258354058719,-5.499212238619 -3.7089984043679,-1.1015300849461 -6.422661009467,-1.3070509758551 -19.8659741748347,-1.5045616590331 -13.6676702459549,-0.200806962876 -16.00810304992,-0.382861391572 -19.1541856945249,-1.4899399495 -6.7410962027201,-2.3721319195971 -10.7065731120103,-6.03727703747 -12.9662306353204,-11.984212239124 -4.6073101877912,-12.1254547904152 4.675975753187,-26.6530596882601 21.2212930392502,-33.2096374770461 7.429838766745,-2.9442962615969 13.4611700005911,-3.801591128944 26.780702942599,-3.806615535851 18.2202307094619,-0.0068730528 45.464914297901,0.4955288586799 45.464914297901,0.83838961733 0,0.1659812787971 -0.8890886430861,6.1950861132157 -1.975752540191,13.3980107431539 -2.1717869051163,14.3956355148158 -2.714658678414,26.9197160603701 -1.2760073781179,29.4375577554481 1.1897478720718,2.082225761252 3.4067610090259,2.325833938781 10.0589224540289,1.1052869854849 6.3941030613871,-1.1731980763169 6.2232862802631,-1.1772491447599 25.8902073360581,0.6140087714001 9.7046176178238,0.8838939802489 14.7463139769829,0.9910761869088 28.0263170329519,0.5958158306629 8.9061407460269,-0.2650785808729 28.9856366328861,-0.542767060658 44.6211019707971,-0.6170855106339 15.635465337911,-0.07431844998 28.730152435973,-0.3217915096272 29.099304662361,-0.5499401325571 1.162221805307,-0.718292578146 2.099308952628,-5.5299152460589 1.708023646811,-8.7701184674439 -0.206827127294,-1.7127193742369 -1.37795708245,-7.177851195662 -2.602511011457,-12.1447373809469 -2.262339831547,-9.1762266973681 -2.275964113613,-9.3131628085121 -2.9801895721,-29.9535467998351 l -0.203876149691,-5.9754755605311 4.104513550185,0.8917652242831 c 5.784751195225,1.2568212734479 17.708100121953,1.073716488617 24.657146041015,-0.3786554807829 3.082894873626,-0.6443345102659 11.350658398346,-2.8737593336939 18.372807832714,-4.9542773853981 7.022149434368,-2.080518051705 15.117981851929,-4.2512206032169 17.990738705691,-4.823783447805 6.750647958216,-1.3454567840319 14.327071989653,-1.0035693613978 17.82882880976,0.8045289314672 8.864052041388,4.5768676088179 10.772631723564,13.3598787269559 6.262529941376,28.8192683891849 -3.471207580531,11.8983457973959 -5.213045264487,16.3227062458872 -7.715961603966,19.5989532532832 -3.295267836241,4.313412804403 -6.656702520707,5.827200006089 -16.141897351443,7.2693358387919 -10.102855496887,1.536045403883 -11.699407792086,1.9751257000829 -15.158612165991,4.168888134662 -11.295213000317,7.163211910112 -11.500124527301,26.2526006442581 -0.402819490419,37.526331268453 5.938156792316,6.032561947096 14.190124654717,9.081919019241 31.902984162299,11.7891383001018 13.93179415593,2.1293242765102 17.894924071555,3.106382984136 23.206503591595,5.7212649825871 5.122543619069,2.5218199304461 9.733814858233,7.4761315364679 11.034221732772,11.8550763897381 1.18113806974,3.9773232307203 1.178770762433,4.5574406395523 -0.0331115988,8.1141197159504 -3.932712152347,11.5418752456748 -19.148662524482,16.290367293347 -52.269018035693,16.311765641444 -14.462395290444,0.009343842 -22.437661844339,-0.579771636083 -34.017958070569,-2.5128320785969 -31.314825047989,-5.227279888353 -40.88652156636,-5.058748802684 -58.3834126079968,1.0279703178099 -10.9870280339884,3.8221049358271 -17.3640317240635,4.5757686020239 -21.5723185887755,2.549515964889 z"
       id="path3168" />
    <g
       id="g4091"
       transform="translate(-966.5965330946303,-518.1754610404191)">
      <path
         style="fill:url(#linearGradient4097);fill-opacity:1;fill-rule:nonzero;stroke:#000000;stroke-width:0.2324945778;stroke-miterlimit:4;stroke-opacity:1;stroke-dashoffset:0;display:inline"
         d="m 1431.384347817782,594.706360417172 c -31.09715,9.2013078440026 -16.84836,147.7534414530028 -18.26351,166.9996814351977 l -42.14222,33.5949937499192 122.34626,0.8676771139892 -41.613,-34.7224292611977 c -1.41496,-19.2435436989091 14.62113,-160.0350008595675 -17.96937,-166.7609672001397 l -2.35816,0.021044162231 z"
         id="path6914-3-5"
         sodipodi:nodetypes="ccccccc" />
      <path
         style="fill:url(#linearGradient4099);fill-opacity:1;fill-rule:evenodd;stroke:none;display:inline"
         d="m 1371.152767817782,901.1241317766764 4.2188,-63.447546299073 113.68811,-0.05791528814 4.13588,63.5595242591946 -122.04279,-0.054062671982 z"
         id="path7685-0-5"
         sodipodi:nodetypes="ccccc" />
      <path
         style="fill:url(#linearGradient4101);fill-opacity:1;fill-rule:nonzero;stroke:none;display:inline"
         d="m 1429.530727817782,601.8606960246587 c -16.6578,8.8943316077082 -9.02516,142.8241095024057 -9.78321,161.4282668857785 l -22.57432,32.4742057825955 65.53721,0.8387304304206 -22.29083,-33.5640248538857 c -0.75795,-18.601554264347 7.8321,-154.6959489347828 -9.62565,-161.1975264153158 l -1.2632,0.020348170407 z"
         id="path10993-4-3"
         sodipodi:nodetypes="ccccccc" />
      <path
         style="fill:url(#linearGradient4103);fill-opacity:1;fill-rule:evenodd;stroke:#000000;stroke-width:0.400462091px;stroke-linecap:butt;stroke-linejoin:miter;stroke-opacity:1;display:inline"
         d="m 1371.152767817782,795.727832037287 4.2188,42.211487613671 113.68811,0.038531641835 4.13588,-42.2859861400691 -122.04279,0.035966884563 z"
         id="path4617-4-6"
         sodipodi:nodetypes="ccccc" />
    </g>
    <g
       id="g4141"
       inkscape:export-xdpi="90.000076"
       inkscape:export-ydpi="90.000076"
       transform="translate(-891.3515548953763,-1451.529014296026)">
      <path
         style="fill:url(#linearGradient4116);fill-opacity:1;fill-rule:nonzero;stroke:#000000;stroke-width:0.2113324404;stroke-miterlimit:4;stroke-opacity:1;stroke-dashoffset:0;display:inline"
         d="m 1848.3808,1528.3399 c -31.6084,7.4796 -17.1254,120.1054 -18.5638,135.7501 l -42.8351,27.3086 124.3578,0.7053 -42.2972,-28.225 c -1.4382,-15.6427 14.8615,-130.0887 -18.2648,-135.556 l -2.3969,0.018 z"
         id="path6914-3-5-7-4-4"
         sodipodi:nodetypes="ccccccc" />
      <path
         style="fill:url(#linearGradient4113);fill-opacity:1;fill-rule:evenodd;stroke:none;display:inline"
         d="m 1792.0811,1735.7358 c -2.5127,10.6142 -6.2755,20.9978 -7.2189,31.9368 -0.8455,7.8829 -1.966,15.7326 -2.8834,23.6072 -1.1989,8.7903 -3.3017,17.5478 -2.9385,26.4792 0.1985,2.1623 0.024,4.4729 1.0049,6.466 1.5103,2.1314 4.5018,2.2472 6.7471,1.3958 6.8919,-2.0228 14.2207,-1.7628 21.22,-0.4963 12.4457,1.0594 24.9511,2.4036 37.4475,1.4049 13.6308,-0.7209 27.2787,-1.119 40.9271,-1.2612 8.9709,-0.073 18.0225,-0.6443 26.9111,0.9175 2.197,0.1792 4.7491,-1.0317 5.198,-3.3944 1.2004,-3.8914 -0.043,-7.9398 -0.6895,-11.8141 -1.8742,-8.4196 -4.857,-16.7467 -4.6355,-25.4923 -0.01,-8.5067 0.5096,-17.1143 -1.2369,-25.5004 -0.9989,-5.7419 -2.2762,-11.4518 -4.0596,-16.9974 -0.7964,-2.0532 -1.4627,-6.926 -1.4627,-6.926 0,0 -7.9432,-0.021 -11.0327,-0.1039 -34.1045,-0.1099 -68.2088,-0.3029 -102.3135,-0.3179 -0.3281,0.032 -0.6563,0.064 -0.9845,0.097 l 0,-2e-4 z M 1886.368,1824 c 0.1346,0.1541 -0.1385,4e-4 0,0 z m -65.9913,1.6071 c 0.2559,0.3732 -0.2489,-0.1433 0,0 z m -11.5595,1.0286 c 0.081,0.044 0.015,-0.1855 0,0 z m 5.1446,0.1607 c 0.059,0.21 0.1744,-0.1527 0,0 z m 32.7415,0.032 c 0.091,0.3812 0.1286,-0.1405 0,0 z m -1.1114,0.9963 c 0.1823,0.1515 0.067,-0.134 0,0 z m -6.2562,0.2894 c -0.1006,0.4226 0.2718,-0.6306 0,0 z"
         id="path7685-0-5-2-8-1"
         sodipodi:nodetypes="cccccccccccccccccccccccccccccccccc" />
      <path
         transform="matrix(0.97075537,0,0,1.028571,350.92048,48.527359)"
         style="opacity:0.5;fill:url(#linearGradient4104);fill-opacity:1;fill-rule:nonzero;stroke:none;display:inline;filter:url(#filter4137)"
         d="m 1537.0352,1446.4554 c -16.6578,7.0539 -9.0252,113.2694 -9.7832,128.0238 l -22.5743,25.7543 65.5372,0.6651 -22.2909,-26.6185 c -0.7579,-14.7523 7.8321,-122.6845 -9.6256,-127.8407 l -1.2632,0.017 z"
         id="path10993-4-3-8-10-7"
         sodipodi:nodetypes="ccccccc" />
      <path
         style="fill:url(#linearGradient4109);fill-opacity:1;fill-rule:evenodd;stroke:#000000;stroke-width:0.4090000093;stroke-linecap:butt;stroke-linejoin:miter;stroke-miterlimit:4;stroke-opacity:1;stroke-dasharray:none;display:inline"
         d="m 1786.9819,1691.3986 4.0298,45.0151 115.533,0.039 4.795,-44.3489 -62.1788,-0.3526 -62.179,-0.3527 z"
         id="path4617-4-6-9-3-1"
         sodipodi:nodetypes="cccccc" />
    </g>
    <path
       style="fill:#c8c3c3;fill-opacity:1;stroke:#000000;stroke-width:2;stroke-linecap:butt;stroke-linejoin:miter;stroke-miterlimit:4;stroke-opacity:1;stroke-dasharray:none;display:inline"
       inkscape:path-effect="#path-effect3139-1"
       inkscape:original-d="m 1396.464685497456,477.1206602907301 c -15.931578083535,-2.9320704553119 -30.499058650285,-11.2506220116729 -47.088418895934,-11.6938039548948 -20.404097220608,-0.545091994024 -40.858529194968,-1.9569827709512 -61.250011636583,-2.9057981935023 -8.11742971052,-0.3777039027359 -15.238272804682,6.8732984973069 -12.02189771634,14.8930660532603 3.804037902038,9.4850565964588 14.083539207846,13.2090252316071 22.630448607499,17.108310268236 10.148065523988,4.629767112076 4.740093830771,18.4795687683289 -5.641892510393,20.2492252528399 -19.06104348486,3.249040992358 -39.51465793232,4.5774096538139 -56.941926526773,13.109893193578 -13.126623724565,6.426864901714 -6.166426030919,27.855652140193 6.992710750253,32.7941404745211 23.501011664604,8.8196873306008 48.681765695912,7.3767695688141 73.076954134137,9.9828763454151 19.829116104901,2.1183191097629 40.473411756805,3.0446997661287 58.44484978377,12.7836822796659 12.105725317955,6.5602678543781 26.075587564102,8.298282469485 39.56671867196,10.5832492346827 17.182020034515,2.9100854794114 39.763793069482,-11.9282965948206 57.414118749605,-12.6907903980866 16.727280314582,-0.7226182573951 36.141580414193,13.5726706565026 52.715000868364,11.6221421140384 10.421301675235,-1.2264846851275 13.248010073311,2.1519268099355 21.610673667369,-4.1005577545936 9.625058055069,-7.1963347855789 3.045774916905,-21.305021015389 0.878913373926,-31.255741044969 -2.59008597924,-11.8942627024419 -21.225410422515,-20.8942562761099 -10.140750632423,-19.314404864376 54.054170483369,7.704120754748 -15.106739409564,-6.9537479771423 -26.775547156166,-7.026989633192 -12.286612410487,-0.07711943326 -18.911412635234,-13.8852376027933 -9.443739879539,-19.3024334729839 7.847836740386,-4.490361029264 -0.566750263054,-14.4181933755981 7.890057780327,-17.737914422728 14.642987286828,-5.748106477009 32.750503372899,-10.2847531247269 47.827089938014,-14.4519221286009 9.158237985158,-2.5313372690179 24.592671789389,-10.0873216124861 19.409349954125,-21.3531777710641 -4.286412212596,-9.3164393333559 -15.65832416155,-13.493683385308 -24.759170451591,-17.5256582801701 -18.395874395772,-8.149978734833 -39.21362554477,-2.7179117143508 -58.432600347901,-0.1256912513439 -18.741884252754,2.5278713548902 -37.716823992128,4.4137411961609 -56.613234538735,2.0526459611209 -11.748675824781,-1.4679900417849 -24.984425311316,-3.5074797538199 -35.511155870928,2.368913251174 -11.539075398927,6.4415196697909 0.02916713325,19.960186096499 1.16848987597,28.7540422969602 0.292241080469,2.2556611407299 -2.544907786444,3.6354608602968 -5.005029992007,3.1826964450221 z"
       id="path3137-0"
       d="m 1396.464685497456,477.1206602907301 c -3.898050706989,1.4683181833486 -8.139347208623,1.9140084344939 -12.293578588685,1.6088539773481 -4.154231380062,-0.3051544571458 -8.230087247833,-1.344989132086 -12.146611271966,-2.7632969866049 -7.833048048268,-2.8366157090376 -15.032405351954,-7.1626376771922 -22.648229035283,-10.539360945638 -19.190677085511,-8.5088111997294 -41.752315940474,-10.6853751469711 -61.250011636583,-2.9057981935023 -3.227044977408,1.2875903453072 -6.42170519632,2.8846485495202 -8.82168105919,5.3969829303671 -1.199987931434,1.2561671904234 -2.183698082734,2.7338046074987 -2.774039395107,4.3676418640181 -0.590341312373,1.6338372565195 -0.777107485725,3.4270374196908 -0.426177262043,5.1284412588751 0.493672462021,2.3934564921991 2.02116230904,4.4825599346783 3.905722676489,6.0384451172178 1.884560367449,1.5558851825395 4.116490636616,2.6298385699712 6.371941160582,3.5707367651803 2.255450523952,0.9408981952142 4.564941966951,1.767143921362 6.729699175819,2.9012394668997 2.164757208868,1.1340955455377 4.205990868739,2.6068617926373 5.623085594609,4.5978889189382 1.13381905433,1.5930230013958 1.83390406799,3.4828280601136 2.071704210454,5.4236317655876 0.237800142464,1.940803705474 0.01827995888,3.9296581660556 -0.579299864499,5.791422459844 -1.195159646761,3.723528587577 -3.879596292043,6.8662236201911 -7.134296856348,9.0341710274083 -4.181713724285,2.7854284125898 -9.227161794517,4.0288977454795 -14.234262711235,4.4463681316565 -5.007100916718,0.417470386177 -10.041263461182,0.058327569246 -15.06326636308,-0.09924135808 -5.022002901881,-0.1575689272954 -10.107722679185,-0.1063641559381 -14.98341474273,1.1072947808419 -4.875692063545,1.2136589367799 -9.573927007504,3.6912027021788 -12.660982709728,7.6554716391596 -1.901475642421,2.4417961807919 -3.135494672361,5.3821198693713 -3.652417303741,8.4334751748736 -0.51692263138,3.0513553055022 -0.325231163366,6.209141576171 0.452495157727,9.2046582222154 1.555452642184,5.9910332920887 5.41511118009,11.2206291946293 10.192632896267,15.1560070774321 9.713250405785,8.0010752620162 22.773749970769,10.7535931138018 35.35256877982,11.1247482875383 12.57881880905,0.3711551737367 25.142129027994,-1.3682886655017 37.724385354317,-1.1418719421232 20.038398811032,0.3605894271163 39.695184126363,5.7043115886813 58.44484978377,12.7836822796659 12.851931539306,4.8525445266251 25.829268517232,10.6256275341946 39.56671867196,10.5832492346827 9.839534262552,-0.030353721057 19.394546346579,-3.0639153558227 28.74268869596,-6.1346791806776 9.348142349381,-3.0707638248549 18.836934661038,-6.2397945641537 28.671430053645,-6.556111217409 9.027415434495,-0.2903577381237 17.954906656463,1.842438923611 26.612789782742,4.4152966372701 8.657883126279,2.5728577136591 17.212696727107,5.6083863710047 26.102211085622,7.2068454767683 3.756465734104,0.6754651172158 7.604757778118,1.090839071505 11.388232241511,0.5882369217579 3.783474463391,-0.502602149747 7.524470076775,-1.9891208931699 10.222441425858,-4.6887946763516 1.941657983646,-1.9428831800368 3.276073736128,-4.4470549473225 4.015805139318,-7.0923579976101 0.73973140319,-2.6453030502877 0.901578413561,-5.4304075570374 0.691922289324,-8.169180108071 -0.419312248472,-5.4775451020673 -2.286575542059,-10.7215543186252 -3.828814054716,-15.9942029392879 -1.042660078902,-3.5646757500364 -1.948213078164,-7.1873026965724 -3.44416514689,-10.5867409812171 -1.495952068725,-3.3994382846447 -3.643932653986,-6.612158285653 -6.696585485533,-8.7276638831589 -3.828356542776,-2.6530726362965 -8.650215291626,-3.3278740156785 -13.281952574647,-3.8199288633881 -4.631737283021,-0.4920548477104 -9.433987233987,-0.9234897908445 -13.493594581519,-3.2070607698039 -3.288586182573,-1.8498636260704 -5.874157339042,-4.8454685613444 -7.455500175051,-8.2712749409097 -1.581342836009,-3.4258063795653 -2.184964089571,-7.2631227000284 -1.988239704488,-11.0311585320742 0.345131245164,-6.6106034490312 3.196195494276,-13.0702757931514 7.890057780327,-17.737914422728 6.001496473765,-5.9679673303283 14.477020678694,-8.7348485986173 22.806737373412,-10.2349865143484 8.329716694719,-1.5001379157312 16.868203023941,-1.9416220430741 25.020352564602,-4.2169356142525 5.057785945395,-1.4116582312766 10.027160992774,-3.5933409944548 13.813495627833,-7.2316988194516 1.89316731753,-1.8191789124984 3.465674122238,-3.9907137143621 4.47586101431,-6.4141445161239 1.010186892072,-2.4234308017617 1.446305165762,-5.1021444266939 1.119993311982,-7.7073344354886 -0.337964034677,-2.6982180275556 -1.486648190549,-5.2666361619248 -3.134329103052,-7.4299086421121 -1.647680912502,-2.1632724801874 -3.782380180855,-3.9309987031165 -6.128369501536,-5.3061111785935 -4.691978641361,-2.7502249509537 -10.127893860464,-3.9197124543974 -15.496471847003,-4.7896384594645 -19.300330972135,-3.1274314839355 -39.07652655579,-2.8872145040146 -58.432600347901,-0.1256912513439 -9.436812322884,1.3463462136291 -18.794171098887,3.2880395469134 -28.284615893083,4.1810863276678 -9.490444794196,0.8930467807545 -19.227482139901,0.7062358491743 -28.328618645652,-2.1284403665469 -6.369069069238,-1.9837356131783 -12.411906254582,-5.2519515245557 -19.040882734281,-5.998221330534 -3.31448823984,-0.37313490299 -6.761163269221,-0.077446209508 -9.8009616038,1.295393195868 -3.03979833458,1.3728394053763 -5.632680882656,3.9014955210918 -6.669311532847,7.07174138584 -0.773583848135,2.3657905495471 -0.658662343697,4.9439087795703 -0.14890288349,7.3802055979305 0.509759460206,2.4362968183603 1.398595191111,4.7736432342186 2.167181805103,7.1410619785928 0.768586613966,2.3674187443642 1.424031723381,4.806998366612 1.441312989021,7.29599379694 0.01728126564,2.488995430328 -0.659869272359,5.0567605593731 -2.291102034664,6.9367809234969 -1.309305796373,1.5089946799564 -3.135433067469,2.478456462983 -5.005029992013,3.1826964450127"
       sodipodi:nodetypes="cssssssssssssssssssssssssss"
       inkscape:export-xdpi="96.79824829101562"
       inkscape:export-ydpi="96.79824829101562" />
    <g
       id="g4105"
       transform="translate(-1624.162319394361,-1502.489189564197)">
      <g
         id="g3210">
        <g
           id="g4153">
          <path
             style="fill:url(#linearGradient4117);fill-opacity:1;fill-rule:nonzero;stroke:#000000;stroke-width:1;stroke-linejoin:round;stroke-miterlimit:4;stroke-opacity:1;stroke-dasharray:none;stroke-dashoffset:0;display:inline"
             d="m 2288.813250393269,1578.490461210984 c -31.6084,7.479600000001 -17.1254,120.1054 -18.5638,135.750100000001 l -42.8351,27.308599999999 124.3578,0.705300000001 -42.2972,-28.225 c -1.4382,-15.6427 14.8615,-130.0887 -18.2648,-135.556 l -2.396899999999,0.018 z"
             id="path6914-3-5-7-4-4-1"
             sodipodi:nodetypes="ccccccc" />
          <path
             style="fill:url(#linearGradient4120);fill-opacity:1;fill-rule:evenodd;stroke:none;display:inline"
             d="m 2232.235267447113,1785.70271345213 c -2.5127,10.6142 -6.2755,20.9978 -7.2189,31.9368 -0.8455,7.8829 -1.966,15.7326 -2.8834,23.6072 -1.1989,8.790299999999 -3.3017,17.5478 -2.9385,26.4792 0.1985,2.1623 0.024,4.4729 1.0049,6.465999999999 1.5103,2.1314 4.5018,2.2472 6.7471,1.3958 6.8919,-2.0228 14.220700000001,-1.7628 21.22,-0.4963 12.4457,1.059400000001 24.9511,2.403600000001 37.4475,1.4049 13.6308,-0.7209 27.278700000001,-1.118999999999 40.927100000001,-1.261199999999 8.970899999998,-0.073 18.0225,-0.6443 26.911099999998,0.9175 2.197000000001,0.1792 4.7491,-1.0317 5.197999999999,-3.3944 1.200399999997,-3.8914 -0.043,-7.9398 -0.6895,-11.8141 -1.874200000002,-8.4196 -4.856999999999,-16.7467 -4.635499999998,-25.4923 -0.01,-8.5067 0.509599999998,-17.1143 -1.236899999999,-25.5004 -0.9989,-5.7419 -2.276200000003,-11.4518 -4.0596,-16.9974 -0.796400000002,-2.0532 -1.462700000001,-6.926 -1.462700000001,-6.926 0,0 -7.943200000002,-0.021 -11.032700000002,-0.1039 -34.104499999999,-0.1099 -68.208799999999,-0.3029 -102.313499999997,-0.3179 -0.328100000002,0.032 -0.656300000002,0.064 -0.984500000001,0.097 l 0,-2e-4 z m 94.2869,88.2642 c 0.1346,0.1541 -0.1385,4e-4 0,0 z m -65.9913,1.6071 c 0.255900000001,0.3732 -0.2489,-0.1433 0,0 z m -11.5595,1.0286 c 0.081,0.044 0.015,-0.1855 0,0 z m 5.1446,0.1607 c 0.059,0.21 0.174400000001,-0.1527 0,0 z m 32.7415,0.032 c 0.091,0.3812 0.1286,-0.1405 0,0 z m -1.111399999999,0.9963 c 0.182299999999,0.1515 0.067,-0.134 0,0 z m -6.256200000001,0.2894 c -0.1006,0.4226 0.2718,-0.6306 0,0 z"
             id="path7685-0-5-2-8-1-3"
             sodipodi:nodetypes="cccccccccccccccccccccccccccccccccc" />
          <path
             transform="translate(-237.4219841511439,-139.9793035013559)"
             d="m 2528,1719.46875 c -5.72417901712,0.551147235017 -9.625758594114,4.196071095914 -12.28125,8.8125 -2.655491405886,4.616428904086 -4.138029328911,10.2322282594 -5.1875,14.875 -7.24319008822,36.818307513719 -2.678569348803,74.50692205982 -1.875,111.59375 -12.936238637023,8.453097467637 -26.043520021337,16.649202338687 -39.0625,25 a 0.4805988508731127,0.4805988508731127 0 0 0 0.25,0.875 l 114.3125,0.59375 a 0.4805988508731127,0.4805988508731127 0 0 0 0.28125,-0.875 c -12.891594296687,-8.615956749927 -25.878238975219,-17.093081639774 -38.65625,-25.875 0.883451755853,-37.575048004253 6.778331316355,-75.961404626318 -1.34375,-113.21875 a 0.4805988508731127,0.4805988508731127 0 0 0 0,-0.03125 c -1.104932203853,-3.959691023064 -2.598145186268,-9.156594587266 -5.09375,-13.5 -2.495604813732,-4.343405412734 -6.064823809278,-7.867899502227 -11.28125,-8.25 a 0.4805988508731127,0.4805988508731127 0 0 0 -0.0625,0 z"
             id="path4119-0"
             style="fill:none;stroke:#c17d11;stroke-width:1px;stroke-linecap:butt;stroke-linejoin:miter;stroke-opacity:1;display:inline"
             inkscape:original="M 2528.03125 1719.9375 C 2516.94242544126 1721.005177124852 2513.092304717653 1733.993816398641 2511 1743.25 C 2503.760027197083 1780.051953531814 2508.335818362783 1817.800494020577 2509.125 1855 C 2496.110525392479 1863.508379974978 2482.935170378679 1871.758986707429 2469.84375 1880.15625 L 2584.15625 1880.75 C 2571.205155358812 1872.094276842364 2558.156834884118 1863.5819199369 2545.3125 1854.75 C 2546.174113559989 1817.042967157556 2552.08601171259 1778.578987045156 2543.96875 1741.34375 C 2541.760216274669 1733.429136654649 2538.068773317507 1720.672743347801 2528.03125 1719.9375 z "
             inkscape:radius="0.4805507957935333"
             sodipodi:type="inkscape:offset" />
          <path
             transform="matrix(0.97075537,0,0,1.028571,792.3202615374666,97.24865836177592)"
             style="opacity:0.5;fill:url(#linearGradient4122);fill-opacity:1;fill-rule:nonzero;stroke:none;display:inline;filter:url(#filter4137-2)"
             d="m 1537.0352,1446.4554 c -16.6578,7.0539 -9.0252,113.2694 -9.7832,128.0238 l -22.5743,25.7543 65.5372,0.6651 -22.2909,-26.6185 c -0.7579,-14.7523 7.8321,-122.6845 -9.6256,-127.8407 l -1.2632,0.017 z"
             id="path10993-4-3-8-10-7-7"
             sodipodi:nodetypes="ccccccc" />
          <path
             style="fill:url(#linearGradient4124);fill-opacity:1;fill-rule:evenodd;stroke:#000000;stroke-width:0.4090000093;stroke-linecap:butt;stroke-linejoin:miter;stroke-miterlimit:4;stroke-opacity:1;stroke-dasharray:none;display:inline"
             d="m 2227.136067447113,1741.36551345213 4.0298,45.0151 115.533,0.039 4.795,-44.3489 -62.1788,-0.3526 -62.179000000001,-0.3527 z"
             id="path4617-4-6-9-3-1-7"
             sodipodi:nodetypes="cccccc" />
        </g>
        <path
           sodipodi:type="inkscape:offset"
           inkscape:radius="0.4805507957935333"
           inkscape:original="M 2528.03125 1719.9375 C 2516.94242544126 1721.005177124852 2513.092304717653 1733.993816398641 2511 1743.25 C 2503.760027197083 1780.051953531814 2508.335818362783 1817.800494020577 2509.125 1855 C 2496.110525392479 1863.508379974978 2482.935170378679 1871.758986707429 2469.84375 1880.15625 L 2584.15625 1880.75 C 2571.205155358812 1872.094276842364 2558.156834884118 1863.5819199369 2545.3125 1854.75 C 2546.174113559989 1817.042967157556 2552.08601171259 1778.578987045156 2543.96875 1741.34375 C 2541.760216274669 1733.429136654649 2538.068773317507 1720.672743347801 2528.03125 1719.9375 z "
           style="fill:none;stroke:#c17d11;stroke-width:1px;stroke-linecap:butt;stroke-linejoin:miter;stroke-opacity:1;display:inline"
           id="path4119-0-5"
           d="m 2528,1719.46875 c -5.72417901712,0.551147235017 -9.625758594114,4.196071095914 -12.28125,8.8125 -2.655491405886,4.616428904086 -4.138029328911,10.2322282594 -5.1875,14.875 -7.24319008822,36.818307513719 -2.678569348803,74.50692205982 -1.875,111.59375 -12.936238637023,8.453097467637 -26.043520021337,16.649202338687 -39.0625,25 a 0.4805988508731127,0.4805988508731127 0 0 0 0.25,0.875 l 114.3125,0.59375 a 0.4805988508731127,0.4805988508731127 0 0 0 0.28125,-0.875 c -12.891594296687,-8.615956749927 -25.878238975219,-17.093081639774 -38.65625,-25.875 0.883451755853,-37.575048004253 6.778331316355,-75.961404626318 -1.34375,-113.21875 a 0.4805988508731127,0.4805988508731127 0 0 0 0,-0.03125 c -1.104932203853,-3.959691023064 -2.598145186268,-9.156594587266 -5.09375,-13.5 -2.495604813732,-4.343405412734 -6.064823809278,-7.867899502227 -11.28125,-8.25 a 0.4805988508731127,0.4805988508731127 0 0 0 -0.0625,0 z"
           transform="translate(-237.4219841511439,-139.9793035013559)" />
      </g>
      <path
         transform="translate(-237.4219841511439,-139.9793035013559)"
         d="m 2528,1719.46875 c -5.72417901712,0.551147235017 -9.625758594114,4.196071095914 -12.28125,8.8125 -2.655491405886,4.616428904086 -4.138029328911,10.2322282594 -5.1875,14.875 -7.24319008822,36.818307513719 -2.678569348803,74.50692205982 -1.875,111.59375 -12.936238637023,8.453097467637 -26.043520021337,16.649202338687 -39.0625,25 a 0.4805988508731127,0.4805988508731127 0 0 0 0.25,0.875 l 114.3125,0.59375 a 0.4805988508731127,0.4805988508731127 0 0 0 0.28125,-0.875 c -12.891594296687,-8.615956749927 -25.878238975219,-17.093081639774 -38.65625,-25.875 0.883451755853,-37.575048004253 6.778331316355,-75.961404626318 -1.34375,-113.21875 a 0.4805988508731127,0.4805988508731127 0 0 0 0,-0.03125 c -1.104932203853,-3.959691023064 -2.598145186268,-9.156594587266 -5.09375,-13.5 -2.495604813732,-4.343405412734 -6.064823809278,-7.867899502227 -11.28125,-8.25 a 0.4805988508731127,0.4805988508731127 0 0 0 -0.0625,0 z"
         id="path4119-0-3"
         style="fill:none;stroke:#c17d11;stroke-width:1px;stroke-linecap:butt;stroke-linejoin:miter;stroke-opacity:1;display:inline"
         inkscape:original="M 2528.03125 1719.9375 C 2516.94242544126 1721.005177124852 2513.092304717653 1733.993816398641 2511 1743.25 C 2503.760027197083 1780.051953531814 2508.335818362783 1817.800494020577 2509.125 1855 C 2496.110525392479 1863.508379974978 2482.935170378679 1871.758986707429 2469.84375 1880.15625 L 2584.15625 1880.75 C 2571.205155358812 1872.094276842364 2558.156834884118 1863.5819199369 2545.3125 1854.75 C 2546.174113559989 1817.042967157556 2552.08601171259 1778.578987045156 2543.96875 1741.34375 C 2541.760216274669 1733.429136654649 2538.068773317507 1720.672743347801 2528.03125 1719.9375 z "
         inkscape:radius="0.4805507957935333"
         sodipodi:type="inkscape:offset" />
      <path
         transform="translate(-237.4219841511439,-139.9793035013559)"
         d="m 2528,1719.46875 c -5.72417901712,0.551147235017 -9.625758594114,4.196071095914 -12.28125,8.8125 -2.655491405886,4.616428904086 -4.138029328911,10.2322282594 -5.1875,14.875 -7.24319008822,36.818307513719 -2.678569348803,74.50692205982 -1.875,111.59375 -12.936238637023,8.453097467637 -26.043520021337,16.649202338687 -39.0625,25 a 0.4805988508731127,0.4805988508731127 0 0 0 0.25,0.875 l 114.3125,0.59375 a 0.4805988508731127,0.4805988508731127 0 0 0 0.28125,-0.875 c -12.891594296687,-8.615956749927 -25.878238975219,-17.093081639774 -38.65625,-25.875 0.883451755853,-37.575048004253 6.778331316355,-75.961404626318 -1.34375,-113.21875 a 0.4805988508731127,0.4805988508731127 0 0 0 0,-0.03125 c -1.104932203853,-3.959691023064 -2.598145186268,-9.156594587266 -5.09375,-13.5 -2.495604813732,-4.343405412734 -6.064823809278,-7.867899502227 -11.28125,-8.25 a 0.4805988508731127,0.4805988508731127 0 0 0 -0.0625,0 z"
         id="path4119-0-5-8"
         style="fill:none;stroke:#c17d11;stroke-width:1px;stroke-linecap:butt;stroke-linejoin:miter;stroke-opacity:1;display:inline"
         inkscape:original="M 2528.03125 1719.9375 C 2516.94242544126 1721.005177124852 2513.092304717653 1733.993816398641 2511 1743.25 C 2503.760027197083 1780.051953531814 2508.335818362783 1817.800494020577 2509.125 1855 C 2496.110525392479 1863.508379974978 2482.935170378679 1871.758986707429 2469.84375 1880.15625 L 2584.15625 1880.75 C 2571.205155358812 1872.094276842364 2558.156834884118 1863.5819199369 2545.3125 1854.75 C 2546.174113559989 1817.042967157556 2552.08601171259 1778.578987045156 2543.96875 1741.34375 C 2541.760216274669 1733.429136654649 2538.068773317507 1720.672743347801 2528.03125 1719.9375 z "
         inkscape:radius="0.4805507957935333"
         sodipodi:type="inkscape:offset" />
    </g>
    <g
       id="g4068"
       transform="translate(-1460.504985145029,-1939.486021225409)">
      <path
         style="fill:url(#linearGradient3256);fill-opacity:1;fill-rule:nonzero;stroke:#000000;stroke-width:1.5;stroke-linejoin:round;stroke-miterlimit:4;stroke-opacity:1;stroke-dasharray:none;stroke-dashoffset:0;display:inline"
         d="m 2854.715792979489,2026.033145705986 c -31.6084,7.479600000001 -17.1254,120.105399999999 -18.5638,135.750100000001 l -42.835099999999,27.308599999999 124.357800000002,0.705300000001 -42.2972,-28.225 c -1.4382,-15.6427 14.8615,-130.0887 -18.2648,-135.556 l -2.396899999999,0.018 z"
         id="path6914-3-5-7-4-4-1-6"
         sodipodi:nodetypes="ccccccc" />
      <path
         sodipodi:nodetypes="cscccccccc"
         id="path3260"
         d="m 2856.622977621969,2027.321793632489 c -5.436536601841,0.547299390807 -9.142060155854,4.166776151036 -11.664111996092,8.750975374742 -2.522051840238,4.584199223706 -5.581558176933,15.225289260443 -6.578292503178,19.835647407682 -5.001773723351,36.053423529027 -1.890112360246,69.565598446713 -0.459607200629,106.410745396535 l -39.042023142822,25.088118498494 113.554287446372,0.69970249523 -38.922517932464,-26.727694070248 c 0.86118269085,-19.069648177455 3.214242722074,-41.447109274925 3.015185092926,-64.781547394947 -0.01275400678,-23.162508213465 -0.243119512154,-45.428165920337 -9.12919799673,-61.083545229006 -2.386269856356,-4.590450977444 -5.785981069459,-7.170440109823 -10.773721767383,-8.192402478482 z"
         style="fill:none;stroke:#c17d11;stroke-width:1.5051157475;stroke-linecap:butt;stroke-linejoin:miter;stroke-miterlimit:4;stroke-opacity:1;stroke-dasharray:none;display:inline" />
      <path
         style="fill:url(#linearGradient3252);fill-opacity:1;fill-rule:evenodd;stroke:none;display:inline"
         d="m 2798.578201121427,2233.245397947132 c -2.5127,10.614199999999 -6.2755,20.9978 -7.2189,31.936799999999 -0.845499999999,7.882900000001 -1.965999999999,15.732600000001 -2.8834,23.6072 -1.1989,8.7903 -3.3017,17.5478 -2.9385,26.479200000001 0.1985,2.1623 0.024,4.472899999999 1.0049,6.465999999998 1.510299999999,2.1314 4.5018,2.2472 6.7471,1.3958 6.8919,-2.022799999999 14.220700000001,-1.7628 21.219999999998,-0.496299999999 12.445700000002,1.059400000001 24.951100000002,2.4036 37.447500000002,1.404899999999 13.6308,-0.7209 27.278700000001,-1.118999999999 40.927099999999,-1.261199999999 8.970899999998,-0.073 18.022500000001,-0.6443 26.911099999998,0.917500000001 2.197000000002,0.179199999999 4.7491,-1.031700000001 5.197999999999,-3.394400000001 1.200399999997,-3.8914 -0.043,-7.9398 -0.6895,-11.8141 -1.874200000002,-8.419599999999 -4.856999999999,-16.7467 -4.635499999998,-25.492299999999 -0.01,-8.5067 0.509599999998,-17.1143 -1.236899999999,-25.5004 -0.9989,-5.7419 -2.276200000003,-11.451800000001 -4.0596,-16.9974 -0.796400000002,-2.0532 -1.462700000001,-6.926000000001 -1.462700000001,-6.926000000001 0,0 -7.943200000002,-0.021 -11.032700000002,-0.1039 -34.104499999999,-0.109899999999 -68.208799999999,-0.302899999999 -102.313499999997,-0.3179 -0.328100000002,0.032 -0.656300000001,0.064 -0.984500000001,0.097 l 0,-2e-4 z m 94.2869,88.2642 c 0.1346,0.154099999999 -0.1385,3.99999999e-4 0,0 z m -65.9913,1.6071 c 0.255900000001,0.3732 -0.2489,-0.1433 0,0 z m -11.5595,1.028599999999 c 0.081,0.044 0.015,-0.185499999999 0,0 z m 5.1446,0.160700000001 c 0.059,0.21 0.174400000001,-0.152700000001 0,0 z m 32.741500000001,0.032 c 0.091,0.381200000002 0.1286,-0.1405 0,0 z m -1.111399999999,0.996300000002 c 0.182299999998,0.151499999999 0.067,-0.134 0,0 z m -6.256200000002,0.289400000001 c -0.1006,0.422599999999 0.271800000001,-0.6306 0,0 z"
         id="path7685-0-5-2-8-1-3-4"
         sodipodi:nodetypes="cccccccccccccccccccccccccccccccccc" />
      <path
         transform="matrix(0.97075537,0,0,1.028571,1359.01154116786,544.7913428567775)"
         style="opacity:0.5;fill:url(#linearGradient3258);fill-opacity:1;fill-rule:nonzero;stroke:none;display:inline;filter:url(#filter4137-2-5)"
         d="m 1537.0352,1446.4554 c -16.6578,7.0539 -9.0252,113.2694 -9.7832,128.0238 l -22.5743,25.7543 65.5372,0.6651 -22.2909,-26.6185 c -0.7579,-14.7523 7.8321,-122.6845 -9.6256,-127.8407 l -1.2632,0.017 z"
         id="path10993-4-3-8-10-7-7-3"
         sodipodi:nodetypes="ccccccc" />
      <path
         style="fill:none;stroke:#000000;stroke-width:1.5;stroke-linejoin:round;stroke-miterlimit:4;stroke-opacity:1;stroke-dasharray:none;stroke-dashoffset:0;display:inline"
         d="m 2854.715792979488,2026.033145705986 c -31.6084,7.479600000001 -17.125399999999,120.105399999999 -18.563799999999,135.750100000001 l -42.835099999999,27.308599999999 124.357800000002,0.705300000001 -42.297199999999,-28.225 c -1.438200000001,-15.6427 14.861499999999,-130.0887 -18.2648,-135.556 l -2.396899999999,0.018 z"
         id="path6914-3-5-7-4-4-1-6-2"
         sodipodi:nodetypes="ccccccc" />
      <path
         style="fill:url(#linearGradient3248);fill-opacity:1;fill-rule:evenodd;stroke:#000000;stroke-width:0.4090000093;stroke-linecap:butt;stroke-linejoin:miter;stroke-miterlimit:4;stroke-opacity:1;stroke-dasharray:none;display:inline"
         d="m 2793.316892979493,2188.908197947132 4.029799999999,45.0151 115.533,0.039 4.795000000001,-44.3489 -62.178800000003,-0.352599999998 -62.179000000001,-0.352699999999 z"
         id="path4617-4-6-9-3-1-7-3"
         sodipodi:nodetypes="cccccc" />
    </g>
    <g
       id="g4245"
       inkscape:export-xdpi="89.94342803955078"
       inkscape:export-ydpi="89.94342803955078"
       transform="translate(-584.8393601289976,-52.84693013213848)">
      <path
         style="fill:url(#linearGradient4243);fill-opacity:1;fill-rule:nonzero;stroke:#000000;stroke-width:0.640935123;stroke-linejoin:round;stroke-miterlimit:4;stroke-opacity:1;stroke-dasharray:none;stroke-dashoffset:0;display:inline"
         d="m 2252.981602407389,287.589893645125 c -13.546462802406,3.18640202499 -7.339460209195,51.1663845355592 -7.955917609601,57.8312200562234 l -18.357907669712,11.6338010508081 53.296222266521,0.3004665153522 -18.127379001972,-12.0241987747109 c -0.616371686084,-6.6639834959494 6.369216946696,-55.4193936986268 -7.827774698922,-57.7485310577403 l -1.027243286312,0.00766822242 z"
         id="path6914-3-5-7-4-4-1-6-9"
         sodipodi:nodetypes="ccccccc" />
      <path
         sodipodi:nodetypes="cscccccccc"
         id="path3260-5"
         d="m 2253.798967595652,288.138873585564 c -2.329945231355,0.233156303431 -3.918027417985,1.775098128956 -4.998907229666,3.7280236449424 -1.08087981168,1.9529255159864 -2.392097360932,6.4861613629775 -2.819269393505,8.4502309036334 -2.143618205585,15.3592039334582 -0.810048492819,29.6358045564215 -0.196974596848,45.3322924504196 l -16.732302623193,10.6878484928042 48.666143523432,0.2980819091518 -16.68108608307,-11.0749244232672 c 0.369078450275,-8.1239057661478 1.377533170691,-17.9683842339229 1.292222722557,-27.9091432153699 -0.0054660052,-9.8675147167256 -0.104194120168,-19.3529600353121 -3.912515061771,-26.0223450734319 -1.022687508563,-1.9555888403314 -2.479707208618,-3.054696091503 -4.617311257936,-3.4900646888824 z"
         style="fill:none;stroke:#c17d11;stroke-width:0.8000000119;stroke-linecap:butt;stroke-linejoin:miter;stroke-miterlimit:4;stroke-opacity:1;stroke-dasharray:none;display:inline" />
      <path
         style="fill:url(#linearGradient4239);fill-opacity:1;fill-rule:evenodd;stroke:none;display:inline"
         d="m 2228.922624416668,375.8648736098048 c -1.076871878476,4.521780359062 -2.689501123642,8.9453222686139 -3.093815578273,13.6054714412109 -0.362357294245,3.358212808545 -0.842571780587,6.7022820068391 -1.235743373422,10.0569589128204 -0.51381450038,3.7447764212345 -1.415014876891,7.4755796371611 -1.259357669002,11.2804664019607 0.08507146411,0.9211665194174 0.01028571858,1.905510671369 0.430671608501,2.7545958999914 0.647271698993,0.908002737588 1.929343663202,0.9573349685219 2.891615493797,0.5946280478208 2.953672662581,-0.8617377956235 6.094588260531,-0.7509745828188 9.09428951377,-0.2114299327504 5.333873657,0.4513174909457 10.693333038977,1.0239633011479 16.048935276483,0.5985047602686 5.841773869196,-0.30711230812 11.690876312879,-0.4767078274185 17.540193042365,-0.5372867845758 3.844673034831,-0.031098902057 7.723931798395,-0.2744797615783 11.533333389918,0.3908663374954 0.941571821952,0.076341414364 2.035329421763,-0.4395169486583 2.227715216426,-1.4460563444071 0.51445735779,-1.6577844858073 -0.01842857913,-3.3824529116548 -0.295500123454,-5.0329525861582 -0.803228907007,-3.5868536405152 -2.081572298227,-7.1343011380143 -1.986643687138,-10.8600348068929 -0.0042857161,-3.6239593168054 0.218400091243,-7.2909032804265 -0.530100221471,-10.8634855069845 -0.428100178855,-2.44612035233 -0.975514693273,-4.8786083092383 -1.739829298308,-7.2411024358999 -0.341314428315,-0.8746885712748 -0.626871690472,-2.9505615841863 -0.626871690472,-2.9505615841863 0,0 -3.404229993675,-0.0089462595 -4.728301975429,-0.044262683886 -14.616220392195,-0.046818758028 -29.232355070069,-0.1290391429177 -43.848661176586,-0.1354293282722 -0.140614344463,0.013632395422 -0.281271546084,0.027264790844 -0.421928747706,0.041323198624 l 0,-8.52024713e-5 z m 40.408688310836,37.6016398756721 c 0.05768573839,0.065648504204 -0.05935716766,1.704049423e-4 0,0 z m -28.281997530165,0.6846444588429 c 0.109671474391,0.158987811611 -0.106671473137,-0.06104757075 0,0 z m -4.954073498323,0.438196310351 c 0.03471430022,0.018744543705 0.0064285741,-0.079025292213 0,0 z m 2.20482949258,0.068460185761 c 0.02528572485,0.089462594958 0.07474288837,-0.065052086905 0,0 z m 14.032077291005,0.013632395422 c 0.03900001629,0.1623959104676 0.05511430874,-0.05985473615 0,0 z m -0.476314484713,0.424436111223 c 0.07812860407,0.064540872076 0.02871429771,-0.05708565583 0,0 z m -2.681229691615,0.1232879760997 c -0.04311430373,0.1800328220436 0.116485762953,-0.2686433922882 0,0 z"
         id="path7685-0-5-2-8-1-3-4-5"
         sodipodi:nodetypes="cccccccccccccccccccccccccccccccccc" />
      <path
         transform="matrix(0.4160381895300422,0,0,0.4381839559930286,1611.96522667918,-343.4374179888915)"
         style="opacity:0.5;fill:url(#linearGradient3258-4);fill-opacity:1;fill-rule:nonzero;stroke:none;display:inline;filter:url(#filter4137-2-5-1)"
         d="m 1537.0352,1446.4554 c -16.6578,7.0539 -9.0252,113.2694 -9.7832,128.0238 l -22.5743,25.7543 65.5372,0.6651 -22.2909,-26.6185 c -0.7579,-14.7523 7.8321,-122.6845 -9.6256,-127.8407 l -1.2632,0.017 z"
         id="path10993-4-3-8-10-7-7-3-4"
         sodipodi:nodetypes="ccccccc" />
      <path
         style="fill:none;stroke:#000000;stroke-width:0.8000000119;stroke-linejoin:round;stroke-miterlimit:4;stroke-opacity:1;stroke-dasharray:none;stroke-dashoffset:0;display:inline"
         d="m 2252.981602407389,287.589893645125 c -13.546462802407,3.18640202499 -7.339460209195,51.1663845355592 -7.955917609601,57.8312200562234 l -18.357907669712,11.6338010508081 53.296222266521,0.3004665153522 -18.127379001972,-12.0241987747109 c -0.616371686084,-6.6639834959494 6.369216946696,-55.4193936986268 -7.827774698921,-57.7485310577403 l -1.027243286312,0.00766822242 z"
         id="path6914-3-5-7-4-4-1-6-2-6"
         sodipodi:nodetypes="ccccccc" />
      <path
         style="fill:url(#linearGradient4234);fill-opacity:1;fill-rule:evenodd;stroke:#000000;stroke-width:0.174761638;stroke-linecap:butt;stroke-linejoin:miter;stroke-miterlimit:4;stroke-opacity:1;stroke-dasharray:none;display:inline"
         d="m 2226.667777128076,356.9766785375599 1.727057864401,19.1769888490165 49.514163543566,0.016614481921 2.055000858555,-18.8931794168211 -26.648068276101,-0.1502119570572 -26.648153990422,-0.1502545582933 z"
         id="path4617-4-6-9-3-1-7-3-3"
         sodipodi:nodetypes="cccccc" />
    </g>
  </g>
</svg>
