<?xml version="1.0" encoding="UTF-8" standalone="no"?>
<!-- Created with Inkscape (http://www.inkscape.org/) -->

<svg
   xmlns:dc="http://purl.org/dc/elements/1.1/"
   xmlns:cc="http://creativecommons.org/ns#"
   xmlns:rdf="http://www.w3.org/1999/02/22-rdf-syntax-ns#"
   xmlns:svg="http://www.w3.org/2000/svg"
   xmlns="http://www.w3.org/2000/svg"
   xmlns:sodipodi="http://sodipodi.sourceforge.net/DTD/sodipodi-0.dtd"
   xmlns:inkscape="http://www.inkscape.org/namespaces/inkscape"
   sodipodi:docname="Cross.svg"
   inkscape:version="0.47 r22583"
   version="1.1"
   id="svg2"
   height="150"
   width="800">
  <title
     id="title2828">Cross items for Enigma</title>
  <defs
     id="defs4">
    <inkscape:perspective
       sodipodi:type="inkscape:persp3d"
       inkscape:vp_x="0 : 75 : 1"
       inkscape:vp_y="0 : 1000 : 0"
       inkscape:vp_z="800 : 75 : 1"
       inkscape:persp3d-origin="400 : 50 : 1"
       id="perspective22" />
  </defs>
  <sodipodi:namedview
     id="base"
     pagecolor="#ffffff"
     bordercolor="#666666"
     borderopacity="1.0"
     inkscape:pageopacity="0.0"
     inkscape:pageshadow="2"
     inkscape:zoom="0.6738281056053496"
     inkscape:cx="334.538638686107"
     inkscape:cy="105.2100531194728"
     inkscape:document-units="px"
     inkscape:current-layer="layer1"
     showgrid="false"
     inkscape:window-width="1269"
     inkscape:window-height="945"
     inkscape:window-x="0"
     inkscape:window-y="25"
     inkscape:window-maximized="1" />
  <metadata
     id="metadata7">
    <rdf:RDF>
      <cc:Work
         rdf:about="">
        <dc:format>image/svg+xml</dc:format>
        <dc:type
           rdf:resource="http://purl.org/dc/dcmitype/StillImage" />
        <dc:title>Cross items for Enigma</dc:title>
        <cc:license
           rdf:resource="http://creativecommons.org/licenses/publicdomain/" />
        <dc:creator>
          <cc:Agent>
            <dc:title>R. Bourquin</dc:title>
          </cc:Agent>
        </dc:creator>
      </cc:Work>
      <cc:License
         rdf:about="http://creativecommons.org/licenses/publicdomain/">
        <cc:permits
           rdf:resource="http://creativecommons.org/ns#Reproduction" />
        <cc:permits
           rdf:resource="http://creativecommons.org/ns#Distribution" />
        <cc:permits
           rdf:resource="http://creativecommons.org/ns#DerivativeWorks" />
      </cc:License>
    </rdf:RDF>
  </metadata>
  <g
     inkscape:label="Layer 1"
     inkscape:groupmode="layer"
     id="layer1"
     transform="translate(155.295349493737,11.57251958999427)">
    <g
       id="g5580"
       transform="translate(3.179847758562744,-39.20351189737955)">
      <path
         id="path3353"
         d="m -19.17510198853688,42.56587161357769 c -0.5230107865581,0.14359519928992 -1.10410552054645,0.1194812061229 -1.57664107170304,0.41556065506952 -0.34821739943932,0.31765113836154 6.2305235258e-4,0.77713948486813 0.20285609081465,1.06782858498152 -0.22740538502587,0.26544886776479 -0.71990223341308,-0.0275340935124 -1.03596284207842,0.11965402804983 -0.31944065448182,0.16290648632004 0.43064051483264,0.50643278745701 -0.001349170913,0.65363823124711 -0.3441305035612,0.31384300630491 -0.50851441411484,-0.59609887279348 -0.78174698409187,-0.21895267229002 -0.0847136114448,0.29306434020693 -0.39856987963136,0.87144979158477 -0.65340980970989,0.36954059423071 -0.19140679912161,-0.31444353203813 -0.29590551469162,-0.73268573508245 -0.64686043182993,-0.91142315986817 -0.3747660925714,-0.11461422429758 -0.6230629716625,0.29629839895177 -0.63066430209208,0.62231309678501 -0.0721798038181,0.36409969635168 -0.22020982266969,0.85681959543524 -0.65448523125245,0.90447857025768 -0.43840330155058,0.0252492799507 -0.73057973684692,-0.47816705697943 -1.18373033040222,-0.37672845311684 -0.48016367036845,0.0931994470698 -0.66306547028458,0.60938197122124 -0.79273866574325,1.02042661316657 -0.10446406548687,0.34669806907732 -0.17718573788723,0.70760536239846 -0.34968662843786,1.02941663320108 -0.17974568167214,-0.38184802503577 -0.94422660103875,-0.0771258710752 -0.57274222204889,0.28058090164013 -0.19990601111467,0.0315458449881 -0.59672382135451,-0.0956828649303 -0.85223926512868,0.0672323624583 -0.72291894408667,0.32389421435253 -1.04642033911245,1.10301103147529 -1.56734423933212,1.65077636349102 -0.2262082907626,0.27725955029107 -0.55110337657497,0.44011058966399 -0.86171854192071,0.58851828789618 -1.25956857941114,1.04722536803407 -2.57752807922652,2.02384297852407 -3.80330335132527,3.11165770123776 -1.06585108712026,1.51326748762893 -2.66670117315014,2.49958264735376 -4.06358534249519,3.67012211369448 -3.02854202925242,2.33035003616459 -6.00829202430588,4.74083933653499 -8.71005960953606,7.44964079779535 -5.17162337687543,5.00267987759624 -10.34123334383129,10.00755737894724 -15.54058390049092,14.98144402585952 -3.39123065240807,3.24390068837003 -6.81451315536687,6.45400909381878 -10.23483862912974,9.6671101697745 -6.67136371556735,6.32311601645506 -13.12296608446823,12.87538668161997 -19.40718466053599,19.58260644701048 -8.80453011321099,9.2688391601287 -17.58607092903799,18.5676047944947 -25.95965255042449,28.230676332982 -4.6646948082811,5.6511229013516 -8.8626963426874,11.6628467421527 -13.2123703520168,17.5542509858149 -1.6899925765922,2.3483395377938 -3.3648749480665,4.7090192887812 -4.9408402042131,7.1359645512118 -0.1302406361097,0.4422842060724 -0.092650392044,1.0411184958452 0.3573986040519,1.2876481195583 0.6287581968888,0.3314446371082 1.3834965140054,0.142362302945 1.9969997325531,-0.131659317564 0.353956014771,-0.165708007601 0.6867656029116,-0.3977519258489 0.9170893297871,-0.7180264840945 10.3833532264442,-6.1686673327469 20.2430487330058,-13.1610413153954 30.0815480623815,-20.1515046453109 12.39048214359809,-8.9513700096426 23.77776653781244,-19.1735653741023 35.45562828208439,-29.0105998245288 9.79449765669693,-8.4943723248226 19.65906250031173,-16.90796366237555 29.41950950941381,-25.44153020082915 5.35404006271596,-4.82716151321486 10.17434746691613,-10.20611498877794 14.85299100415779,-15.67942728988872 1.58667576978051,-1.90961884653622 3.01267738850214,-3.94645419832193 4.59312235985847,-5.86065053057483 1.29689880658237,-1.42483380000239 2.72246532154947,-2.80166699318752 3.54145587124689,-4.57648222565815 0.5187216005266,-0.94360684471092 1.63088690218794,-1.42623893438974 2.01803701833243,-2.45875292628762 0.0848485807717,-0.34948664106977 0.12801842449848,-0.81735127646904 0.54186035695297,-0.92853616290018 0.35893974737534,-0.20629848357328 0.762942361819,-0.50722838678972 0.75949987798583,-0.96574729563158 -0.0331603254349,-0.19823546064361 -0.040770018232,-0.45750054155964 0.23552244570485,-0.42696410198267 0.7291030354254,-0.26463248138522 1.07682999935435,-1.01349975243923 1.44837289302167,-1.63529813761624 0.26682436830646,-0.44590052985493 0.59456509896265,-0.89391114283616 1.08049979897152,-1.11608904224045 0.213687584886122,-0.36399150902519 0.004355982967,-0.86907501187572 0.240305431349569,-1.19129727075698 0.211682628790982,0.0161499032409 0.591208428077181,0.191470734727 0.359614564069753,-0.17697386667143 -0.242388902821963,-0.41618525990372 -0.78400326069198,-0.38982479499478 -1.177232336690132,-0.56215737811683 -0.36873242121969,-0.10984837651575 -0.5084185953885,-0.50381407665648 -0.54927236635409,-0.82116772119736 -0.40127294466705,0.24526505968957 -0.44709358575682,-0.50408512053995 -0.68462341515229,-0.69597799135948 -0.23360814412035,-0.25694227579875 -0.41589280650173,0.36538809615427 -0.6497022630278,0.058637012082 -0.2782236575536,0.0141362464092 -0.52548472997148,-0.29626432403908 -0.38481032227746,-0.48394887655251 -0.33577634273126,0.4480060652167 -0.95082313936539,0.47228624653075 -1.36689843699331,0.80951209982197 -0.23247011025847,0.17182198930045 -0.41651539405509,0.38928117866845 -0.31062530367974,0.70576992665179 0.0215676005761,0.25176849834182 0.20891620446736,0.93750909021837 -0.24827170542175,0.78837105221785 -0.25909319070222,-0.29670180533109 -0.60820041114305,-0.17896907586345 -0.82037413366547,0.10321977530035 -0.3850193499751,0.38401359687413 -0.71407428667503,0.95239397462537 -1.31477925562259,0.99406589933221 -0.18382887121198,0.0214055138319 0.23292561406386,0.20361436056104 -0.0248457849088,0.29781742393893 -0.26569001644179,0.0621286459624 -0.44790140013967,0.37792258616309 -0.12455050989519,0.5091057763527 0.23767036008416,0.0427751886451 0.52055771142133,0.27308151645583 0.1765422861134,0.42309827750762 -0.23188874981636,0.11565455702771 -0.60104564775765,0.12613787183227 -0.62990567745027,0.42002272181702 -0.24339946238933,0.0640963012623 -0.76207396300115,-0.12530602999415 -0.72594659429582,0.29299172836059 0.0565908675445,0.39763456260409 -0.43265165836827,0.48749772339368 -0.71794732364742,0.58384190609302 -0.49735217105954,0.11497444208689 -1.07171257660423,-0.0102220935862 -1.42040392386454,-0.3949303286809 -0.0626128733395,-0.1548215475825 -0.14477027289621,-0.43744909419798 -0.23240787886451,-0.12364303140452 -0.31296888783123,0.27835922500907 -0.54523905751481,-0.27558060341866 -0.67591218275587,-0.5001453652743 -0.0603778941104,-0.36824608027515 -0.56565001967988,-0.51822233080487 -0.59863562860168,-0.0496188273218 -0.13722974225935,0.36255887694604 0.36850746514385,0.59097824769966 0.27518332459213,0.89569762819685 -0.27911130778488,0.18029214363952 -0.65805211642438,0.0941530186184 -0.83668433219927,0.44053508473892 -0.31004151492915,0.35474232148892 -0.7965421385476,0.43772903957295 -1.24368869324568,0.43764845390023 -0.39125737904189,-0.0548047775639 -0.54678714849852,0.35260855110404 -0.84431343940055,0.52062902595889 -0.75846234015424,0.55029359773268 -1.6822669060506,0.78759544574681 -2.51224612051135,1.19852345669981 -0.33111056949742,0.18236704355926 -0.57688026056586,0.59311788649811 -1.00023675615764,0.54807849859403 -0.50509480101313,-0.0174639434699 -0.81057231388669,-0.60172053311419 -0.66607211769442,-1.05482783891105 0.0912517580718,-0.39386306853685 0.4538762533384,-0.64105935380713 0.82393820159799,-0.74253252730594 0.78185987054141,-0.27285965659603 1.16236611308748,-1.14587831046816 1.95256738184184,-1.40865981184734 -0.31531784723607,-0.21884490452939 -0.37214724084648,-0.8131440075305 0.0629680587719,-0.92999646076383 0.31030932232717,-0.12500845799442 0.66124117145163,0.26038558817303 0.9109912413789,-0.0302692761404 0.73483975844026,-0.56822795931929 1.15853038755718,-1.49957390752512 2.04028451678189,-1.88260736029455 0.26630148449945,-0.11340706653185 0.56318456319036,-0.16335602650841 0.85076803102821,-0.11963775787136 -0.0104790176806,-0.21842739516344 -0.0321753494866,-0.64999464054708 0.3184813672037,-0.51455522577706 0.14300824532782,-0.30352911414009 0.3308399782633,-0.58750760433803 0.605741893296,-0.78659916352032 0.41343487457415,-0.36565574888615 0.89837741928595,-0.76929216047423 0.95367847240171,-1.35833603948938 0.004102478392,-0.39214118804575 0.21402384519694,-0.7592084081396 0.13282427590578,-1.15783827377093 0.0319291001936,-0.38737666553444 0.44037734689133,-0.48086809681886 0.67065484869865,-0.69955062953715 0.32974219043626,-0.64375418285499 0.41423139872188,-1.42744398921912 0.9478232904533,-1.95774048105568 0.31988997314137,-0.217848682392 -0.29367492117627,-0.14053594260067 -0.44349413622382,-0.23311814181963 -0.29675083476275,-0.006222832294 -0.42095926756607,-0.33801862046831 -0.1031577623387,-0.44272806832248 0.22367031105853,-0.18220519488689 0.79464223164346,0.11597227574228 0.78258903689957,-0.26349590110884 -0.13748657207427,-0.17141724000112 -0.65036751361898,-0.22469837809907 -0.59311116406837,-0.39014662822772 0.33691567627723,-0.12218156080076 0.74601030317889,-0.46281876253429 0.56832126275553,-0.85998683719643 -0.20831914197988,-0.48696666769856 -0.70534606002984,-0.75837804418515 -1.14716010820035,-1.00236977294613 l -0.0471599052895,-0.0230243921197 -0.0474608071081,-0.0223981992335 -3.2e-13,-2.2e-13 z"
         style="fill:#000000" />
      <path
         id="path2935"
         d="m -123.2314518536288,43.01644562363394 c 0.053203673366,0.50278829516843 -1.0443280442689,0.25468285742091 -0.4305269702399,0.79614362782924 0.2087820245253,0.76714395511265 0.3978359716408,1.53836715364663 0.6871848905045,2.27479161353289 0.3830290771691,0.61974102560514 0.8946514578152,1.26304343709517 0.5502841710654,1.98544733326591 0.890090842312,-0.0861265242362 0.5168323611024,1.13812269715352 0.2852595781309,1.54690589834945 -0.5887385352158,-0.26169234261917 -1.1403047807906,-0.74220171184136 -1.5656828187086,-1.08184701212828 -0.4662401313437,-0.0301752180463 -0.064245930458,-0.51600183700963 -0.5382195400725,-0.3802441522876 -0.4259169939396,-0.2169224876383 -0.7853222626284,-0.92731930961692 -1.1585163021114,-0.67131499148456 -0.074004096858,-0.55861067918421 -0.6781365916255,-0.76365098240216 -0.5834671056608,-1.40457064360452 -0.5363924612908,-0.54139231756573 -1.3837434938156,-0.86773888458977 -1.7182748185928,-1.68346351973802 -0.144448447348,-0.27401465050134 -0.7225616336204,-1.09895883954853 -0.6973726746892,-0.35131425451856 0.1425297689844,0.36348490328803 -0.8350997532865,0.43489028931887 -0.5635176302877,-0.0779293726387 0.086496715618,-0.52610675471682 -0.5484069441375,-0.64849261535714 -0.3988544563229,-0.0520563485547 -0.1837892966159,0.68357996513861 -0.092286972712,1.51715436897587 0.1166457987573,2.07925573053748 -0.276109255302,-0.40413964349198 -0.9322792901169,-0.20687736539043 -0.3007667362867,0.11324157639791 0.3004717708169,0.30063617497784 -0.6482887916074,0.36806078523832 -0.1385664079899,0.75788386287917 0.066065580522,0.70423297478669 0.1338089797274,-0.76269750767591 0.4961856342234,-0.11669762527756 0.2357772207498,0.45271888913301 -0.1754753246102,0.88889069403723 0.2882071299019,1.26481436933343 0.1031758694079,0.36394108470702 0.5493294209672,0.7161303472905 0.5027825868636,1.25107020393517 0.2540899006647,0.50976478770685 0.9084995975827,0.77906998216919 0.9742279209449,1.4179280854679 0.2948954799819,0.27569798965129 0.6452421745998,0.59165169689836 0.5130283311984,1.01550538377915 0.5360195534968,-0.10875919845644 0.7130104132622,0.7233976321223 0.3707327839099,0.97600537125077 -0.05293841267,0.64716794685196 -0.9881681467535,0.58631675728603 -1.0568154020043,0.0269418932604 -0.3961321787949,-0.13002967229687 -0.5023035153118,-0.65083816229962 -0.6281506975938,-0.76616822957834 -0.3853773844202,0.18327732908591 -0.2027944566118,-0.6864358240097 -0.7376746724174,-0.36751432639047 -0.3625533382883,0.23958151505925 -0.3137235217777,-0.5989108142428 -0.8468324687728,-0.55888489383797 -0.4744563491893,-0.0284767505417 -0.519412809957,-1.04565234433759 -0.7228904898388,-0.32317866894163 -0.5073431785514,0.1745435995322 -0.4899692564333,-0.31145737465043 -0.2750750513273,-0.53112323549535 -0.06086864474,-0.92521673211877 -1.0892420322075,-0.60555071670789 -1.5822823826845,-0.83051015538743 -0.2592822683287,-0.42205295647394 0.5591571912724,-0.69638570323579 -0.090883109942,-0.6454250625643 -0.081159170247,-0.32952338071236 -0.2157378120108,-1.04664365979945 -0.7150358974956,-0.60770839337986 0.074652013873,0.7104355155358 -0.4137382124627,0.20090139454265 -0.3604518824986,-0.24069878543699 -0.3683988926119,-0.61098089589958 -0.1460742110229,0.48987361445051 -0.016864311423,0.71609914350033 0.014498323309,0.32751825356644 -0.286380477502,0.26302853384302 -0.1829522423747,-0.008657339954 -0.439828823321,0.34512807210621 -0.1225431602803,-0.66000470389973 -0.5837823600563,-0.16061573279746 0.4151664766103,0.49789284627526 0.1011153793759,1.30870806306022 -0.5123652076245,0.9480699698356 -0.1627436841898,0.70240740737129 0.6396658774969,1.14114552856622 0.531181776739,1.84224839153434 0.3857141008702,0.36927782951409 1.0262845619743,0.4985625743277 0.9884122633837,1.20552689245119 0.047707509418,0.65966037983213 0.7720869921096,0.71611128517474 1.0378318132449,1.07962804286407 -0.2538726945115,0.5537773509997 1.012369245276,0.57266605246263 0.7033708127982,1.1863795610941 0.7938548345101,0.47256050620264 1.2120618928943,1.3539123024795 1.8985455558388,1.95282486879946 0.788647751943,0.61697906661973 1.2512402252357,1.48273318091443 1.7688806053581,2.30875186157932 0.8831717332828,1.15005088622538 1.950923802207,2.14384929918581 2.825396729863,3.30169090668172 0.9889457791081,1.05219987499148 2.0441337432665,2.03991189524598 3.0274080229341,3.0980408114649 0.8130306817489,0.80496660241025 1.5880678024118,1.65565467280588 2.258773889133,2.57941576459892 0.8059838969681,0.16351081155534 0.8506478105118,1.03063877093425 1.5556829731571,1.40221950078973 0.8472760894697,0.44325539354516 1.3007469036533,1.33372941298985 1.9827460358934,1.96842869638925 2.4791337153643,2.74065608313441 5.3060258875449,5.13861058637066 7.8183142409431,7.84749749584175 1.6434245574471,1.61393587895482 3.2342095467734,3.28112758751593 4.7979728042454,4.97096883130176 1.3728313605879,1.33771819903744 2.7021631965935,2.72165976154623 3.96834960836867,4.15900808515599 1.45264656146398,1.39128752969701 2.72476130740355,2.95497250269653 4.18231277621429,4.34186462351452 1.75023808527423,1.69518205849748 3.41070115357353,3.48469289301146 5.22699437207695,5.10996165074069 1.68360595795518,1.46857267306207 3.23867114849294,3.07904666024673 4.91227789685918,4.56007402696663 5.54929426271977,5.1437060635087 11.05006756505533,10.3398192812562 16.62322347088174,15.4577096774939 1.97439248810312,1.6574636054287 3.84336724863198,3.4345167003959 5.75131769438625,5.1669881086525 2.37822746515507,2.2310371357046 4.91103007694294,4.2887002241722 7.30880452750685,6.4986247597509 3.54666585453882,3.1774464061362 7.01749591431464,6.4481158306859 10.75896731266537,9.3990242421865 0.97622886459747,0.8382865064208 2.00149338118369,1.6101195782144 3.03656241009944,2.3726141568015 1.04046921627478,0.8971456248877 2.20005613742862,1.6459235954945 3.23138903166335,2.5554379522714 1.06527472579774,0.8608366373578 2.19628292779591,1.6365166587512 3.28547486165882,2.4632027401811 0.95103900036466,0.8821944883662 1.96950809476202,1.6832196875165 3.02965851769843,2.4301289887762 2.51853019501312,1.8374189260672 5.01708420336706,3.7016660798081 7.51269333046819,5.5696095916105 2.74727814982094,1.9922119435821 5.59552163760226,3.8392142557971 8.36530655904384,5.7988571950221 1.12095741573778,0.7496680670783 2.34545605105122,1.3290787412882 3.58267833584745,1.8493869551219 0.50339221819605,0.5975898084108 1.93605852628831,0.7047086862217 1.60102827325065,-0.4036651542234 -0.30510964889161,-0.6894201972226 -0.73169778968694,-1.321869924215 -1.01236471573996,-2.0267125552046 -0.71489526680253,-1.6361285603169 -1.53791454123217,-3.2294596047762 -2.60918204350062,-4.6643133334914 -1.86679766054697,-2.59000724274 -3.83952277920727,-5.101263859787 -5.72748681811675,-7.6755903870446 -1.34380635756782,-1.9416992004526 -2.66108876915971,-3.902534614767 -3.96746205213977,-5.8697821538798 -1.0110688692206,-1.5798058612432 -1.88508987064836,-3.2468160488796 -3.00994617548844,-4.7531818409114 -1.28530386909227,-1.7941696483951 -2.56409710315422,-3.6021573649135 -4.09504618741134,-5.1996997309227 -2.85610677492148,-3.1285609209732 -5.7542540551777,-6.2192672554136 -8.64618704372935,-9.3140001208981 -1.53014787220911,-1.460435771115 -2.78950555027807,-3.1641050046142 -4.19690873067335,-4.7362165661235 -1.2296884231246,-1.561451834709 -2.4633231023664,-3.1212862859974 -3.75116455856188,-4.6365280790996 -1.18567603314083,-1.436464045809 -2.50882898005464,-2.7514615553608 -3.73728655767497,-4.1512409732283 -3.03082033913519,-3.3216062475077 -6.47851862992492,-6.2270172892244 -9.59032760090129,-9.46955040404505 -1.47236838915066,-1.43130128496122 -2.9976910331436,-2.80789533575553 -4.38379469422451,-4.3256718115391 -0.96096679527004,-1.00106175940392 -1.96624000814758,-1.95906110844453 -2.82966604502711,-3.04842012982375 -1.3985782661142,-1.51589021320811 -2.86078303793596,-2.97475636274285 -4.2081220775395,-4.53866746561393 -1.87327676780393,-2.2570804916683 -3.98297005769922,-4.30471169980324 -5.83346739553798,-6.5811880941481 -1.46335107568261,-1.59675197095693 -2.91433791079625,-3.20459402959659 -4.36678465963425,-4.81143384135177 -2.75787273161714,-2.97733436544459 -5.56522935131457,-5.90868097226975 -8.36774397347183,-8.84380997873953 -2.05781538268488,-2.107085409939 -4.21167131560482,-4.11814162112852 -6.39056746749212,-6.0985251000015 -1.23169118426881,-1.05700140154628 -2.49058796889786,-2.0877499707587 -3.82067277444756,-3.01846295589286 -1.9105282136344,-1.2583810480139 -3.8134616553176,-2.53922938319612 -5.615327579769,-3.94807206531191 -0.6692778323084,-0.69769623827982 -1.5795417220391,-1.05079266716649 -2.3579612943928,-1.59154897738047 -0.8884603506436,-0.71664753961128 -1.7767679431879,-1.43420899551446 -2.7591007995749,-2.02194653613931 -1.4476187789066,-0.95511845146409 -2.9644575324477,-1.80329927514552 -4.4440686029247,-2.70169091618029 -0.6308175848089,-0.42088037446716 -1.1765311263606,-0.85824692385829 -1.4483114782046,-1.57937133920894 -0.5103700461059,-0.43133793562955 -1.2287414359223,-0.54677635024502 -1.7805176611526,-0.95500863522692 -0.8201890241207,-0.45941860828708 -1.5880276497144,-1.01374052996276 -2.2607981813956,-1.67046915542105 -0.2293844905587,-0.26904711548975 -0.5521925511259,0.0857508980117 -0.7400065219786,-0.1515273977435 z"
         style="fill:#000000" />
    </g>
    <g
       id="g5576"
       transform="translate(-157.2923906834488,-219.0185379101338)">
      <path
         id="path3950"
         d="m 298.266245276308,218.6746527785276 c -0.5456756038965,0.255425713076 -1.1911493599019,0.1726124916011 -1.7214963267191,0.471107002726 0.080652935598,0.3870528513867 0.5208693319175,0.8662696986011 0.1616372343864,1.2230893304257 -0.2916302222368,0.088015316823 -1.0793237548275,-0.3097603381333 -0.7633396535467,0.3204994540437 0.2125287733258,0.5009656656379 -0.5754157946761,0.3739612297088 -0.7267343652916,0.08070593164 -0.3680217529842,0.058687854964 -0.3033218819387,1.0660050295196 -0.8259463241875,0.5174968887044 -0.2801747356203,-0.3460460773326 -0.3248705179071,-1.3999170398203 -0.9835344246181,-0.8655152491449 -0.3985803758311,0.4265850553028 -0.2321648131765,1.2197846069192 -0.8211329831161,1.4895522682616 -0.514319959386,0.1587388581707 -0.8862433724149,-0.8258495184822 -1.3803417268066,-0.3558689760206 -0.2642119153854,0.4505145645666 -0.7919848031326,0.7834821863815 -0.8099597782164,1.3469735201719 0.208323146205,0.4726923695201 -0.1570124468035,0.68456414489 -0.5954311998872,0.5716585230745 -0.3080837444329,0.124799683384 -0.1913399258116,0.7262951843515 -0.718906076925,0.4743355306017 -0.4934875381155,-0.1535999512836 -0.6738122150722,0.3910388467018 -0.9819098702416,0.6491223078851 -0.4947225301903,0.530884936604 -0.7448957151752,1.3611749138498 -1.4924151367776,1.6027054600917 -0.7623213649151,0.2953790564578 -1.1126393989054,1.1033366182757 -1.7346083089876,1.5841731073845 -0.6067010017879,0.6365916720054 -1.5496906040724,0.8828694479636 -2.0250193640821,1.6578193015995 -0.6479726448512,0.8463482284058 -1.3089278002032,1.7012139559604 -2.1676737398585,2.3465836590488 -1.8884571366627,1.6748678134892 -3.8540626724526,3.2596280522298 -5.7791430775011,4.891220177413 -3.8504866729457,3.4084597174282 -7.279468606393,7.250545196771 -10.876995064709,10.9162430919012 -8.3367569357828,8.6404703271886 -16.8569909496268,17.1014065787359 -25.2237575578874,25.7124654943679 -6.2812868509607,6.5543973883217 -12.2433294286079,13.4030210191398 -18.2882267532089,20.1731915863031 -6.4276064509864,7.248737251997 -12.7585882853208,14.5835427551332 -18.9772170690281,22.012357744105 -1.9479823606996,2.3346184983625 -3.8079806615369,4.7418925856083 -5.5647096373272,7.2237168873943 -2.2788062820768,3.1972746623356 -4.4889348799814,6.4427480115592 -6.7348687329332,9.6630257852823 -2.7045067927011,3.9405132583732 -5.4191735760466,7.879516171943 -7.898216190781,11.9671944300257 -0.2619666904389,0.4991959058505 -0.3958729245056,1.2159088993715 0.059029807849,1.647776364947 0.5413107122918,0.4328773880952 1.2846449955356,0.1549288801546 1.7947179402155,-0.1922367506828 2.5658476353577,-1.6556523414758 5.162377148085,-3.265423308398 7.6778823765796,-4.9981989046562 5.3086160795189,-3.614647104752 10.4785818729359,-7.42744582742 15.6371985874911,-11.2515137398686 4.2976311471889,-3.2131360243401 8.5836282985921,-6.4449399716177 12.7551612772593,-9.8211118892546 9.4953535427286,-7.759008210816 18.4520559689395,-16.1423285258356 27.5394596656846,-24.3671898705333 7.4600320482695,-6.770563526549 14.8205596492147,-13.6497248715334 22.2390292930743,-20.465643929185 4.7736242628097,-4.4080102079208 9.6631084441469,-8.7059569638997 14.1158317804666,-13.4464113454508 1.5832212137054,-1.6612949684148 3.0715247760023,-3.4084658477706 4.5569299004991,-5.1565651104595 3.2464033236231,-3.7687066585555 6.438910951881,-7.5988189330716 9.2319719516589,-11.7209822629516 0.5771831035917,-0.8252130491457 1.1521917200483,-1.6629530118116 1.9003955627932,-2.3448456492034 0.6188085441046,-0.6966971642295 1.1217039443252,-1.4893860784156 1.7576048353438,-2.1709974217328 0.6981138277695,-0.9841506994664 0.939573853825,-2.3080914648431 1.9726555814522,-3.0362828010301 0.4699719971439,-0.3617926875136 0.8003836372907,-0.8787201944836 1.0239271288494,-1.4166556087803 0.082936487942,-0.4774384477089 0.172204752584,-1.1505983293026 0.7941841804621,-1.1547534766801 0.516565030192,-0.050830765151 0.4123936556629,-0.6090457568929 0.3897131119233,-0.9728669583593 -0.035128579935,-0.5275224072488 0.5549570257343,-0.3758288081655 0.8534853525409,-0.5421200094468 0.3785012770867,-0.4164470676788 0.5147728694782,-0.9862720784125 0.8508703229916,-1.4338931793689 0.3454910354727,-0.5572492055265 0.8930936231424,-0.9393372222096 1.3352772583651,-1.4061550043372 0.3154969946524,-0.3424825122336 -0.5314232965977,-0.991495082131 0.1329578617396,-1.1000897093976 0.5777526241537,0.3330613224319 0.3836457623565,-0.7330288956615 -0.064433008758,-0.6965675606529 -0.4241325766479,0.1355511510485 -0.9510289957027,-0.055581456036 -1.0494374079405,-0.5234725632391 0.028353644804,-0.5141929829241 -0.7852772143822,-0.3559510809288 -0.7521609477026,-0.8528921194036 -0.037149385911,-0.5079279240597 -0.5351936290343,-0.5477417774373 -0.8761072817657,-0.3338908372354 -0.362581428448,0.021553175303 -0.3566634091081,-0.5352668257477 -0.6325796530738,-0.1782967721423 -0.3624407471184,0.096871046359 -0.8302538621848,0.088065057139 -0.9102858564351,0.5398210780227 -0.2195232674742,0.2080585691135 -0.6280234283066,0.00364408712 -0.5727855178802,0.4495695871023 0.00739373382,0.3620542123735 0.4925183461659,1.125520413469 -0.2208227802729,1.0157445427019 -0.5616657942931,-0.34106144428 -0.8497707252446,0.331351436034 -1.05250605211,0.7310198629144 -0.3343001689957,0.3319447903033 -0.9057516842042,0.36967010839 -1.1334884340828,0.8504153553699 -0.5570355224459,0.4728185025069 0.530490755467,0.5270298031495 0.3685557942808,0.9596331432723 -0.3484843793496,0.1627379478439 -0.7159053505455,0.2800560257863 -0.9971530265206,0.5356292582779 -0.4167251778053,-0.077067624354 -0.5798509403622,0.209685668444 -0.6339609807438,0.5657972623823 -0.2757856272687,0.494927243934 -0.8297315145637,0.044719949525 -1.2006985773753,0.3352470336656 -0.4077854708322,0.2429718212593 -0.7528252273661,-0.2211173643549 -0.8456660862431,-0.5841707715636 -0.1601369652633,-0.2730894089832 -0.5514204140272,0.2158647807288 -0.6905900794907,-0.2069008770718 -0.079571442564,-0.3828039473936 -0.7204495447447,-1.0002005100258 -0.875631424751,-0.3624118255027 -0.029604058609,0.4278899171115 0.5628027762937,0.9491436608979 -0.1329300376342,1.1561404631289 -0.5188188205322,0.074309374255 -0.6374003006372,0.799792164839 -1.2048089078411,0.7697910840015 -0.5807041529229,-0.2337966795921 -0.9655485648913,0.3467215217891 -1.4428869429194,0.604985284984 -0.5942506435706,0.2269908281824 -1.0925144967889,0.6390426510704 -1.6759972424511,0.8885073006252 -0.627006148952,0.2567494065922 -1.195101058466,0.6342740352631 -1.7923094779983,0.9509857857843 -0.6356592143167,-0.013371433323 -0.7776159903654,-0.8546714681404 -0.4171495877611,-1.2734639068176 0.2186005909673,-0.614668823301 0.9138936928512,-0.6513328754952 1.3179797056329,-1.0392895670852 0.2161431159467,-0.400328769954 0.3933486553985,-0.8602269167343 0.9380017688958,-0.8464416144002 0.549747182583,-0.0712107413 0.4158468037836,-0.6327517375251 0.2110486244076,-0.9668884696112 -0.107433991305,-0.4965946230621 0.6464966317707,-0.4728376981493 0.8976043336167,-0.2217462277761 0.4616332777904,0.2072119638296 0.5828125788457,-0.6107183642313 0.8855201912454,-0.8477634333561 0.3631909157391,-0.4097344892843 0.6747405519803,-0.8980975405306 1.1721096195499,-1.1441022083821 0.4015739193435,-0.2087664279619 1.1957787962486,-0.1497094350584 1.149203420841,-0.7851900044995 0.480458285148,-0.1249424323073 0.4705294854741,-0.9471414378656 1.0762082322851,-1.0291848062842 0.4657761706401,-0.2318772135803 0.7436263752958,-0.7453947118805 0.5757827227184,-1.2476237986607 0.1293329138089,-0.3927315452395 0.3621761609193,-0.7494148050151 0.2244951853242,-1.1750258389429 0.010580379264,-0.540712543175 0.8930011346794,-0.4907870537227 0.805957891229,-1.0859295107277 -0.060045714718,-0.5141547793804 0.2992392929006,-0.8399433812522 0.5294226750121,-1.2190000076426 0.04675038725,-0.2980431350908 0.6355912257558,-1.011532281554 0.033778425465,-0.9823708484575 -0.6202547801427,0.23693665697 -0.3651938317383,-0.581666932023 0.086791971737,-0.5111673122841 0.2544197817863,0.095923739888 0.8923867148106,-0.032010372239 0.4214297852111,-0.316683794144 -0.3128855765945,-0.041287518939 -0.6773990959919,-0.3359106580829 -0.1989120868004,-0.4884948013426 0.5199928942446,-0.3147521616695 0.1408403193023,-0.8274962340263 -0.1663263927289,-1.1293418880786 -0.2176343045819,-0.2826693272994 -0.5503454041148,-0.43778307844 -0.8426002051604,-0.6280916777832 z"
         style="fill:#000000" />
      <path
         id="path3481"
         d="m 194.8418254222409,219.1674662426808 c 0.053034646641,0.3881262855458 -0.7853555355854,0.4013449050002 -0.3997366832677,0.8266798194739 0.1879608355788,0.4895087226695 0.1038601133431,1.0620409324521 0.3786265552312,1.5203244167324 0.2608453446575,0.6923252031624 0.3980441554487,1.4963183325702 0.9548199368315,2.0049790613228 0.1908409041212,0.3125462922576 -0.3308732755828,0.7138502008575 0.0025258118,0.9612506261258 0.4120844255907,0.060246952122 0.5187077258807,0.5627990368715 0.3773580743916,0.9225347847841 0.013661840801,0.279210272877 -0.1417375619503,0.9129165071767 -0.4860705611857,0.6388077566902 -0.3209857580252,-0.2688495619592 -0.7361620352651,-0.418316309448 -0.9760798474695,-0.7887153701739 -0.3387427388276,-0.2480038784274 -0.6383913319355,-0.5594416759119 -0.9993408986743,-0.760145578183 -0.4116666877889,-0.057891137588 -0.3845545382982,-0.6948786423308 -0.8198864705773,-0.6298195708934 -0.3040203085132,-0.00719550427 -0.2454140222234,-0.4462556993672 -0.5066502589268,-0.5761672102365 -0.3228948822428,-0.2883823132021 -0.047101113338,-0.8275167982634 -0.4199337260044,-1.0955016339491 -0.2554824596053,-0.2474384009293 -0.6447887357765,-0.2589979994099 -0.8587564366318,-0.5745635370396 -0.3179216605005,-0.3531466200554 -0.516328082746,-0.8083693023195 -0.84404589449,-1.1526142556132 0.097248588577,-0.4110080684107 -0.6319028081237,-0.6798923096906 -0.5156743499106,-0.1249371186671 -0.1889025254363,0.4120900613788 -0.7848060368648,0.08424786546 -0.5472940133012,-0.3056894136228 -0.045743368219,-0.4001854618706 -0.5778391861285,-0.2310853036667 -0.44164470796,0.134121142794 -0.055115030765,0.4895843386203 -0.1283749840675,0.990231222537 -0.063089522698,1.4811696012888 0.05604880586,0.1267917767932 0.2772012903885,0.7402697002901 0.029881658957,0.4445711952289 -0.2218350714673,-0.1467288389679 -0.5089728094143,0.1545616164758 -0.1654181758357,0.2617731482588 0.2666290354828,0.3164899053106 -0.3803674480075,0.4928010651466 -0.1955150055743,0.7862126355769 0.2167104910072,0.307269591953 0.1932110783764,-0.2833654224387 0.464311264444,-0.1125133488042 0.3893621119287,0.2231560787296 0.059711480975,0.6761928424925 0.1896015402493,1.005740673758 0.083174149336,0.3699422761827 0.2984938244878,0.6798714501772 0.5142909732195,0.9714826314233 0.1790380557739,0.3818481320392 0.1121944585614,0.8858372271286 0.4460532397481,1.1823897834641 0.3046958080835,0.2854263876839 0.6194060279458,0.5871350123185 0.6865909339345,1.0376420567005 0.083927173454,0.4077434838195 0.6062153151851,0.4541978611245 0.548310498472,0.9186785598153 -0.032621093225,0.4263335714989 0.5257694626241,0.2567829856533 0.5021370550215,0.686045773768 -5.89420859e-5,0.4168127146622 -0.1562342755218,0.9668503669019 -0.5807087819,1.0840921038641 -0.35777947253,0.1089974102581 -0.4690543945356,-0.304666237153 -0.6689718394956,-0.5116225579408 -0.1818550265507,-0.2017517528429 -0.3964966650566,-0.3810506543898 -0.5153963167428,-0.6368138870832 -0.2531176459247,-0.1585490158465 -0.3606613344622,-0.6494620512273 -0.7290199764042,-0.5108417022822 -0.3717329537028,0.078439513425 -0.3708407312523,-0.3823515222567 -0.628877712254,-0.4948795385682 -0.26195937872,-0.1312781747751 -0.6412029360184,-0.1941763584857 -0.7118304235839,-0.5514299417403 -0.1490801196982,-0.3134099987774 -0.2813254050617,0.3656065811499 -0.5183672614968,0.1072814155118 -0.3352232565502,-0.1662368741679 0.027467149557,-0.5496021600828 -0.08887890922,-0.8100572564294 -0.121408663528,-0.4136290771064 -0.5915772706276,-0.675701148264 -0.9701491330996,-0.4857995208946 -0.3988190116192,0.1115118529406 -0.7878262687338,-0.3130042822086 -0.4908862436571,-0.683539500736 -0.1140295804578,-0.2373261703922 -0.2796194938846,-0.4368102604304 -0.2583377349841,-0.7257028107386 -0.140198306218,-0.3624467230858 -0.5740097392324,-0.2341232499516 -0.5864605485453,0.1276769611155 -0.2215145395337,0.2680595982464 -0.3336335709705,-0.1040056797848 -0.308440779368,-0.3100501130332 -0.00303620072,-0.2241426992186 -0.3314362581601,-0.3570681987662 -0.2779952996393,-0.040737789471 0.090576067054,0.233524060093 0.3916836190882,0.8633779494014 0.04022848167,0.8227861125421 -0.068258382057,-0.2001526645086 -0.3465809843976,-0.033262348083 -0.2913097625196,-0.3189460358628 -0.0526648227,-0.3975425075928 -0.4534561645895,0.089128469201 -0.2076896323632,0.2766769226637 0.2953782989561,0.3477043305677 -0.040646552974,0.8173560634132 -0.4325185567701,0.7701156365809 -0.3309335049394,0.056719969443 -0.1957866934501,0.5011859179593 -0.063444622134,0.6999397977634 0.171996177391,0.2555036522809 0.3691668825195,0.5199194788615 0.3631594346866,0.8530994509307 0.00828222263,0.4424477412833 0.342078295307,0.7077485274402 0.7128582340897,0.7826173117541 0.3376468930551,0.2047467026541 0.2111372996156,0.6677250633338 0.3752190931926,0.983159717299 0.089207982431,0.3562383784917 0.3456983114536,0.5367884721421 0.6448468512074,0.6580211867468 0.2623563403757,0.1306939974539 0.3386603101325,0.4557472466783 0.4385155152739,0.6873810428265 0.2697051520119,0.2195462663176 0.5943230741235,0.4375270009694 0.6743599231219,0.8150996436604 0.2579411756509,0.3474666679243 0.598532905588,0.6179548490245 0.8240183095836,0.9942425702719 0.6061762950387,0.7871999384522 1.3178901513428,1.4733290059149 1.9487666331135,2.23511302007 0.4149794166864,0.7136256131686 0.756188679124,1.4941461042389 1.3319468489361,2.0832456973867 0.7808875618727,0.9359139941378 1.5801810275235,1.8561885182495 2.3106494068455,2.8380116224856 0.948891085388,1.0721490069985 1.954285269315,2.0856219624033 2.8973474307853,3.1637456602919 0.8258511153711,0.8926843508289 1.6393359257116,1.8067296100478 2.3238638921451,2.8297828402908 0.2830489235223,0.2338411216061 0.8074156083606,0.245306012533 0.8560557625797,0.7143203313683 0.1596344472713,0.5420943840867 0.7283345932377,0.7035870513302 1.0945047442108,1.0449231415485 0.6307413264471,0.5599731943235 1.0670480318118,1.3172863188012 1.6521202615732,1.9258565317286 2.4608277603767,2.8408024083203 5.2000762911625,5.3867120000477 7.683471112112,8.2041539987573 1.4810191931401,1.6073727029 2.9857805634758,3.1913554473669 4.3984629242806,4.8684893214773 1.0326616727283,1.1498708304465 2.1242594395982,2.2386893122477 3.124598634279,3.4218077464436 0.6173761308293,0.7265949382465 1.2135574683152,1.4755793220399 1.8877429306813,2.1440319003047 0.9510788887838,1.0305403242126 1.8222417245204,2.1416388390535 2.7897496510043,3.1555253595799 1.4898592897197,1.6060200711605 3.0112912994377,3.178344299297 4.4993527259068,4.7862372391256 1.0546509163118,1.0834191650274 2.1822162574918,2.0825741352264 3.2264835950442,3.1779408139538 1.1263330383372,1.1617044915541 2.2815044652266,2.2905641496068 3.434921813434,3.4213091948906 5.2191138569333,5.1544313272287 10.3762050073812,10.3803137154076 15.6205407744631,15.5056063990896 1.3771049027427,1.3096220128939 2.7794117984249,2.5892085540026 4.1273791325763,3.9334890923769 2.0187715258034,1.983320914551 4.0343914993493,3.9714380458406 6.122087122477,5.8724858164798 3.7804494150326,3.5163312665374 7.421527354132,7.2004283519697 11.2300189536287,10.6826246794313 1.4271021591151,1.2732882204695 2.8747943914456,2.5204533254769 4.3223011492049,3.7668650449174 0.7086109731799,0.5583758031548 1.4228472890638,1.110059487695 2.0946510258362,1.7187621713858 0.8472307986688,0.6871923354739 1.7030183640462,1.363183890942 2.514594349045,2.098663791773 0.9396012739372,0.8229446835101 1.9430968247313,1.5561999587129 2.9122106612703,2.3375137985344 0.7810124104702,0.6356378483905 1.4697025493507,1.3896407751988 2.2689405051453,2.000870054362 1.1988672401826,0.9399574660056 2.404752879677,1.8696556116413 3.598443277076,2.817211569735 1.8815344392118,1.4762525384791 3.7396053491242,2.9865607438557 5.6255932105076,4.4562044198651 2.4051812319543,1.8269177154267 4.872485620347,3.5582785790745 7.2838918430283,5.3756462770458 1.1613798516654,0.8421872982965 2.406921926401,1.5482015601461 3.7044113912034,2.1189999229223 0.4029938883186,0.208593370769 0.7988589034973,0.4347029550618 1.2156235024988,0.6113358052225 0.4420444647315,0.026045659943 0.747422402619,-0.5703697192209 0.5312388639276,-0.9690012947345 -0.267904703922,-0.7560006902974 -0.7654873107864,-1.3950241390033 -0.9960593746971,-2.1687120168988 -0.7945014124611,-1.9005110649969 -1.7056252393755,-3.7626991872734 -2.9171509421497,-5.4021853445606 -1.3923568644749,-2.0249121214388 -2.8048487605934,-4.0339044907845 -4.2343693855444,-6.0290405233746 -1.0898563713712,-1.5419201857711 -2.1188460128009,-3.1315344991129 -3.1119773518645,-4.7458236836004 -1.1351393667202,-1.7790730363573 -2.2720459395854,-3.5599659664965 -3.2732926846146,-5.4301310054981 -0.6539862725759,-1.1830586530838 -1.3820301203917,-2.3165275248846 -2.1430559404118,-3.4234088869815 -1.1010243362444,-1.6591552265183 -2.2474374085597,-3.2906344271403 -3.5570517771572,-4.7707518765713 -2.7072312176118,-3.166846684428 -5.4515764290035,-6.2972583610768 -8.1917035928168,-9.431589861827 -0.8746067294313,-0.9899355478165 -1.7911767739906,-1.9393720142246 -2.5990589532066,-2.9943183608236 -1.0744732108825,-1.411265191015 -2.2298714293474,-2.7518414690061 -3.2530090461088,-4.2076327687088 -1.5207427811906,-2.0493944855354 -3.0900597498504,-4.0598320690065 -4.7674251810268,-5.965976461902 -1.4419676054657,-1.7042157913669 -2.8942671701763,-3.4013628835455 -4.454863535128,-4.9838955756645 -2.0758814619673,-2.1325996907354 -4.1965125025213,-4.2164014723514 -6.2116486309257,-6.415556140184 -1.3526623172964,-1.4651523431376 -2.8065508541078,-2.8203883045415 -4.1267300974105,-4.3204397625568 -0.8747961175059,-1.0279526724856 -1.8313993158582,-1.9734083158166 -2.6927927954341,-3.0142793313561 -0.7509970469881,-0.9440586204077 -1.5255474113121,-1.867571285428 -2.3547604996257,-2.7343436531521 -1.5774788644815,-1.7524964355877 -3.0382770988482,-3.618338793002 -4.5610171567222,-5.4237279864549 -1.4149506903094,-1.6367048215273 -2.8148460704413,-3.2891425411497 -4.1626059155343,-4.9893158175211 -1.3578408209435,-1.5611236085083 -2.6805190145728,-3.1565018199523 -4.025235142923,-4.7303016483098 -2.4890077124893,-2.8674091246894 -5.0292346227757,-5.6834496666089 -7.5438706615092,-8.5250843729203 -2.1415486352962,-2.3668659389558 -4.3751641011366,-4.6373143252692 -6.6545390671488,-6.8519226378579 -1.2088206830208,-1.1479374124979 -2.4664260664532,-2.238820067724 -3.7749689286488,-3.2545618825003 -1.0004531652957,-0.7568877889845 -2.0466761587756,-1.4413902162332 -3.0470777495137,-2.1985662698584 -1.203453785232,-0.8874358608553 -2.3862999496557,-1.8087751420634 -3.5127066057753,-2.8054473589769 -0.3876132809649,-0.3342778178605 -0.8263710255467,-0.5881187778408 -1.2708843971146,-0.8220245888124 -0.8913715849153,-0.5770444415748 -1.6029768295877,-1.4169387396988 -2.5016674301776,-1.9835204371546 -1.6354939845596,-1.1661956595582 -3.3355045264999,-2.2241711891869 -5.0281829336746,-3.2912092024688 -0.354513542479,-0.271931484795 -0.70166092044,-0.5567455230792 -1.0580000580147,-0.8246170713586 -0.2688223796724,-0.2978205309613 -0.2097665892397,-0.8322729262983 -0.5842680533353,-1.0375370136195 -0.4101708626854,-0.2251799269121 -0.8484600613956,-0.387287030415 -1.2460627297306,-0.6401633032529 -0.7892873959816,-0.451554866934 -1.5335557987438,-0.9896775642363 -2.2341014281991,-1.5843529105361 -0.2025250010611,-0.3367915449918 -0.5849623346964,-0.639837011965 -0.9746495607884,-0.4928027424595 -0.063708904153,-0.00787191291 -0.1257063064264,-0.040401322575 -0.1664698202878,-0.094037319156 z"
         style="fill:#000000" />
    </g>
    <g
       id="g5584"
       transform="translate(-7.464828449933348,-264.5505748904495)">
      <path
         id="path4496"
         d="m 202.738989138756,264.4555058271541 c -0.4908070524654,0.3429704282653 -0.504560732836,0.9853309109542 -0.2378265080514,1.4339463425597 0.2431913196075,0.5114881978685 0.535778227101,1.0083951401766 0.6832841633106,1.5516397581251 0.2879484493147,0.5790895391117 0.985905161261,0.9912608343399 1.0098474195924,1.6693583446479 0.0035772422,0.4387799528495 0.4552262551312,0.7178557129866 0.5853603035084,1.119552150564 0.126857700821,0.2932072275597 0.1155354476291,0.6813996106679 -0.1769762948714,0.9017862597609 -0.3930455252538,0.1471119920007 -0.7751466123639,-0.1131510191861 -1.0916752221093,-0.2866729303955 -0.4378885855848,-0.2907519652414 -0.829339245131,-0.6478977728491 -1.3339459177368,-0.8504927824367 -0.6298765354392,-0.4515342746212 -1.524427285207,-0.6384404992694 -1.9465304252112,-1.2981125466014 -0.1620475369713,-0.3518020228909 -0.2647690949968,-0.7788347008175 -0.6693058763864,-0.9812095699565 -0.5532812380202,-0.3626558518204 -1.3327910054988,-0.5622884322294 -1.5951223409439,-1.1834470587741 -0.12943186449,-0.2708287817348 -0.3857116497562,-0.5867977225874 -0.7610217468013,-0.5647193479455 -0.2846827925325,0.052993176368 -0.3894568521825,0.6299904494928 -0.7438389238478,0.3314251959649 -0.1173198892153,-0.1379484753434 -0.2028922906264,-0.6695957531621 -0.4641698100585,-0.4795648905571 -0.2553082251784,0.7066348947847 -0.029437493571,1.4385993327405 0.1411278693721,2.128778620457 0.065334618547,0.2867375576839 -0.4212991389122,-6.897569892e-4 -0.3470031450168,0.3054360734843 0.1740193998289,0.2047963940837 0.1471183306578,0.4061889612698 0.030601722559,0.6255760161523 -0.057369830234,0.2354174722006 0.1972790389582,0.4235776831692 0.3823211286092,0.1943873184647 0.3600471146633,0.090849637042 0.3069633351752,0.5623071344606 0.4861852185623,0.8135751514849 0.164885961638,0.4373367254631 0.3413950356804,0.8962700175436 0.72424467004,1.221118843092 0.2756004163348,0.867872536092 1.290024387032,1.3004643782643 1.6674783156923,2.1152279507842 0.2990785307903,0.522800933357 1.015774396346,0.8256247604841 1.0807407776854,1.4582511542927 0.00668918587,0.367388414119 -0.2827026839086,0.8328553800003 -0.7438457342539,0.8098824669279 -0.4831930851502,-0.080397196861 -0.7677331924081,-0.4749278507155 -1.079824985829,-0.7732896825259 -0.2596919552925,-0.3507216145682 -0.7061755509654,-0.527066997752 -1.1409399557655,-0.64996652851 -0.5878561858517,-0.2166723150464 -1.1478063503944,-0.503367773127 -1.6213208371147,-0.8833702777004 -0.2215271130592,0.1066989871685 -0.79052328154,0.350403261672 -0.6609908228593,-0.087749542747 0.1522817940193,-0.3495932652838 -0.039266365883,-0.8063472863763 -0.4924565190845,-0.8306357251825 -0.4079570027527,-0.1078028485328 -0.841105140986,-0.1010418222269 -1.2598393950925,-0.162303131056 0.088647361018,-0.4953506472613 -0.1838684484084,-1.0134770285491 -0.6544614101666,-1.2745525108625 -0.3143992976612,-0.1122089503147 -0.5903388561347,0.6539439344135 -0.6908559826833,0.096628671446 -0.045580326226,-0.2144429320169 -0.5196853318252,-0.3013719896947 -0.3140881636543,0.00298988131 0.3082044381478,0.1758181612405 0.2680540621381,0.8705243863426 -0.1870462334683,0.6036178844461 -0.1050888402772,-0.1491919331534 -0.3261647922362,-0.2869055966292 -0.269542091385,0.00704956937 0.013813406238,0.3275930733805 0.188002180749,0.8432271929274 -0.2860246727575,0.9858727541819 -0.4290427182965,0.1566009019772 -0.2095043154058,0.5486436364891 -0.040849868603,0.7903893594076 0.2275056298237,0.3690077468726 0.554861606184,0.6984428216693 0.6592153704666,1.1208031413938 0.6127510424457,0.075866238578 0.9356827141504,0.6094295614898 1.1569889138496,1.0667910756837 0.1581957185561,0.3613565795017 0.4669494962989,0.6410999981291 0.8478961471202,0.8146782681919 0.6801894204619,0.4481096506361 1.1581751073458,1.0852137808042 1.7718065972702,1.5958856758487 1.0499746878706,0.9823628201161 2.2873846643449,1.7944701490752 3.2501241162412,2.8473738289084 1.0424090947706,1.520736209492 2.6788928732324,2.5701134515924 3.9521972038194,3.9040711345387 2.132598894409,1.931543163299 4.5480938230664,3.5871561648023 6.4741886727296,5.6884466538138 0.9705298274279,0.2823770070081 1.318183316845,1.3501167335346 2.2690806811362,1.6588793067927 0.838914754439,0.6052454599495 1.4790650834895,1.4044147897217 2.2518302415113,2.0738253737346 3.3483658216098,2.9548989987601 6.8355230696213,5.7425439363637 10.0310195659729,8.7964700993627 2.1963621027239,2.0559968853559 4.3475095168794,4.1440969168615 6.4998263367147,6.2194142448301 2.7610154522034,2.793077154468 5.5156076860292,5.5743784413117 8.3263449690515,8.281417139984 1.6213961462137,1.5817745553675 3.2718929577309,3.1275584794088 4.9386703340989,4.6484590390548 5.9741098230111,5.6234555167149 11.7498512227647,11.3614952489501 17.3819806570793,17.1608479540676 2.5757505660609,2.5985040328697 5.1623439210734,5.1688007150189 7.6419989534495,7.8315926188749 1.9908920874869,2.1036511567418 4.0190713147734,4.1579210410664 6.0030975370034,6.2472375011519 4.4483826618999,4.7739753286173 8.7343646456752,9.6760420063798 13.4063426267478,14.1039663777293 1.8901805673397,1.8924228448444 3.7859066518212,3.7698351825844 5.6699395491676,5.65054651204 1.8263146672157,2.0930802175795 3.9375059737674,3.8557868438676 5.8378956343554,5.8474932655879 2.6470874283191,2.6604871019723 5.3175762687677,5.2776009054935 8.0520163329622,7.7984295862881 1.5800625710988,1.5370330318148 3.1655352705723,3.1073896389066 5.04865482481,4.1954868759538 0.364019456605,0.2595226254158 0.7086087412171,0.6824846341273 1.1886665431073,0.6277479560848 0.4059994556334,-0.084178676516 0.5029927219338,-0.6079067832768 0.3852733193988,-0.9697073542142 -0.1603066562105,-0.989298598168 -0.7265029686114,-1.8333859922239 -0.8676541624504,-2.8296830987293 -0.7195761413655,-2.7702190405576 -2.1108416742823,-5.2460693841017 -3.4394079421654,-7.718348652288 -1.2864742180865,-2.4036339197708 -2.6084963554131,-4.7923019936374 -3.8175138467754,-7.2538039215406 -1.3946035755127,-2.79441889 -2.6972267953231,-5.6464330516712 -3.9828490817586,-8.5112511333954 -1.4467748832076,-2.9432212720565 -3.1035768752612,-5.7861409389432 -5.0687388780781,-8.3999045134165 -2.7138504935087,-3.7984706332803 -5.5375926993971,-7.5312835187784 -8.3724939614995,-11.2758486844534 -1.578988653423,-2.2555060209943 -3.1173627695979,-4.5472015306838 -4.6418365294273,-6.8540289584358 -3.0202097417134,-4.332994456924 -6.3822921232758,-8.4436502898111 -10.0616301155694,-12.2859822457389 -2.2591764189557,-2.4443818372359 -4.4834010857514,-4.932715911649 -6.787671938773,-7.3606850351446 -1.8241892002733,-1.991523104562 -3.5538032325824,-4.0710562479515 -5.3289272657066,-6.1186407266245 -2.4482680338064,-2.6784308822347 -4.6833708985479,-5.5446542999074 -7.1604719207704,-8.2255793916151 -4.9810667131394,-5.822762130946 -10.3412419898152,-11.3983157405279 -15.9711869221592,-16.7946327531825 -3.1547062297118,-2.9261434386034 -6.3895625065694,-5.8325216733147 -10.0985171449681,-8.2224198168103 -2.5795134145065,-1.6168284381784 -5.3257733856086,-3.0340090521325 -7.8112857597905,-4.8035858826645 -0.9484040911045,-0.5812571882641 -2.0690968216921,-0.9370241254312 -2.9112996005909,-1.6593858586934 -2.5234831455876,-1.6495710914816 -5.4309049554589,-2.754837803048 -8.1300482928958,-4.1855074630743 -0.5928051814137,-0.5849671993448 -1.1034314501541,-1.3193052966008 -1.9891256646389,-1.5852225395732 -1.0340854106061,-0.2457877384806 -1.9653593905156,-0.7395993029094 -2.8283570583207,-1.2845002261262 -0.2964390718847,-0.1802294224445 -0.5461151071601,-0.4257352953643 -0.8702609518927,-0.5661688351335 -0.2851385780891,-0.088297765559 -0.5993399399275,-0.057014073865 -0.8874667950116,-0.1353797807325 0,3e-13 -1e-13,3e-13 -1e-13,3e-13 z"
         style="fill:#000000" />
      <path
         id="path4396"
         d="m 304.3631298218041,264.314762008163 c -0.4389816141102,-0.016869402277 -0.8539414653102,0.1249297081235 -1.254028963805,0.262121954699 -0.1644600087923,-0.1680934415301 -0.7747609537165,-0.5273631199574 -0.675207340344,-0.060468992044 0.1073958885593,0.3327666046256 0.00506765611,0.759878839124 0.3515652859627,0.9998705231667 0.1583592841898,0.4364508013477 -0.491131640277,0.3267290435725 -0.7466345687566,0.2451836478539 -0.2149243946407,-0.08873935211 -0.7992684489905,-0.392355085913 -0.7098356315946,0.00770826331 0.3408777628233,0.1663375260727 0.4863601046096,0.6251586933496 -0.00444757801,0.6744456464898 -0.4746308880543,0.036483370395 -0.040430602051,-0.5765800859599 -0.5115699711137,-0.5527241925147 -0.3805358159175,-0.00829251979 -0.423168671463,0.3491207095591 -0.2693337380298,0.56958825477 -0.07296411188,0.4108150844842 -0.8347539271606,0.2302721741809 -0.78496923672,-0.1546965587995 -0.2414328758369,-0.282424542334 0.075380723722,-0.8454487659702 -0.3584900140144,-0.9788859882388 -0.2205923835066,0.1216815380249 -0.5859238417031,-0.014439854874 -0.7155893987384,0.110682759934 -0.00865826895,0.2881237630505 -0.061358047685,0.5751657472461 -0.407883407647,0.6503611353679 -0.1215764359489,0.2321748666437 0.1985867332916,0.8470354518911 -0.3488684870189,0.6136371231005 -0.3404193502776,0.1037350148362 -0.8298879902869,0.2217699012408 -0.8899816552701,-0.2531554069712 -0.05456475754,-0.3354636219701 -0.5303744299438,-0.5671423165858 -0.7256967810521,-0.1972087007262 -0.1467483382929,0.3478917515347 -0.4556692069073,0.5610493349177 -0.814104452344,0.7160395090436 -0.4207234447133,0.2222372786932 -0.2439258792409,0.6906736737283 -0.2055309305167,1.0448392023267 0.051081858268,0.2011665204977 -0.1671117014398,0.4316705944013 -0.3030623633283,0.1651842040085 -0.1879135928848,-0.2761695259983 -1.0428661662816,-0.2753978622411 -0.8113737148686,0.1331856801611 0.144497697974,0.076503474174 0.4546873901655,0.3139480361109 0.093735057253,0.3142700357555 -0.3348120517081,-0.08534580682 -0.7342921784115,-0.5535028589796 -1.0300896876367,-0.1454775644972 -0.1880445770634,0.3022197624636 -0.529947749262,0.4258280300653 -0.8635687798363,0.5527052956284 -0.3431089589472,0.161458938875 -0.2674096452783,0.5896119663638 -0.6713053777332,0.7079303185905 -0.3051116723737,0.1690089499523 -0.1103510944258,0.710415897949 -0.6203981858798,0.6466105858098 -0.3293468883082,-0.0520115026 -0.67467381851,0.00405098713 -0.8905250194897,0.24611931336 -0.2003804211214,0.1900800424368 -0.4096173057741,0.3858730300405 -0.6860069739507,0.4799054180429 -0.3348392726026,0.251335520701 -0.5905800610137,0.6214211307366 -1.0413854270229,0.7166948960697 -0.2970691965917,0.2055818291683 -0.4353900583838,0.6129378176549 -0.8978548789187,0.5701806850167 -0.4112517464117,0.028377132416 -0.6831211782579,0.3112184343817 -0.9683143654429,0.5419140713721 -0.8599161432192,0.7341625219539 -1.5340605561992,1.669584092712 -2.5890420279444,2.1974389369162 -1.6960820469598,1.0987709517769 -3.3207164194744,2.2893345500391 -5.0843858064058,3.2987097168544 -4.6884662764814,2.9341590053723 -8.7694269148997,6.5587008067071 -12.9152453708255,10.0560757654323 -8.09676156767,6.9143498677447 -15.9918166639034,13.9419136693897 -23.5882220767744,21.0946288444976 -2.7509040022741,2.6304554563412 -5.4121901980054,5.3245488734412 -8.0118627562562,8.0495584808818 -2.7646990644165,2.9098484307382 -5.3969505871947,5.9103183090036 -7.9363000605017,8.9577207973137 -2.6568342325748,3.1756972666638 -5.2519177980061,6.370814855955 -7.7788544228604,9.5858422252081 -3.0194175781879,3.9018155719261 -5.9061073042892,7.8596813910702 -8.6339134044346,11.8837953231844 -2.998789405265,4.4270187461789 -5.8890511565693,8.8722866701037 -8.4624604508681,13.4753152969931 -1.2459424981144,2.233150411874 -2.3155322743429,4.5689639968679 -3.3560256048903,6.9040569318718 -1.8373701583831,4.1395941442616 -3.5666305343492,8.2993438929233 -5.1070020393049,12.5213277938615 -1.0194735489357,2.7949759471367 -1.969141449997,5.6101344747925 -2.8111675093598,8.4625135612188 -0.1380980588836,0.5493047614901 -0.2599117149291,1.1825714228288 -0.046582001431,1.7566144055387 0.1843493516227,0.421280854962 0.6303862722208,0.6013224493698 0.9536192890092,0.4073682399859 0.6462865692992,-0.2940282272585 1.0382381895406,-1.0345228662318 1.5591749901608,-1.5517111272074 2.1596948876875,-2.4332591352149 4.3905818923285,-4.8510750998181 6.5967730453209,-7.3747642598343 5.7952944678973,-6.5004328714338 11.9890808614525,-12.9769107735047 18.5549553227319,-19.3745563235517 2.8069448563386,-2.8024925579722 5.5767727085449,-5.7183819597421 8.4712857235214,-8.5473181550474 4.8869934699411,-4.8512929181827 9.8153170447434,-9.826722564502 15.0531378508376,-14.5831245873686 2.9691812420912,-2.6975637538567 5.9807831521811,-5.3901029708936 9.029948999071,-8.0770780532939 6.0983295108221,-5.3584871835443 12.4198974204644,-10.6101950840401 18.9686930202363,-15.6892295291312 4.4810827717187,-3.4906021743604 9.0547419411507,-6.9215009216175 13.4940162822023,-10.5392374516718 2.5042414089001,-2.1373290088973 4.9133979649242,-4.3815912613396 7.3760451301119,-6.5765059584799 2.4792134659805,-2.2694377413949 4.9522854214893,-4.5538433796429 7.3233602685886,-6.9341324823965 0.8197740130939,-0.856214207776 1.5853048723533,-1.7585028344079 2.4404381245433,-2.5851686036767 0.7475319816775,-0.7770527415911 1.459600029007,-1.6254920585122 2.4514349809808,-2.144426407117 0.5486947804774,-0.458197163062 0.8840766228042,-1.1242896702599 1.5431503085613,-1.4682500506126 0.4236861717439,-0.3501986771007 0.7857463271088,-0.7764886630044 0.9984745511593,-1.2712610133258 0.4023957708732,-0.3238219855649 0.5469129811144,-0.8507030702438 0.982652257614,-1.1450696108266 0.233002487037,-0.3176903727041 0.5262805777143,-0.6703717940045 0.977251094842,-0.6916585634623 0.429285518947,-0.1347182038299 0.5925931659743,-0.5665816881121 0.7610307467967,-0.9186821362697 0.2177285814365,-0.3107133287064 0.6133554575653,-0.5459686695501 0.6311683214673,-0.9526339887788 -0.2021403669804,-0.4753815302331 0.5211089275058,-0.3319837015959 0.7720543986658,-0.3384041804236 0.3131915581902,-0.1944392827043 0.5425424531117,-0.5192550525389 0.568601435066,-0.8761881544888 -0.2920995967329,-0.057092572027 -0.43593822618,-0.4748043861544 -0.016889630149,-0.4320447041703 0.3126767652945,0.013268930309 0.719059043411,0.2530372618541 0.9503428662534,-0.045045330472 0.2060902529818,-0.3204983297557 0.3537433629982,-0.734042964321 0.7639943169489,-0.8763069642666 0.3194314810278,-0.1995971965926 0.2843321166438,-0.6613541124197 0.6720418946649,-0.8093567047146 0.3005549205475,-0.1660324964279 0.4763489861879,-0.470644302458 0.8345013559085,-0.5336967484861 0.3392187378286,-0.1170892636416 0.706441748819,-0.4881802924974 0.4288773358815,-0.8274897557287 -0.195557259552,-0.1907806875123 -0.2316759531518,-0.8298839748804 0.1434961402912,-0.6392745789171 -0.00490693499,0.2369492431045 0.1245413705835,0.5436406581061 0.4367313689331,0.3714964972894 0.3641564997833,-0.236269808701 0.033655458092,-0.812014928556 -0.3630478507607,-0.8410495834712 -0.3380346699102,0.0105495204 -0.7194744079853,-0.068578941705 -0.7891750883455,-0.4292769143105 -0.2938789129851,-0.2031767541444 -0.6268884387034,-0.4591901914398 -0.3722283839606,-0.8027358517973 0.034840920043,-0.2185778471245 -0.186220605047,-0.2565512465701 -0.2277350308683,-0.042239883627 -0.2658567117873,0.2642890441728 -0.5653356278762,-0.1377623870694 -0.337881746477,-0.3663308927545 0.08192473097,-0.2706560230817 -0.1736681269731,-0.8240889541086 -0.5168877492305,-0.5710454301566 -0.090662125143,0.2139718532779 -0.2737253771662,0.1460751361827 -0.31665237634,-0.023421530199 -0.180457751536,-0.012354419264 -0.7777100352467,0.063432191409 -0.3961444320304,-0.1849368201852 0.2781694939766,-0.1310983735986 -0.029923001475,-0.5994787815509 -0.1714720352313,-0.2216795960826 -0.2035295823851,0.3947361136136 -0.7012405858495,0.3088370239833 -1.0527190451479,0.169058202837 -0.4292430232987,0.081733996816 0.1602338477491,0.5125014325392 -0.2515000501706,0.6325034957352 -0.2426040204705,0.077922781633 -0.1175880419497,-0.4805509693334 -0.4705620037686,-0.2504282525251 -0.1413704213575,0.1670350020755 0.09649196284,0.3747083115911 -0.09892837388,0.5588438480473 -0.1988099550962,0.2686946004344 -0.1136535047058,0.5923515059673 0.1717717956536,0.7656222482157 0.1328464694366,0.2352229425537 -0.1734339637187,0.4201907396094 -0.3294907603536,0.169470977106 -0.3141672234856,-0.1631298108848 -0.7047508392382,-0.3843925120691 -1.0604559510424,-0.2250640490531 -0.1046243460991,0.3593815700663 -0.313647923947,0.7481455404296 -0.7304047156779,0.8558889346449 -0.2387311494733,0.1906950080513 -0.983697413795,-0.027642625452 -0.8970496977498,0.3597426746597 0.2326798770023,0.015920379713 0.289094648528,0.3824758389865 0.03041496341,0.2154221278905 -0.3798118045373,-0.1882674672227 -0.6422878159223,0.5377876233224 -0.2041332290341,0.5896258514856 0.4892779241334,-0.238611443276 0.6037047640431,0.6475959642599 0.090897701054,0.569603016841 -0.1693627114445,-0.032926887421 -0.5313854068386,-0.5168853378354 -0.4503474625833,-0.095223789035 0.1486913553555,0.4364821729983 -0.5768938334046,0.4987033277991 -0.6927368803389,0.1241266715144 -0.4847861472911,-0.1103809375757 -0.3435658785642,0.5232120628941 -0.4476781146324,0.7680226225538 -0.355933065557,0.4314294718601 -0.8139079768068,-0.2865790958525 -1.1932450629347,-0.060167733451 -0.1322471709613,0.1217494780848 -0.5971752843825,0.504908193732 -0.5812113361802,0.1256621497138 0.1490816601635,-0.3813582645001 -0.662141644307,-0.1449914552632 -0.4793754529627,-0.6033012699736 0.027939423338,-0.1462816239543 0.3116294740278,-0.5459368074718 -0.054623262204,-0.4502564244915 -0.1057452281479,0.1737348069984 -0.2275490324806,0.656868896173 -0.5512953370666,0.4710728579598 0.073772299445,-0.3082132599568 -0.034786877089,-0.7294698351207 -0.4447672195458,-0.8109523216609 0.081057385876,-0.2581836227241 -0.1935479330206,-0.6711770903392 -0.4240582939618,-0.304278972319 -0.2099350248217,0.1916046124173 -0.3827742683631,0.5894975552874 -0.085166299318,0.7898736492194 0.1993060424032,-0.00492963135 0.6172768010561,0.2715639517765 0.2302791693354,0.3259872093326 -0.388414999824,0.09911291792 -0.735770056463,0.4545689079213 -1.1591394187723,0.4199666618682 -0.1525145098383,0.2928792167559 -0.4245452261218,0.7658631708641 -0.8374604033328,0.4477256887608 -0.1979993268781,-0.2628788051684 -0.6898267038055,-0.4593511348541 -0.6221353458608,0.019313954579 -0.1276064812714,0.2828891633155 -0.4773548323889,0.031472405219 -0.6497601510167,0.2735280523246 -0.3313910174689,0.1413111759526 -0.6423064758543,0.2769347757819 -0.9631661531728,0.423696672358 -0.3082376713737,-7.341348857e-4 -0.5288262417956,0.050220480412 -0.7175252761667,0.288599132215 -0.3738888692878,0.2385752393594 -0.8509086170671,0.1304591403684 -1.2473888646951,0.3507298834301 -0.4646311414204,0.061776323621 -0.7980013778002,0.3736026481795 -1.2250569975411,0.5119204930929 -0.4103183728333,0.1302693065725 -0.6904331893793,-0.2730617949964 -0.6489794824051,-0.6087583919581 -0.064823506897,-0.307465858152 -0.013356043313,-0.6067032523668 0.353165877389,-0.7181654761499 0.3918900581639,-0.108398117663 -0.027177747428,-0.7873796311427 0.5161203286182,-0.6454438725664 0.4009567741002,0.2114106467833 0.9444937409397,0.073667902901 1.0076803952425,-0.3825319065001 0.056670230851,-0.3137982830526 0.338275284876,-0.5609401510734 0.6937155551184,-0.5431421277143 0.3138196723028,-0.017261949807 0.7202292265229,0.049501479515 0.9233900107494,-0.2222444433003 0.2152719222515,-0.3988273556846 -0.504919889457,-0.4168061542455 -0.4434173668436,-0.7425001187033 0.1048872903102,-0.3070669939151 0.5834243417249,-0.5447393966429 0.8876646159302,-0.307401314425 0.1921447766373,0.1798564604307 0.529051587889,0.6956796432522 0.7519874313077,0.2697780805016 0.1009986477725,-0.2587503683202 0.091351365816,-0.6462699505731 0.4766194708753,-0.6765265921288 0.4312814382963,-0.081382911655 0.3009004005267,-0.6360383271716 0.7537677108232,-0.7044689621114 0.458329958159,-0.072614633607 0.5916119884842,-0.5942162047799 1.0839891924043,-0.5849848320741 0.3526076086715,-0.045693838333 0.9304160799211,0.1434292027618 1.0915711527737,-0.2457400623834 0.090359772463,-0.2277592546723 -0.6395449857906,-0.1857318830203 -0.2850663255305,-0.3620628097139 0.1648328431482,0.078254886077 0.6133529274747,0.3821348801161 0.5773372206399,0.054027908314 -0.2437069058595,-0.1362268484935 -0.2680723564157,-0.6245565638272 0.122201653508,-0.4474685578813 0.5091953878384,0.1368535431322 0.5872675797172,-0.4920823877254 0.9791819536645,-0.5814383586733 0.2659057871277,-0.086080011695 0.6961777748132,-0.1711299862709 0.6508550187602,-0.5078400343374 -0.1924602386999,-0.2715521804915 -0.2610873121572,-0.8458996313571 0.2396509958162,-0.8275202085473 0.3488182462181,0.038498135507 0.1553422628098,-0.2700059845118 0.032660336322,-0.4003252818194 0.3063871358223,-0.1089524740954 0.099942685108,-0.3160909128632 -0.1014666370307,-0.3948883944729 -0.1259845635743,-0.4058437488233 0.5907729147241,-0.2093103638419 0.8059230274136,-0.3826472982878 0.3334140381062,-0.2261369349851 0.4664454392683,-0.6501663437915 0.3590566989055,-1.0185900962055 0.010835795073,-0.3853344445407 0.663209058993,-0.2571479663794 0.7396593066511,-0.615338443206 -0.211706519452,-0.3674135915184 0.2200943597357,-0.7176328121791 0.5495682098899,-0.6894624542695 0.067520326917,-0.4629582575932 -0.6543649549594,-0.4465197269591 -0.8645845068891,-0.2115395936939 -0.1967090796991,-0.2006204757431 0.1380650159461,-0.5898478670939 0.3613393503383,-0.6879249925448 0.3229549350807,0.024708533179 0.7942627130521,0.5663961053641 0.9969960072613,0.087937373162 -0.053456701818,-0.5391422813657 -0.7306499517188,-0.2180968342144 -1.0114263501616,-0.5009755112214 -0.1177787049411,-0.3631941602578 0.5400225690735,-0.2693323141065 0.7736676804324,-0.3809579180534 0.410392054598,-0.076456868613 0.2979782541146,-0.5042586853934 -0.06117229071,-0.5856280633675 -0.3320701597415,-0.1587450903855 0.042640611316,-0.5610412610068 -0.3332114271521,-0.7237025558977 -0.2398104426125,-0.1673182370824 -0.5899068622319,-0.2328700926059 -0.727744263706,-0.501550964471 1.1e-12,6e-13 1.9e-12,1.2e-12 2.7e-12,1.8e-12 z"
         style="fill:#000000" />
    </g>
    <g
       id="g5588"
       transform="translate(3.192016642840088,-83.77812135849525)">
      <path
         id="path5030"
         d="m 346.1315485123581,83.56455865175985 c -0.156098164913,0.31963045265924 -0.7467527621098,0.50029311329824 -0.5699146546408,0.92240332399474 0.2549266020229,0.2844317927715 0.3056879690861,0.64265113101196 0.4309859081424,0.98594072948137 0.4434856022496,1.04074360183006 1.3444171105842,1.86332230538153 1.5596440993273,3.00387894299222 0.1644041994407,0.45600462964998 0.7195904912637,0.74804182457579 0.6601455694976,1.28346493850431 0.00284533182,0.44834315591727 -0.5306012765648,0.75907477980844 -0.9167119169365,0.51965709598039 -0.6069274792312,-0.25485325359706 -1.0309018062531,-0.80544374328453 -1.6401197088469,-1.05682233303844 -0.733883731096,-0.47267380023419 -1.6978197323263,-0.59391280983442 -2.2695458633621,-1.30448798637447 -0.2349526999514,-0.32915241132977 -0.3351627883004,-0.76033487132571 -0.6894889942678,-0.99622161722496 -0.6191941947985,-0.50756102996037 -1.5020687084958,-0.68690900022925 -1.9503779436406,-1.39590947411689 -0.1733964757675,-0.31517625676982 -0.5965936248097,-0.79802366076565 -0.9601391574635,-0.45253374012647 -0.1182102578818,0.22156003870751 -0.3620002182358,0.54991018137902 -0.5690947059024,0.21037021250271 -0.169680749194,-0.14587622429724 -0.3732140042994,-0.73121710817239 -0.6178112612303,-0.43799115869659 -0.1045189440663,0.37441493791445 -0.2023631024887,0.77367191190089 -0.068868591084,1.15512317794844 0.090689921758,0.34793342824062 0.2544529485761,0.69138027897105 0.2248344725269,1.05878111922671 -0.061691215488,0.2110084712759 -0.6402645803259,0.0614904960857 -0.2973535465059,0.34307955542192 0.2682412348859,0.28261455126085 -0.4656492068407,0.62470177578419 -0.031389222831,0.87507198552433 0.2248740564703,-0.0899524248377 0.556388250822,-0.49746572032794 0.6881997615707,-0.0509547063799 0.099922717508,0.32585589345628 0.1625804090282,0.66396652052285 0.3257924658793,0.96802171237613 0.3559466694749,0.7635834807447 0.8975571393852,1.42143117596126 1.4732353621453,2.02919436182377 0.827444432723,0.51086224568975 1.0949251277154,1.5908799126405 1.9686272257294,2.04681253006879 0.2699765819795,0.42156469363438 0.052447027659,1.03036176985141 -0.4033272969904,1.2186206223394 -0.4094933808008,0.20834703402247 -0.9913809283674,0.0509452680861 -1.1714006646526,-0.39117839842852 -0.3675259609112,-0.63617589588914 -1.1019672921492,-0.88210265925636 -1.7593960516688,-1.09967744639377 -0.3617124352173,-0.1226466570283 -0.7030837431262,-0.29943027109894 -1.0122852102671,-0.52238339733215 -0.3560270449869,-0.18442537622694 -0.7696346982596,-0.13180115716264 -1.1537442351207,-0.10268758867042 0.1111205558555,-0.5087796029607 -0.2113771952942,-1.1033227555929 -0.752108997183,-1.17827655118539 -0.3689498226144,-0.1310036541324 -0.7590757022426,0.17273206688897 -1.1047802625556,0.007287095131 -0.3099512070961,-0.21615600862843 0.020227904668,-0.70053531628443 -0.3519415758949,-0.86390997960082 -0.2745928196394,-0.1167054085073 -0.1440355677325,-0.69321099451703 -0.5666574313234,-0.50259184975394 -0.2353612278088,0.0994206406111 -0.6674128695585,0.6014707704866 -0.7624428840666,0.0979094066403 -0.054802083419,-0.36000421197447 -0.5785278995988,-0.0909186765916 -0.2619471119847,0.14096667436225 0.2876235627763,0.19574597965757 0.1780128908324,0.82413474144046 -0.2043975181662,0.48703445272713 -0.097541965325,-0.13172432540739 -0.5469316194123,-0.42847583854693 -0.4150671644703,-0.0625815585797 0.2276877368403,0.30610336094206 0.2156449394211,0.78487536080334 -0.1976756835339,0.92077612809365 -0.3442989374642,0.0563752829121 -0.4919932032159,0.36986711282286 -0.2874446311088,0.656192537924 0.3474974591345,0.86152655026682 1.0763975801793,1.49673278933983 1.8383018372264,1.99180566691126 0.2362430342251,0.74722190179425 0.9627850791862,1.14421716845587 1.5659139830171,1.56324550152121 0.5494033613612,0.42924929759998 1.0613829114229,0.90411762738006 1.6059636923852,1.33969131242381 0.7512799516695,0.63831578333746 1.5165226966872,1.26186727514154 2.3290545915274,1.82106025079024 0.7154408655565,0.54267957712426 1.3270293667407,1.20933849208001 1.8741236208264,1.9176519375265 1.2383886270386,1.2328343087269 2.6552453173474,2.2682857256533 3.9054978257582,3.4882695306234 2.011622262861,1.7108655662615 4.1994952408773,3.2356844190679 5.9748688505905,5.2071995986986 1.008646861742,0.5742383981419 1.7740245359337,1.4796340367571 2.7606128915056,2.0856595622453 1.7966867246158,1.6770334008538 3.5440252444662,3.4095094641088 5.4265891022619,4.992002681311 4.040223389222,3.5348320557646 7.8010646840295,7.3727919045258 11.4827222751978,11.2752513948539 2.9165215892554,3.0610009286354 5.6397024041031,6.299657624493 8.5617630120012,9.3555409334345 3.4607916085866,3.7603488440746 7.0910850604608,7.3600353915899 10.5630243946077,11.109960159818 5.6767218955155,6.0509397426034 11.2043835525032,12.2414012941045 16.9656901021344,18.2129118646758 2.7801106796555,3.0301100479761 5.6696916438356,5.9569474887377 8.564263404581,8.8770123634489 4.6634106236792,4.8159623792278 9.3612264715074,9.6372897296535 14.6514183418415,13.7761639478046 2.0899981099416,1.6921394165686 4.1599971177318,3.4118014571427 6.3236937472931,5.0097308170786 2.7860609396255,2.3784425173931 5.8573723044307,4.3858280118159 8.8504821041187,6.4876715900034 3.0269314535819,2.0950891036573 6.1132095481154,4.1124266389329 9.3395955295037,5.8891498305066 2.2775071741465,1.3166637794638 4.5224305455828,2.7553465920924 7.0416836486826,3.5734004554536 0.8478185704976,0.1057904532717 1.5099879981149,0.8323872288415 2.3894619200539,0.7949296471294 0.3690406663204,0.00529866724 0.7176235031114,-0.2789863338454 0.7044171836053,-0.6640627234456 0.00989710375,-0.5685560904412 -0.4374589408316,-0.9908556858109 -0.7631777558543,-1.4071356354293 -0.2639684406504,-0.3080928068747 -0.5047541719667,-0.6434232976395 -0.6449300252022,-1.0266824402394 -1.0472993468921,-1.901983875892 -2.3305271566522,-3.6713761199004 -3.8037448206777,-5.2659044198984 -3.0954559699712,-3.5156460728863 -6.3109829844773,-6.94419381736 -9.0383116686958,-10.7629330507851 -1.8711391139399,-2.4652283756945 -3.4611021186918,-5.1259013128479 -5.2395884545908,-7.6558034946172 -1.8412888210161,-2.5932544334491 -3.8789819172351,-5.0436698954741 -6.0513834222395,-7.3654112373634 -3.1569608069372,-3.538326325196 -6.3555354642855,-7.0423100808239 -9.3833758789323,-10.6929947493796 -3.0399163431943,-3.8761042122888 -5.7130456986384,-8.0323327701878 -8.902572741647,-11.7923316205742 -3.2586349139735,-4.1556347037232 -7.0061464923215,-7.8918298919536 -10.3908617416466,-11.9405109704795 -2.7249027048203,-2.9747876099477 -5.1887040881094,-6.1728260387085 -7.7007284388132,-9.3254300648833 -2.1444968410595,-2.6010024184584 -4.099057910224,-5.3517389182047 -6.2388128424058,-7.9565166597481 -4.6359749790346,-6.0422786514858 -9.5591469416004,-11.8655193071258 -14.7697679419183,-17.4202813479119 -2.7767197549839,-2.9308873783333 -5.6948681603209,-5.7472851028909 -8.9172445199043,-8.18823507327193 -2.8803333713164,-2.12534207072089 -6.067266847621,-3.79673959546612 -8.9209584605024,-5.96036176805164 -1.9447514449815,-0.89688912535958 -3.5938398197529,-2.30511831283181 -5.5063222021197,-3.26137730376378 -1.83943094715,-0.9770456206501 -3.7555743776172,-1.79952863298861 -5.6040672348815,-2.75858863918488 -0.7185570388567,-0.53816764994798 -1.2196001557293,-1.38910278147209 -2.1081417478882,-1.6800495829131 -0.7528223845057,-0.17244305198065 -1.4516710845783,-0.51949079635504 -2.1472915926688,-0.84600246410373 -0.6363937113049,-0.3165820118536 -1.2506074855756,-0.68047946841847 -1.8205313374901,-1.10598739054862 -0.3458822026311,-0.16558333474687 -0.736605161176,-0.18835302220194 -1.1133618097608,-0.20408722682761 z"
         style="fill:#000000" />
      <path
         id="path4932"
         d="m 454.1933786533094,83.3423383929574 c -0.4919428270904,0.1562716817219 -1.0689151439123,-0.0814006427174 -1.5168440379392,0.22815251635755 -0.341991517804,0.22012749076883 -0.041766682154,0.56113115183257 -0.064228371423,0.86603431554214 0.06883093762,0.40428661964029 -0.3997763110301,0.48265806607037 -0.6458084307515,0.24981324084763 -0.3139286085109,-0.19616853462844 -0.4614267517614,0.20838192121553 -0.2133413803946,0.38824921643548 -0.138429567768,0.45223789078115 -0.6719860935368,0.17903064903389 -0.807989617829,-0.13112365054873 -0.2139364832019,0.18702524480608 -0.3201002703851,0.50401155311914 -0.5987779473611,0.60837256694849 -0.3760234415195,-0.10576419956662 -0.1419056615174,-0.63110590229097 -0.385389261057,-0.87467110925424 -0.151903590954,-0.28767099903328 -0.55787533828,-0.46701341364223 -0.8307176273734,-0.22952513810844 -0.3887709159202,0.25668780366738 -0.2647399255313,0.80113393174338 -0.5479842043836,1.12461152828931 -0.2744145496864,0.23669728625103 -0.6993732852016,0.0995990370818 -0.9145311629993,-0.15454712292356 -0.1923481935364,-0.21772208119454 -0.5320156364891,-0.56453892278093 -0.8087961555693,-0.2554069257493 -0.2892572143474,0.27960633508104 -0.6038458776201,0.54904611404349 -0.7852690045807,0.91884368367157 -0.1912124018938,0.24720082780348 -0.2647465000638,0.86105014699842 -0.3337702131171,0.94445086457871 -0.096269379271,-0.32137765733141 -0.4868608090092,-0.27638184945499 -0.6941925041657,-0.0995900723355 -0.2217220273037,0.20965215483092 -0.4547978336797,0.29228361614673 -0.7538888155751,0.23298773031991 -0.6767638895611,0.05939764409 -1.157009892604,0.60655083967298 -1.5858231020037,1.07719891957116 -0.2251517264677,0.26028997152586 -0.4503585329676,0.53952100361975 -0.7897610343444,0.65379874278233 -0.4267924108181,0.16908578112758 -0.8859508301713,0.28235896020405 -1.2501610978659,0.57603507868673 -0.8341142768668,0.51122059936067 -1.5618097702861,1.24232919957261 -2.5365560752973,1.48599806515912 -0.536029281469,0.16857877176432 -0.9809533898433,0.53474915591671 -1.3415946351496,0.95482631630975 -1.551409844827,1.43068640092612 -3.4848347102698,2.32609842233325 -5.2823066707487,3.39431635407774 -2.7744115565015,1.52584823443306 -5.5958865675849,2.99828414661457 -8.1441494232909,4.89176791392215 -4.6686702181604,3.3037420151082 -9.0772672902153,6.9527770802758 -13.6159586033211,10.4286491525348 -8.0327062772364,6.3478997777099 -16.0170713479632,12.8093340650295 -23.2001326511938,20.1245242937047 -2.8363047699075,2.9589528832587 -5.6037331342313,5.9829582750483 -8.3936569937102,8.9852871565187 -6.5620395491216,7.497835962612 -11.9680692556697,15.908502951257 -17.1030377272564,24.4210337411892 -1.6617848585707,2.7243888256702 -3.2590310860471,5.4875501688189 -4.8020378478278,8.2808356637522 -1.7344787829093,3.135856787867 -3.4278980773759,6.294487791627 -5.1016285863238,9.463021011044 -3.1465467067909,6.3432437582372 -6.2819239925639,12.7041899879955 -9.937726093578,18.7745623971663 -1.7514897411628,2.9689199863997 -3.6028916097928,5.8777038705237 -5.4110350424437,8.8115964913895 -0.3324603597845,0.7158523313703 0.3248912885683,1.5893410321516 1.0847254794582,1.5864164850976 0.8261594711573,-0.03611235588 1.4822364093707,-0.5961064652458 2.1649029103509,-0.9945066257601 1.0652632456309,-0.7521926063306 2.119035318366,-1.5211656755576 3.2031676963669,-2.2460542294624 6.6401141379517,-4.7686933015187 12.4023275827039,-10.6402702235059 17.7100019276473,-16.829003497923 1.0601463812716,-1.2532395335099 2.1211552933507,-2.5060523971259 3.2314253263505,-3.7155610541044 2.640523192135,-2.908557442917 5.3721541275523,-5.7423778455614 7.7984000810011,-8.8371451165733 3.2039646128687,-3.9565462568662 6.3571284702377,-7.9561838541889 9.6874993444733,-11.8082956769383 3.6059618303527,-4.2944627189132 7.2788097230936,-8.5568256831905 11.4195115103326,-12.3506605493661 9.4684495667901,-8.9462359314909 20.0373969722455,-16.6210128170726 30.7624033411779,-23.9750841569147 3.613472720947,-2.4698304466716 7.2652826869555,-4.8941073693053 10.7081423551579,-7.601737255826 1.5424240907424,-1.2015548482568 3.0176579513812,-2.485453805767 4.5279712861911,-3.7264131623626 4.1065175789866,-3.4331747855779 8.1271297026157,-6.9970793293563 11.6934320261905,-10.998536855656 1.1464084231368,-1.0988531808813 2.4311639934905,-2.053524740104 3.4974736384451,-3.2347263796591 0.7140146210441,-0.8552508017982 1.1825650806045,-1.9210093807489 2.0746623514303,-2.6211068156446 0.6000634220977,-0.1340558134069 0.9455128228077,-0.6990384107035 1.1880443350123,-1.2164844460026 0.1574887905876,-0.3147549069174 0.2962291344278,-0.6461298944175 0.5084062210136,-0.92748958227278 0.2609616845369,-0.26296215228908 0.756487217103,-0.15296788804132 0.9393055394577,-0.50949605108337 0.071559936703,-0.29548649214861 -0.051310897591,-0.67897789772194 0.2554872769304,-0.88602864945598 0.2270722883531,-0.21873082793162 0.57903417409,-0.22252278739531 0.8196843509369,-0.39275121153818 0.570637954756,-0.61745234727225 0.9467922691923,-1.4032752274983 1.6066122661753,-1.93982355721151 0.4032790651423,-0.08834798448 0.6163249911629,-0.50513875809192 0.6119935268596,-0.89124039849469 -0.00884146672,-0.22143431957545 -0.060977436903,-0.69616142804692 0.304847678035,-0.48624735556494 0.4710145663277,0.26071947282331 0.2601069479251,-0.49482680889662 -0.00574898654,-0.59690814412666 -0.3542114105178,-0.27329019316666 -0.9290976495838,-0.35516279201059 -1.0560092961072,-0.84985857237109 -0.1332556678545,-0.51948886597205 -0.4288243373738,-0.99056541635727 -0.7917595142306,-1.38143959190873 -0.3449724550775,0.17944301502611 -0.5937786136534,-0.27339540603596 -0.8293976636921,-0.30077330085241 -0.4027850768852,0.15146896481444 -0.8612217127533,0.24141144204386 -1.1722523426553,0.56035313464119 -0.4126097747692,-0.0384157709759 -0.4294123522999,0.44046197749907 -0.3497071176778,0.72457528279955 0.08802920198,0.29843600064694 0.024809574674,0.77151381267974 -0.3746140688914,0.53735900933044 -0.4798953206228,-0.0523597877394 -0.8904494865763,0.27371889324425 -1.183435314192,0.61738786558429 -0.3902886873906,0.35861258425709 -1.0342346388987,0.46109171842413 -1.2342318634077,1.00547822282738 -0.1568738540295,0.28681385763066 0.7411791687563,0.55911586329832 0.1380578245822,0.69303976319776 -0.3186483884918,0.0727688142049 -0.5853594965741,0.38706463280873 -0.9358764414265,0.27080369816292 -0.3159767524946,-5.4647587335e-4 -0.4233930465274,0.37534317666189 -0.5787063384761,0.59294219735233 -0.1836386466928,0.33709420215739 -0.5495958610217,0.0924173572262 -0.8309521022483,0.12614053980451 -0.3273399801643,0.001984890402 -0.7674829995777,-0.002520696716 -0.9213912744104,-0.35393993103547 -0.1068613811438,-0.16410699486714 0.039022985168,-0.7618340100464 -0.2513933866342,-0.38627544142997 -0.3513414497377,0.21353599880946 -0.4956739930431,-0.31743662431168 -0.5941877409493,-0.55667941365417 -0.046849760907,-0.3265173495852 -0.4335225032546,-0.57117879401923 -0.6334228796678,-0.20458221644179 -0.2160601709041,0.26045825164546 0.071603738287,0.55337080313463 0.1778484260703,0.79436823736829 0.1039357610234,0.37750594304731 -0.4679235215059,0.17654490018806 -0.6294326655325,0.40519040147292 -0.4685710139127,0.26347705481332 -1.0092918972525,0.63242037667742 -1.5680235944334,0.41616401620749 -0.3308351573418,0.0359563936635 -0.6415909961356,0.34353499428647 -0.9793704750947,0.45735651477271 -0.3409355017619,0.17775316096956 -0.7299336878002,0.21527225080057 -1.0711158697395,0.38852999722492 -0.4358129811287,0.18861612228547 -0.9035687421152,0.28655227679639 -1.3662431323979,0.37482327286749 -0.5011221308965,0.19774245138987 -0.9968562052647,0.62112646708957 -1.5682887095228,0.45598113846505 -0.3883930418408,-0.14339478113358 -0.4401249155569,-0.65513206996144 -0.2712174645542,-0.98507010668784 0.2207066540337,-0.52823943524365 0.8020237665469,-0.7188975076344 1.2928918353426,-0.90743749233377 0.381963721372,-0.0846346743453 0.4934801523128,-0.51785172675564 0.8388956873287,-0.63260651836889 0.3286335844603,-0.13460080359829 0.7583564999972,-0.11205197919782 0.9965389188851,-0.41028378880364 0.2085729820101,-0.29282124084962 -0.2634111072005,-0.61194073915176 -0.011847873605,-0.88090299274505 0.2859552086399,-0.23116567943798 0.7743691180633,-0.17604839880468 0.9988141439535,0.11814832646202 0.3207385198742,0.2370068725637 0.5346010847051,-0.26159533845946 0.7019728850143,-0.46433705065509 0.2179593511147,-0.31194542072984 0.5496186722492,-0.5094740482898 0.8201781844285,-0.7728282719916 0.4426136989307,-0.37471061435633 1.0084741893294,-0.64762834703896 1.6003476056584,-0.58785938355227 0.3170470760716,-0.0939033482561 0.3389623840696,-0.49141789577476 0.617167069769,-0.62963281029556 0.087445595887,-0.27859726808953 0.2443613876321,-0.67759043514842 0.6154366488901,-0.536075919136 0.5954577235482,-0.1776379018598 1.0566961742696,-0.73194238253913 1.1064176776405,-1.35312438843509 0.133559881271,-0.3335953629755 0.4846952378667,-0.62531694575523 0.3792723896973,-1.0188772414441 -0.1601122964486,-0.30623428284112 0.291136759144,-0.45437517313802 0.5016598985441,-0.570666375025 0.3347406743754,-0.11548710136192 0.4568581985118,-0.44893580521145 0.5067747138731,-0.76635474230909 0.197542683407,-0.56467937786381 0.5886492650578,-1.03067125077925 0.9796316794035,-1.4722810808462 0.05045988602,-0.42180308585232 -0.6864398097307,-0.191610489353 -0.6073369804272,-0.56739936044318 0.1306235910009,-0.33918401504438 0.5433326967258,-0.19107247791588 0.815321144099,-0.18296042661071 0.4417212848566,0.0384446086954 0.058367792705,-0.44546103378302 -0.1752273456564,-0.47661552935988 -0.3565586479653,-0.15504997347182 -0.030564372911,-0.41385018751046 0.2171024166137,-0.3915375708241 0.3279912735642,-0.0641090322008 0.3872399433134,-0.4649017808579 0.2492858519266,-0.72007959707777 -0.134876942701,-0.31714084429802 -0.4197873979611,-0.52805814180311 -0.6360670338619,-0.78643692304156 -0.1088053799667,-0.11129197371396 -0.2200771691915,-0.22016861807239 -0.3273636758107,-0.33294423589692 z"
         style="fill:#000000" />
    </g>
    <g
       id="g5592"
       transform="translate(3.179855387957275,-42.76090532362537)">
      <path
         id="path5556"
         d="m 505.4521986606459,42.54312493051345 c -0.2907687983562,0.45657184511667 -0.9631551782955,0.65572820712746 -0.3290167388148,1.19280746214038 0.2312333989291,1.39742431856146 1.4970663313422,2.3837286687934 1.7390676445573,3.68203668170835 0.2030628393624,0.53261156923259 1.0357184380541,0.97701786368123 0.4869870568289,1.75227026562064 -0.92907453034,0.46362679796993 -1.9374746826413,-0.99231832699909 -2.9022570221342,-1.26025473191634 -0.4613791590755,-0.30085796688654 -0.825444641626,-0.72503843585428 -1.252416859622,-0.44858328541045 -0.4808630107167,-0.80569074612926 -1.0065224455724,-1.96683081414998 -2.1183963175605,-2.12831303634176 -0.6083949075226,-0.33911069823776 -1.3811649733889,-2.15490910711901 -1.9225803304543,-0.92447660816292 -0.5015469465766,0.39360872157078 -0.8761543345103,-1.47855919409784 -1.0185397418976,-0.3065216240278 -0.3139133036502,0.62908657792822 0.4053965876003,1.96438492622014 0.084204159972,2.03807628180229 -0.8167530747932,-0.11451387486752 0.3028942291534,0.41953097392291 -0.2522509550117,0.6382910298637 -0.047851461613,0.51489361451732 0.1508871616221,0.69720026522036 0.3681770128276,0.24808555018943 0.6888151214896,0.2686526677293 0.3579763234026,1.48649464742931 1.1381790882143,1.87450069333714 0.3185692967755,0.92415155376392 1.1488283154138,1.37137413853518 1.7132723662847,2.08824205090822 0.4476064123969,0.61796335784603 0.8798572971052,1.03201974535525 1.2997443510801,1.53461409032196 0.1206270118658,1.27931088644047 -1.2667088006638,1.27231186029072 -1.7942408363288,0.36740556928465 -0.7868707780711,-0.96513261011532 -1.9781798490493,-0.76335777846537 -2.815118448004,-1.54966891238827 -0.3251109307712,-0.45530021049796 -0.9821165945457,0.64456446863484 -0.9561280736964,-0.32414235816144 0.2364701158501,-1.50203275386135 -2.2896387335661,-0.10713338630773 -2.0039787092985,-1.60155313653486 -0.3720703557607,-0.75383127718785 -0.9238267561725,-0.67049669498111 -1.1842761001706,-0.12855151105203 -0.2019787266831,-0.31561443648365 -0.7395165522017,-1.09241413569125 -0.4425400503389,-0.1905650238078 0.4669418869656,0.89167420247589 -0.4066725455149,0.40046109132814 -0.6309528931724,0.19225408605029 0.060185691381,0.34082022531271 0.326532755212,1.49075480752343 -0.6041224408985,1.22248814735065 0.1758394072736,1.0386022065338 0.9310306540693,1.95288412559594 1.8386023783272,2.37751689369508 0.3921059769964,1.11329708337354 1.3670475861401,1.40327549631126 2.1208544871574,2.13982953328065 0.7947300151654,0.63343583116449 1.5383257585514,1.30710146373866 2.3253239792147,1.95653733559794 1.0530078052782,0.76385932834776 2.0928318901584,1.54625502015814 2.8495601486962,2.62859532449286 1.238225504569,1.28638923958755 2.6896491794826,2.3507348499924 3.9548089821328,3.61158017497386 1.9782124168756,1.66642700073983 4.0963742117666,3.20802634991534 5.8324894607671,5.12724410333667 0.8905851760643,0.41174816779279 1.4223127966974,1.25052502818673 2.2506378574326,1.73934794664649 1.0616658636295,0.63512943453121 1.7610144307972,1.70283483317002 2.7108593600784,2.48249995247592 2.9925139088315,2.77469505070036 6.1458275430009,5.37544077845456 9.0194407464096,8.27747493088687 2.3543546296564,2.3014293711777 4.6472114389775,4.66633311129702 6.9485774598253,7.01974054731468 2.7217658290183,2.90045098441908 5.443874787682,5.80091450635562 8.2898702914979,8.58120574648477 2.5903537589736,2.58536534908116 5.3077949854239,5.04130924030834 7.943155863647,7.58106223139683 5.4757217632765,5.157709537822 11.0251622537147,10.2372057978893 16.6462661846357,15.2355210387513 3.661454695523,3.4951070495103 6.8677259185473,7.4249024326103 10.2198799282171,11.2079286826956 4.3550834881746,5.2110391566463 8.427395645143,10.6781963743389 13.250254315314,15.4795927807562 1.6702844160137,1.8098860156462 3.4123419887693,3.5537141680488 5.1766548354982,5.2680996246787 2.3031688835009,2.5597290657888 5.018500828672,4.6967728730908 7.5882616349952,6.9752074167581 3.0988692414198,2.6915067926268 6.4154601218497,5.1152851299353 9.8445270748857,7.3665524410171 2.1528349282428,1.4722009597498 4.392976140402,2.8988211339999 6.8931912294522,3.688310175491 0.7592246267748,0.8594499213001 3.0766885514859,0.8668856814676 2.1456623520492,-0.7057455263652 -0.8771165853018,-1.0078705033424 -1.2732716546813,-2.2985405904976 -1.9901737761843,-3.4139259874614 -1.5835123325161,-2.8151059129479 -3.8212372235745,-5.169329613951 -5.7417783065216,-7.7469128112781 -3.199587847108,-4.0265178916749 -5.9397085372134,-8.4033267083509 -8.3287560777244,-12.9531920006292 -1.7791564261726,-3.4745097568225 -3.8376536152987,-6.8131639233008 -6.1984690953293,-9.9240494693619 -2.8317684863345,-3.8985292914787 -5.6765587792478,-7.7893531482249 -8.4501357496604,-11.7289377588392 -2.5949914605669,-3.8990243792377 -4.841476653884,-8.0293170450965 -7.6963994603267,-11.7532246033816 -2.3155113292946,-3.234637191044 -5.0027401932091,-6.1723515056127 -7.7241841743648,-9.0652792575614 -1.9582912262497,-2.1624054190105 -4.0291347626202,-4.21411172900621 -6.1092948173632,-6.25806550026447 -3.2181446116058,-3.21094109437503 -6.4920703926024,-6.37848960349625 -9.4001207960871,-9.87994236692822 -2.32193117233,-2.57807756398175 -4.5661124364815,-5.2235488287683 -6.8395795180126,-7.84347112157391 -4.2194803548053,-4.76624268385544 -8.4697968669985,-9.51392957029117 -12.9785695294788,-14.01010715368109 -3.1116564549495,-3.04811794153187 -6.3673979279898,-6.00213323103344 -10.1292002899696,-8.23583573759729 -1.8773164570645,-1.11284868984174 -3.6489587589067,-2.39640795206963 -5.4446196811084,-3.62851733293089 -1.8570124596132,-0.88015908193045 -3.409241218577,-2.2618900091422 -5.257525176452,-3.16001131186097 -1.7918989867836,-0.95268185849605 -3.655329444598,-1.77928812113867 -5.4371853051152,-2.74141543095346 -0.6714568995565,-0.8449263522782 -1.4308291518328,-1.57969174341916 -2.5420123596235,-1.76142803254114 -1.2057056294495,-0.46215975642383 -2.3384696835101,-1.10471111468992 -3.3777701554803,-1.86897843514555 -0.2647159867268,-0.0525307019143 -0.5758709017382,0.18113972232295 -0.8059204637928,-0.0332487231494 z"
         style="fill:#000000" />
      <path
         id="path5458"
         d="m 610.4267573145308,42.17423806925467 c -0.6034423860583,0.23241102091476 -1.2596341703104,0.0571153970009 -1.8821459519213,0.16680336895208 -0.1936404306458,0.42260421684033 0.3083095771825,0.77380429954562 0.2324208038251,1.18613086216515 -0.3350827198418,0.44721713865748 -0.9087943753675,-0.25543711969144 -1.2342953637077,0.0689390255807 0.2036022035278,0.2342571982554 0.1092722039291,0.8922400529259 -0.2973899856813,0.58365706819275 -0.1391670611895,-0.27008234513773 -0.4455788267667,-0.57428781337089 -0.62123112825,-0.1406150374897 -0.060698162563,0.44572682473422 -0.6737043506207,0.69450724832139 -0.7565930877307,0.12399853257067 -0.062957385729,-0.36415923212956 -0.065276007939,-0.89104285445697 -0.5102011149827,-0.99997861993157 -0.4297945421788,-0.0669727193454 -0.7717713964164,0.31297859085209 -0.8191756874627,0.71445723952634 -0.050735758595,0.38797644313409 -0.2793917251937,0.9066591903251 -0.7632089957866,0.78712827382837 -0.4851185664544,-0.0285095662195 -0.6773086357489,-0.75375026198212 -1.174891965822,-0.60640131772391 -0.4818418681333,0.22425442669607 -0.8507259474411,0.65432129375646 -1.1119022306949,1.10740087213767 -0.067835560758,0.3165072068822 -0.054842709039,0.9581202555644 -0.5703811484485,0.80659420848817 -0.2674555471041,-0.38604647328047 -0.8126028128428,-0.0563942804815 -0.5587252326791,0.34567758111162 -0.4721142178621,-0.24880946854308 -1.0495963037721,-0.0829480038967 -1.4384807288909,0.25790635449201 -0.3454620457111,0.27018215215687 -0.7087031428074,0.52752621942217 -0.9665651856808,0.8940631724252 -0.2832543988219,0.32977764818509 -0.6048044280642,0.73869756037291 -1.0803838955578,0.73156758955049 -0.8531096530718,0.19850530955204 -1.4078305559997,0.94711565675864 -2.1468171514605,1.36326236764647 -0.5476434820456,0.37152707983887 -1.1666797905375,0.61569449567311 -1.7477473413228,0.92174642833703 -1.0695811375117,0.70427525190263 -1.8026946137354,1.83158603357306 -2.9571622362763,2.42119256354431 -2.2812570743615,1.49435052580327 -4.6204625258157,2.89737716068008 -6.9248796994309,4.35484195599981 -4.8003036283975,3.1493576656325 -9.1258064251141,6.94288320976748 -13.5222575844075,10.61720709939852 -8.0772395186252,6.84460519319453 -16.0106609612202,13.88452182945852 -23.3582521618614,21.51583514318355 -3.3925761979441,3.54036733690255 -6.5989514939896,7.26412816100223 -9.5029266238746,11.2172711159452 -4.8864178310706,6.4628035688587 -9.9540413300308,12.7857396547071 -14.9193608177121,19.1875969572805 -5.0723109292725,6.5391044296395 -10.0996966188723,13.1216823590183 -14.7585888479973,19.9644796169153 -1.5967625885498,2.3355965618383 -3.0228606778792,4.780941768525 -4.3859563848803,7.258481855633 -2.1951388449364,3.9856588105464 -4.2452771018038,8.050144165375 -6.2117855410086,12.1528852169356 -1.471758426037,3.1441751535375 -2.8554509162775,6.3348481425761 -4.0201041295967,9.6061118413572 -0.1391572496269,0.5960505371738 0.2249087011025,1.3936684139911 0.8974754714504,1.4200539927003 0.646367884791,-0.079845549535 1.033528028686,-0.689724532448 1.4867680487221,-1.0898356964508 8.781630891691,-8.2330314785458 17.7401243111807,-16.2779574123203 26.8707470543957,-24.1225143456265 3.6506971056067,-3.1788759972297 7.2107177064629,-6.461348783104 10.6796694519569,-9.8375095510211 4.5709154729841,-4.3433660821521 9.0782569832304,-8.7718002808401 13.1540921878543,-13.5900572056159 8.7371153148283,-9.7418804915756 18.4624187212123,-18.5652808471127 28.7488705576678,-26.64177354266198 3.9195426872725,-3.10137414362649 7.9144999549101,-6.10551149612819 11.8802304681899,-9.14698101922271 4.2554402584575,-3.33154433731863 8.2398414323576,-6.98730978084559 12.2452719236858,-10.61035775031358 2.6913651248061,-2.45272952795325 5.3135924660785,-4.98499632821175 7.7727859195812,-7.67199831404969 0.7108956663034,-0.77241373153535 1.490501508991,-1.4784451920695 2.3370626751987,-2.09879078309268 0.5746468161883,-0.53936245205102 1.145492699084,-1.08232606042276 1.721822459842,-1.62014175802783 0.4920030270683,-0.45030192407933 0.8293703585351,-1.02573586387535 1.1972183918501,-1.57266556257638 0.4591669451801,-0.6388073966858 1.071879970286,-1.16397034690079 1.7759713996783,-1.51143125841017 0.5813408584189,-0.46878473512794 0.8495005577397,-1.190127938505 1.1431787804671,-1.85179066859839 0.3761688031917,-0.25004237549581 1.079219230446,-0.0726948493849 1.2075042749602,-0.62910698629506 -0.076721816152,-0.33654543789785 -0.1218296437405,-0.91858618276034 0.4023295666755,-0.8353570563651 0.5122108658004,0.14763875363875 0.8592271889688,-0.33182697452693 1.0774071556094,-0.72060827409727 0.4630650691538,-0.76839066127911 1.1641411243402,-1.40970723491697 2.0021553715908,-1.74424996321957 0.3211591354328,-0.32004620791576 -0.1120880381868,-0.79255652164158 0.0874727726,-1.12763928476531 0.2524236745594,-0.12585192350008 0.5964153667943,0.49407775102668 0.673491977063,-0.0692686054144 0.088389911538,-0.54709105534712 -0.5410075606943,-0.57332776286254 -0.9180536702818,-0.60916566992529 -0.458282712304,-0.21170650934517 -0.6188685199653,-0.74652441349206 -0.7806155064485,-1.18625131677031 -0.4833997064421,0.008303169671 -0.4011484510987,-0.61768856783243 -0.6293155895197,-0.88996374542458 -0.3217764732178,-0.15330973957844 -1.0876388994702,0.14028756477466 -0.969024350376,-0.47949551526564 -0.3056685946693,0.37782223397435 -0.8198724195398,0.20962069991151 -1.1903343199717,0.28398438607356 -0.1350409428209,0.27353977729209 -0.2711347005079,0.56908975798871 -0.5963278914586,0.3611028036755 -0.4343428063936,0.27956908791774 -0.07132137757,0.82539178041066 -0.1245349870892,1.2264502994055 -0.1475656756129,0.42949342434106 -0.6446153382783,-0.25120982837851 -0.9823546372072,-0.0979356653074 -0.4678885979397,0.0490902169801 -0.3374171440629,0.75593616178431 -0.7897570128022,0.85440905268274 -0.3294203472561,0.13270544950877 -0.916096103429,0.0520155132012 -0.9983082282506,0.48771886191973 -0.1751899312636,0.19317828065111 -0.6601943662299,0.46846758671731 -0.1677576664663,0.65817202730571 0.3393819679499,0.16844876402604 0.264001157169,0.77134180576433 -0.1834637130099,0.53348919488068 -0.3780027479587,0.0321282229066 -0.5912500957668,0.45551411409263 -1.0186211418669,0.25573523180347 -0.3687911007587,0.10341219473969 -0.3283104976632,0.8112844461223 -0.8072560393979,0.75853763861158 -0.3584175190442,-0.39777796370463 -0.8362862172165,0.007011939461 -1.2148718049491,-0.0701776700875 -0.2553089820186,-0.2330369976115 -0.5161884838386,-0.39845845263911 -0.5191329429134,-0.79925478278716 -0.1596637985414,-0.0947342410978 -0.6706660911559,0.28601724645639 -0.7246000827597,-0.19774679567424 -0.059235400469,-0.3979600942058 -0.4513113331484,-1.1211116193818 -0.8567650328173,-0.55723285666106 -0.3333818135145,0.37942898810323 0.651822794287,1.04891144455437 -0.1008727391435,1.12174251246588 -0.5148174329996,0.0621977284933 -0.8665511310588,0.44346357066805 -1.2395246718661,0.72404056960309 -0.3665537060867,0.0794142814022 -0.8825995281372,-0.50610177608721 -1.0576998148383,0.0670402038902 -0.5095111192063,0.27537405051664 -1.1963683809198,0.36559674440997 -1.7446014281603,0.66098762516962 -0.655153699812,0.35306904382294 -1.4136393631993,0.40480286341158 -2.0983796884426,0.67672963886172 -0.3722275794164,0.35413235586149 -1.0939783458316,0.60705047066034 -1.4725108170154,0.1341739847707 -0.2864231075073,-0.37958243680194 -0.043279107902,-0.83925680424593 0.2526833907666,-1.1231253471922 0.2226650479438,-0.42463721713272 0.6745223556934,-0.5331289348104 1.113762587324,-0.5882669341704 0.512324265933,-0.038750096437 0.4662843166536,-0.67061407940401 0.8854798272646,-0.83581447314146 0.338970679927,-0.14799064568657 0.9483996028349,0.0737965446206 1.0834364559912,-0.38232910503217 0.011674253964,-0.32717007516616 -0.5003793466858,-0.79710770714359 -0.00555160101,-0.98608456084552 0.4505981906771,-0.16668452615457 0.7368597184934,0.40048785934698 1.1715442881415,0.32986954471525 0.2885819969598,-0.37794504276843 0.6368649200043,-0.73505863564881 1.0034498329694,-1.06118494989613 0.4566915326295,-0.42574926403067 0.9834293715669,-0.89454201375088 1.6510895892934,-0.86654996239885 0.4242522037788,0.0566097277664 0.7738086579982,-0.22824175711924 0.8578593730631,-0.56370835118799 0.3883034249551,0.0390554955786 0.1850546241706,-0.80712214828283 0.7245509591936,-0.61666183978737 0.4002529417752,-0.15693179290914 0.8075406594071,-0.37937200913661 1.0791898855132,-0.71948945383036 0.2169472281082,-0.39193087949277 0.2084142229231,-0.86341292671176 0.5062406777356,-1.22474383727651 0.1910565195058,-0.38248698879095 -0.1865249940073,-0.99246894112028 0.49979755631,-0.97036028044214 0.5494468730675,0.0337732277763 0.5536554673706,-0.54007332931288 0.6039075382381,-0.92309016334182 0.2820676168351,-0.40724859439363 0.6058024744034,-0.80098027936173 0.8650948001548,-1.20739997259037 0.2994442155184,-0.0811072733538 0.43504517726,-0.48907710660184 -0.00418266591,-0.43395434188901 -0.5727191666274,0.10469793645353 -0.5484722609953,-0.80414511702277 0.024447139835,-0.58966356037428 0.2625119847021,0.21710447443397 0.9702323680168,-0.0287755546696 0.5019495645547,-0.30851629699531 -0.4495778777823,-0.0192690379726 -0.7152940196986,-0.44805608882769 -0.1113664186073,-0.4649674022818 0.3945904547711,-0.13209773425512 0.3779709152169,-0.62765326242024 0.1685259941096,-0.91253888677723 -0.1544685333977,-0.37258538616421 -0.4014570162716,-0.67458624339546 -0.8087550537065,-0.7802939505778 -0.09520608489,-0.0521146801815 -0.1818736226611,-0.12588465604221 -0.2310064339091,-0.22443359083131 z"
         style="fill:#000000" />
    </g>
  </g>
</svg>
