<?xml version="1.0" encoding="UTF-8" standalone="no"?>
<svg
   xmlns:dc="http://purl.org/dc/elements/1.1/"
   xmlns:cc="http://creativecommons.org/ns#"
   xmlns:rdf="http://www.w3.org/1999/02/22-rdf-syntax-ns#"
   xmlns:svg="http://www.w3.org/2000/svg"
   xmlns="http://www.w3.org/2000/svg"
   xmlns:xlink="http://www.w3.org/1999/xlink"
   xmlns:sodipodi="http://sodipodi.sourceforge.net/DTD/sodipodi-0.dtd"
   xmlns:inkscape="http://www.inkscape.org/namespaces/inkscape"
   version="1.0"
   width="300"
   height="300"
   id="svg2"
   inkscape:version="0.47 r22583"
   sodipodi:docname="document_icon.svg">
  <metadata
     id="metadata66">
    <rdf:RDF>
      <cc:Work
         rdf:about="">
        <dc:format>image/svg+xml</dc:format>
        <dc:type
           rdf:resource="http://purl.org/dc/dcmitype/StillImage" />
        <dc:title></dc:title>
        <cc:license
           rdf:resource="" />
      </cc:Work>
    </rdf:RDF>
  </metadata>
  <sodipodi:namedview
     pagecolor="#ffffff"
     bordercolor="#666666"
     borderopacity="1"
     objecttolerance="10"
     gridtolerance="10"
     guidetolerance="10"
     inkscape:pageopacity="0"
     inkscape:pageshadow="2"
     inkscape:window-width="1429"
     inkscape:window-height="821"
     id="namedview64"
     showgrid="false"
     inkscape:zoom="1.7209509"
     inkscape:cx="83.337795"
     inkscape:cy="194.39803"
     inkscape:window-x="0"
     inkscape:window-y="26"
     inkscape:window-maximized="1"
     inkscape:current-layer="svg2" />
  <defs
     id="defs1">
    <linearGradient
       x1="277.49091"
       y1="794.37476"
       x2="286.71185"
       y2="776.55743"
       id="lg1"
       xlink:href="#lg2"
       gradientUnits="userSpaceOnUse"
       gradientTransform="matrix(0.747426,0,0,1.337925,0.25,132)"
       spreadMethod="pad">
      <stop
         id="stop3044"
         style="stop-color:#d83c36;stop-opacity:1"
         offset="0" />
      <stop
         id="stop3046"
         style="stop-color:#620101;stop-opacity:1"
         offset="1" />
    </linearGradient>
    <linearGradient
       x1="277.49091"
       y1="794.37476"
       x2="286.71185"
       y2="776.55743"
       id="lg2"
       xlink:href="#G3"
       gradientUnits="userSpaceOnUse"
       gradientTransform="matrix(0.747426,0,0,1.337925,0.25,132)"
       spreadMethod="pad">
      <stop
         id="stop2978"
         style="stop-color:#ff0b00;stop-opacity:1"
         offset="0" />
      <stop
         id="stop2980"
         style="stop-color:#a40000;stop-opacity:1"
         offset="1" />
    </linearGradient>
    <linearGradient
       x1="296.1369"
       y1="768.0376"
       x2="230.01286"
       y2="833.85461"
       id="G0"
       gradientUnits="userSpaceOnUse"
       gradientTransform="matrix(0.880685,0,0,1.13548,0,280)">
      <stop
         id="stop9"
         style="stop-color:#282323;stop-opacity:1"
         offset="0" />
      <stop
         id="stop11"
         style="stop-color:#655e5e;stop-opacity:1"
         offset="1" />
    </linearGradient>
    <linearGradient
       x1="433.22763"
       y1="408.78055"
       x2="504.90137"
       y2="408.78055"
       id="G1"
       gradientUnits="userSpaceOnUse"
       gradientTransform="matrix(0.448461,0,0,2.229848,0,280)">
      <stop
         id="stop14"
         style="stop-color:#e4e4d2;stop-opacity:0.6"
         offset="0" />
      <stop
         id="stop16"
         style="stop-color:#ffffff;stop-opacity:0"
         offset="1" />
    </linearGradient>
    <linearGradient
       x1="121.73791"
       y1="1726.7207"
       x2="116.15244"
       y2="1719.0306"
       id="G2"
       gradientUnits="userSpaceOnUse"
       gradientTransform="matrix(1.958518,0,0,0.51059,0,280)">
      <stop
         id="stop19"
         style="stop-color:#ebebe2;stop-opacity:1"
         offset="0" />
      <stop
         id="stop21"
         style="stop-color:#bcbc8e;stop-opacity:1"
         offset="1" />
    </linearGradient>
    <linearGradient
       x1="241.40817"
       y1="998.6955"
       x2="243.66159"
       y2="1051.3652"
       id="G3"
       xlink:href="#G1"
       gradientTransform="matrix(0.991342,0,0,1.008734,0,140)" />
    <radialGradient
       cx="169.88104"
       cy="1794.8795"
       r="44.525272"
       fx="169.88104"
       fy="1794.8795"
       id="G7"
       gradientUnits="userSpaceOnUse"
       gradientTransform="scale(1.459845,0.685004)">
      <stop
         id="stop32"
         style="stop-color:#000000;stop-opacity:0.39215687"
         offset="0" />
      <stop
         id="stop34"
         style="stop-color:#000000;stop-opacity:0"
         offset="1" />
    </radialGradient>
    <linearGradient
       x1="205.99301"
       y1="1137.6046"
       x2="211.85287"
       y2="1082.9424"
       id="G9"
       gradientUnits="userSpaceOnUse"
       gradientTransform="matrix(1.175962,0,0,0.850368,0,280)"
       spreadMethod="reflect">
      <stop
         id="stop37"
         style="stop-color:#c15507;stop-opacity:1"
         offset="0" />
      <stop
         id="stop39"
         style="stop-color:#753504;stop-opacity:1"
         offset="1" />
    </linearGradient>
    <linearGradient
       inkscape:collect="always"
       xlink:href="#G0"
       id="linearGradient3683"
       gradientUnits="userSpaceOnUse"
       gradientTransform="matrix(0.880685,0,0,1.13548,0,280)"
       x1="296.1369"
       y1="768.0376"
       x2="230.01286"
       y2="833.85461" />
    <linearGradient
       inkscape:collect="always"
       xlink:href="#G1"
       id="linearGradient3685"
       gradientUnits="userSpaceOnUse"
       gradientTransform="matrix(0.448461,0,0,2.229848,0,280)"
       x1="433.22763"
       y1="408.78055"
       x2="504.90137"
       y2="408.78055" />
    <linearGradient
       inkscape:collect="always"
       xlink:href="#G1"
       id="linearGradient3689"
       gradientTransform="matrix(0.991342,0,0,1.008734,0,140)"
       spreadMethod="pad"
       x1="241.40817"
       y1="998.6955"
       x2="243.66159"
       y2="1051.3652" />
    <linearGradient
       inkscape:collect="always"
       xlink:href="#lg1"
       id="linearGradient3691"
       gradientUnits="userSpaceOnUse"
       gradientTransform="matrix(0.747426,0,0,1.337925,0.25,132)"
       spreadMethod="pad"
       x1="277.49091"
       y1="794.37476"
       x2="286.71185"
       y2="776.55743" />
    <linearGradient
       inkscape:collect="always"
       xlink:href="#G1"
       id="linearGradient3693"
       gradientTransform="matrix(0.834058,0,0,1.198958,0,132)"
       x1="250.28658"
       y1="868.11609"
       x2="252.10155"
       y2="885.64746" />
    <radialGradient
       inkscape:collect="always"
       xlink:href="#G7"
       id="radialGradient3697"
       gradientUnits="userSpaceOnUse"
       gradientTransform="scale(1.459845,0.685004)"
       cx="169.88104"
       cy="1794.8795"
       fx="169.88104"
       fy="1794.8795"
       r="44.525272" />
    <linearGradient
       inkscape:collect="always"
       xlink:href="#G9"
       id="linearGradient3699"
       gradientUnits="userSpaceOnUse"
       gradientTransform="matrix(1.175962,0,0,0.850368,0,280)"
       spreadMethod="reflect"
       x1="205.99301"
       y1="1137.6046"
       x2="211.85287"
       y2="1082.9424" />
    <linearGradient
       inkscape:collect="always"
       xlink:href="#G1"
       id="linearGradient3703"
       gradientTransform="matrix(1.615039,0,0,0.61918,0,140)"
       x1="143.15617"
       y1="1700.754"
       x2="164.79172"
       y2="1776.3087" />
    <linearGradient
       inkscape:collect="always"
       xlink:href="#lg1"
       id="linearGradient3705"
       gradientTransform="matrix(1.362229,0,0,0.734091,0,140)"
       x1="191.07132"
       y1="1478.1887"
       x2="191.07132"
       y2="1444.9415" />
    <linearGradient
       inkscape:collect="always"
       xlink:href="#G1"
       id="linearGradient3709"
       gradientTransform="matrix(1.514725,0,0,0.660186,0,140)"
       spreadMethod="pad"
       x1="175.50798"
       y1="1674.547"
       x2="167.51932"
       y2="1666.985" />
    <linearGradient
       inkscape:collect="always"
       xlink:href="#G1"
       id="linearGradient3711"
       gradientTransform="matrix(1.514725,0,0,0.660186,0,140)"
       x1="140.18318"
       y1="1674.4733"
       x2="147.68718"
       y2="1669.3435" />
    <linearGradient
       inkscape:collect="always"
       xlink:href="#lg1"
       id="linearGradient3713"
       gradientTransform="matrix(0.907281,0,0,1.102195,0,140)"
       x1="223.66299"
       y1="1000.8626"
       x2="227.17216"
       y2="985.21222" />
    <linearGradient
       inkscape:collect="always"
       xlink:href="#G1"
       id="linearGradient3715"
       gradientTransform="matrix(0.965146,0,0,1.036113,0,140)"
       x1="211.96373"
       y1="1048.0908"
       x2="212.00743"
       y2="1068.4087" />
    <linearGradient
       inkscape:collect="always"
       xlink:href="#G1"
       id="linearGradient3717"
       gradientTransform="matrix(1.362229,0,0,0.734091,0,140)"
       x1="196.64761"
       y1="1437.2679"
       x2="182.96735"
       y2="1493.8745" />
    <linearGradient
       inkscape:collect="always"
       xlink:href="#G1"
       id="linearGradient3719"
       gradientUnits="userSpaceOnUse"
       spreadMethod="pad"
       x1="122.26408"
       y1="36.736969"
       x2="116.04919"
       y2="10.674049" />
    <linearGradient
       inkscape:collect="always"
       xlink:href="#G1"
       id="linearGradient3754"
       gradientTransform="matrix(1.937868,0,0,0.516031,0,140)"
       x1="126.13629"
       y1="1985.5347"
       x2="115.16805"
       y2="1976.4353" />
    <linearGradient
       inkscape:collect="always"
       xlink:href="#G2"
       id="linearGradient3758"
       gradientTransform="matrix(1.514725,0,0,0.660186,0,140)"
       x1="140.25737"
       y1="1696.1609"
       x2="157.33363"
       y2="1634.5474" />
    <linearGradient
       inkscape:collect="always"
       xlink:href="#G2"
       id="linearGradient4256"
       gradientUnits="userSpaceOnUse"
       gradientTransform="matrix(1.958518,0,0,0.51059,0,280)"
       x1="121.73791"
       y1="1726.7207"
       x2="116.15244"
       y2="1719.0306" />
    <linearGradient
       inkscape:collect="always"
       xlink:href="#G2"
       id="linearGradient4258"
       gradientTransform="matrix(1.514725,0,0,0.660186,0,280)"
       x1="131.91928"
       y1="1448.4674"
       x2="189.13556"
       y2="1448.4674" />
  </defs>
  <g
     id="g4285"
     inkscape:export-xdpi="90"
     inkscape:export-ydpi="90">
    <rect
       ry="1.4605166"
       rx="2.0419936"
       y="-1.3708495e-07"
       x="-3.7109376e-06"
       height="300"
       width="300"
       id="rect2874"
       style="fill:none;fill-opacity:1;stroke:none" />
    <g
       transform="translate(12.27232,17.785897)"
       id="g3658">
      <g
         transform="translate(-5.5494448,-22.868107)"
         id="g52">
        <g
           transform="matrix(2.396429,0,0,2.396429,-440.3068,-2735.148)"
           id="g54">
          <path
             d="m 202.4685,1162.0158 46.06299,-10.63 14.17323,3.5433 -3.54331,56.6929 -42.51968,17.7166 -14.17323,-10.6299 0,-56.6929 z"
             id="p0"
             style="fill:url(#linearGradient3683);fill-opacity:1;stroke:#000000;stroke-width:1" />
          <path
             d="m 203.92858,1163.2143 -1e-5,54.2857 12.85714,9.6429 1e-5,-58.9286 c -6.58381,-0.076 -11.39985,-3.1566 -12.85714,-5 z"
             id="path57"
             style="opacity:0.75;fill:url(#linearGradient3685)" />
          <path
             d="m 207.05602,1162.3463 c 1.91331,1.9404 5.06405,3.7039 9.45223,3.8765 l 42.76907,-11.6889 -9.21597,-2.217 -43.00533,10.0294 z"
             id="p2"
             style="fill:url(#linearGradient4256);stroke:#000000;stroke-opacity:0.19607843" />
          <path
             d="m 218.75,1168.25 41.25,-11.5 -0.75,24.5 c -1.41667,26.8333 -31.08333,-18.8333 -40.5,16.25 l 0,-29.25 z"
             id="path60"
             style="opacity:0.74600004;fill:url(#linearGradient3689);fill-opacity:1" />
          <path
             d="m 202.65931,1172.2908 c 3.53554,3.4177 8.66207,5.9514 13.96537,5.8336 l -0.17678,20.1526 c -4.65512,-0.4714 -11.07801,-2.8873 -13.61181,-6.7175 l -0.17678,-19.2687 z"
             id="p4"
             style="fill:url(#linearGradient3691);fill-opacity:1;stroke:#000000;stroke-opacity:0.39215686" />
          <path
             d="m 203.85355,1175.1036 c 2.16667,2.5 7.56817,4.7045 11.23484,4.4545 0,3.6666 0.6594,8.9082 -1.13128,10.1135 -3.39432,2.2845 -5.29029,-10.3055 -9.95711,-3.9216 -0.16667,-3.4167 0.0202,-7.2297 -0.14645,-10.6464 z"
             id="path63"
             style="fill:url(#linearGradient3693)" />
          <use
             id="p6"
             style="fill:url(#linearGradient3754);stroke-opacity:0.19607843"
             x="0"
             y="0"
             width="308.90109"
             height="274.26697"
             xlink:href="#p2" />
        </g>
        <g
           transform="matrix(2.396429,0,0,2.396429,-440.3068,-2735.148)"
           id="g66">
          <path
             d="m 313,1229.5 c 0,16.8447 -29.10149,30.5 -65,30.5 -35.89851,0 -65,-13.6553 -65,-30.5 0,-16.8447 29.10149,-30.5 65,-30.5 35.89851,0 65,13.6553 65,30.5 z"
             transform="matrix(0.576778,-0.124421,-0.02666374,0.738383,147.4919,344.5136)"
             id="p7"
             style="fill:url(#radialGradient3697)" />
        </g>
        <g
           transform="matrix(2.396429,0,0,2.396429,-440.3068,-2735.148)"
           id="g71">
          <path
             d="m 199.42519,1218.2087 53.14961,-21.2599 35.43307,21.2599 0,14.1732 -53.14961,28.3465 -35.43307,-28.3465 0,-14.1732 z"
             id="p9"
             style="fill:url(#linearGradient3699);fill-opacity:1;stroke:#000000;stroke-width:1" />
          <path
             d="m 287.32142,1219.6429 -52.5,26.7857 -34.64285,-25.5357 -0.35715,8.9285 35.17858,28.0357 52,-27.5 0.32142,-10.7142 z"
             id="p10"
             style="fill:url(#linearGradient4258);stroke:#000000;stroke-width:2;stroke-opacity:0.19607843" />
          <path
             d="m 203.64675,1218.8282 48.79038,-20.1526 32.17335,19.799 c -6.24611,3.182 -15.54114,7.6317 -21.2132,8.4852 -25.43527,3.8277 -17.32413,-13.0813 -59.75053,-8.1316 z"
             id="path75"
             style="opacity:0.5;fill:url(#linearGradient3703)" />
          <path
             d="m 252.25,1200.75 -15.5,6.5 28.25,17.25 15,-6.5 -27.75,-17.25 z"
             id="p12"
             style="fill:url(#linearGradient3705);fill-opacity:1;stroke:#000000;stroke-opacity:0.39215686" />
          <use
             id="p13"
             style="fill:url(#linearGradient3758);stroke:#000000;stroke-opacity:0.19607843"
             x="0"
             y="0"
             width="308.90109"
             height="274.26697"
             xlink:href="#p10" />
          <path
             d="m 287.32142,1219.6429 -52.5,26.7857 0.17858,11.4285 52,-27.5 0.32142,-10.7142 z"
             id="path79"
             style="fill:url(#linearGradient3709);fill-opacity:1" />
          <path
             d="m 234.82142,1246.4286 -34.64285,-25.5357 -0.35715,8.9285 35.17858,28.0357 -0.17858,-11.4285 z"
             id="path81"
             style="fill:url(#linearGradient3711)" />
          <path
             d="m 203.4845,1227.1864 c 3.35687,2.7751 6.71374,5.5503 10.07061,8.3254 -4.22441,1.4055 -4.94882,16.8111 -14.17323,17.7166 1.5689,-5.2717 1.6378,-8.2933 1.7067,-12.315 -2.43111,1.4783 -6.36221,2.7067 -8.79331,1.685 6.72974,-4.8873 7.45949,-14.5247 11.18923,-15.412 z"
             id="p16"
             style="fill:url(#linearGradient3713);fill-opacity:1;stroke:#000000" />
          <path
             d="m 202.49142,1229.5508 c -0.94292,0.6387 -2.08557,4.4212 -3.44086,7.1318 3.18198,-3.1231 4.34944,7.152 7.42462,6.8942 1.82177,-0.1527 2.91988,-4.3316 3.84619,-6.8084 0.85768,-2.2933 -6.36252,-8.2116 -7.82995,-7.2176 z"
             id="path84"
             style="fill:url(#linearGradient3715)" />
          <path
             d="m 252.125,1202.25 -12.5,5.125 c 11.95833,-3.6667 18.75443,5.9428 25.625,11.5 4.75781,3.8483 14.83333,-0.9583 7.875,-4.125 l -21,-12.5 z"
             id="path86"
             style="fill:url(#linearGradient3717)" />
        </g>
      </g>
      <path
         d="M 50.338806,27.464273 C 84.307231,19.542398 118.80149,11.497889 153.35516,3.4395269 c 8.0992,1.928039 12.20048,2.9146461 22.12828,5.3028857 C 141.37331,18.064803 107.33023,27.539061 72.602125,36.736968 69.123686,36.21744 62.587848,36.01836 57.881914,32.949728 53.17598,29.881095 52.874567,29.489268 50.338806,27.464273 z"
         id="rect3089"
         style="fill:url(#linearGradient3719);fill-opacity:1;fill-rule:nonzero;stroke:none" />
    </g>
  </g>
</svg>
