<?xml version="1.0" encoding="UTF-8" standalone="no"?>
<!-- Created with Inkscape (http://www.inkscape.org/) -->

<svg
   xmlns:dc="http://purl.org/dc/elements/1.1/"
   xmlns:cc="http://creativecommons.org/ns#"
   xmlns:rdf="http://www.w3.org/1999/02/22-rdf-syntax-ns#"
   xmlns:svg="http://www.w3.org/2000/svg"
   xmlns="http://www.w3.org/2000/svg"
   xmlns:sodipodi="http://sodipodi.sourceforge.net/DTD/sodipodi-0.dtd"
   xmlns:inkscape="http://www.inkscape.org/namespaces/inkscape"
   width="252"
   height="348"
   id="svg2"
   version="1.1"
   inkscape:version="0.47 r22583"
   sodipodi:docname="st_oxyd_questmark.svg">
  <defs
     id="defs4" />
  <sodipodi:namedview
     id="base"
     pagecolor="#ffffff"
     bordercolor="#666666"
     borderopacity="1.0"
     inkscape:pageopacity="0.0"
     inkscape:pageshadow="2"
     inkscape:zoom="0.4949747466999988"
     inkscape:cx="272.9000811689282"
     inkscape:cy="-70.11082412898753"
     inkscape:document-units="px"
     inkscape:current-layer="layer1"
     showgrid="false"
     inkscape:window-width="1269"
     inkscape:window-height="947"
     inkscape:window-x="0"
     inkscape:window-y="25"
     inkscape:window-maximized="1" />
  <metadata
     id="metadata7">
    <rdf:RDF>
      <cc:Work
         rdf:about="">
        <dc:format>image/svg+xml</dc:format>
        <dc:type
           rdf:resource="http://purl.org/dc/dcmitype/StillImage" />
        <dc:title></dc:title>
        <cc:license
           rdf:resource="http://creativecommons.org/licenses/publicdomain/" />
        <dc:creator>
          <cc:Agent>
            <dc:title>R. Bourquin</dc:title>
          </cc:Agent>
        </dc:creator>
      </cc:Work>
      <cc:License
         rdf:about="http://creativecommons.org/licenses/publicdomain/">
        <cc:permits
           rdf:resource="http://creativecommons.org/ns#Reproduction" />
        <cc:permits
           rdf:resource="http://creativecommons.org/ns#Distribution" />
        <cc:permits
           rdf:resource="http://creativecommons.org/ns#DerivativeWorks" />
      </cc:License>
    </rdf:RDF>
  </metadata>
  <g
     inkscape:label="Ebene 1"
     inkscape:groupmode="layer"
     id="layer1"
     transform="translate(-235.7144927978516,-298.2491760253906)">
    <g
       id="g3638">
      <g
         id="text3598-3-99"
         style="font-size:248.7791900635px;font-style:normal;font-variant:normal;font-weight:bold;font-stretch:normal;text-align:start;line-height:125%;writing-mode:lr-tb;text-anchor:start;fill:#c8c8c8;fill-opacity:1;stroke:none;font-family:Liberation Sans;-inkscape-font-specification:Liberation Sans Bold"
         transform="matrix(0.9983225760980275,0,0,1.001680242380703,-2.093549286996676e-5,-1.931676979438634e-5)">
        <path
           id="path3636"
           style="line-height:125%;fill:#c8c8c8;font-family:Liberation Sans;-inkscape-font-specification:Liberation Sans Bold"
           d="m 425.4281359091401,433.6785527318716 c -1.376302844e-4,5.3449846991981 -0.7289821848282,10.0419829395915 -2.1865358501673,14.0910088121891 -1.3768418245534,4.0492469556669 -3.2394445750542,7.6934697283859 -5.5878138393163,10.9326792508364 -2.3486289761314,3.1584260118786 -5.0210590094587,6.0333128659125 -8.01729811728,8.6246691867709 -2.9964827850945,2.5105555609482 -6.073826459835,4.8995460452863 -9.2320402562619,7.1669786199927 -3.1584390096194,2.2676002091217 -6.2762740485013,4.4946252368945 -9.35351447016,6.6810817644 -2.9964641995396,2.1866107997573 -5.7093855970083,4.535109919954 -8.1387723311782,7.0455044060946 -2.4295769627888,2.4295519391008 -4.4136538057135,5.1424733365694 -5.9522364810109,8.1387723311782 -1.5387609994433,2.9154401700243 -2.389079646411,6.3167147578955 -2.5509584918618,10.2038339674473 l -32.4336151108146,0 c 0.4048594639139,-6.8834801560098 1.8625485730015,-12.7547279565016 4.3730717003346,-17.6137610152364 2.5913887544735,-4.9398770634653 5.7092237933555,-9.2319616624454 9.3535144701602,-12.8762666732073 3.6441548686332,-3.6441405346762 7.5313258262003,-6.883449665982 11.6615245342255,-9.7179371118546 4.1300395768048,-2.9152862621953 7.9362278060893,-5.8711558445118 11.4185761064291,-8.8676176145672 3.5631490602503,-2.9962601228604 6.4785272784255,-6.2355692541662 8.7461434006691,-9.7179371118546 2.3483993898671,-3.5631295029017 3.5226489499654,-7.7742313735994 3.5227522030473,-12.633318245411 -1.032530819e-4,-7.1263569140198 -2.3486023732785,-12.7546565296637 -7.0455044060946,-16.8849157318472 -4.6161117196881,-4.1299790826463 -11.2162040747239,-6.1950386538538 -19.8002968654038,-6.1951849088073 -4.1301955496953,1.462549537e-4 -7.9363837789798,0.6480080812147 -11.4185761064291,1.9435874223709 -3.4823223048582,1.2148852356058 -6.5596659795987,2.9560138936828 -9.2320402562618,5.2233911976219 -2.5915030617088,2.267655479889 -4.7375453611988,5.0210682414988 -6.4381333366036,8.2602465450763 -1.7006866124664,3.2394399590342 -2.7939534442821,6.8026800034706 -3.2798037752509,10.68973082304 l -34.6201509609819,-1.4576905667781 c 0.9717813208155,-7.2073412214674 2.9558581637405,-13.9693990330683 5.9522364810109,-20.2861937209964 3.077326303928,-6.3165109241644 7.2479368104842,-11.8233364473843 12.5118440315128,-16.5204930901528 5.2638474557153,-4.6968398380185 11.7019743541856,-8.4220453390202 19.314400009811,-11.1756276786326 7.6933099897947,-2.7532431836075 16.6014101008856,-4.1299495644123 26.7243270576,-4.1301232725382 9.7178514725338,1.737081259e-4 18.3830033987768,1.1339319040829 25.9954817742108,3.4012779891491 7.6122745417032,2.267686698762 14.0504014401736,5.5474871942091 19.314400009811,9.8394113257526 5.3447388353891,4.2112623381342 9.3938752495212,9.3536655840821 12.147421389818,15.4272251650691 2.8342621112059,6.0738496614098 4.251459856152,12.8763988371522 4.2515974864365,20.4076679348947 m -84.4245786592364,124.6325434595345 0,-32.798037752509 35.1060478165746,0 0,32.798037752509 -35.1060478165746,0" />
      </g>
      <rect
         ry="0"
         y="298.2491760253906"
         x="235.7144927978516"
         height="348"
         width="252"
         id="rect2832-4-7"
         style="opacity:0.989999988;fill:none;stroke:none" />
    </g>
  </g>
</svg>
