<?xml version="1.0" encoding="UTF-8" standalone="no"?>
<!-- Created with Inkscape (http://www.inkscape.org/) -->

<svg
   xmlns:dc="http://purl.org/dc/elements/1.1/"
   xmlns:cc="http://creativecommons.org/ns#"
   xmlns:rdf="http://www.w3.org/1999/02/22-rdf-syntax-ns#"
   xmlns:svg="http://www.w3.org/2000/svg"
   xmlns="http://www.w3.org/2000/svg"
   xmlns:sodipodi="http://sodipodi.sourceforge.net/DTD/sodipodi-0.dtd"
   xmlns:inkscape="http://www.inkscape.org/namespaces/inkscape"
   version="1.0"
   width="11000"
   height="4000"
   id="svg2"
   inkscape:version="0.47pre4 r22446"
   sodipodi:docname="yinyang_symbols.svg">
  <metadata
     id="metadata151">
    <rdf:RDF>
      <cc:Work
         rdf:about="">
        <dc:format>image/svg+xml</dc:format>
        <dc:type
           rdf:resource="http://purl.org/dc/dcmitype/StillImage" />
        <dc:title></dc:title>
        <cc:license
           rdf:resource="http://creativecommons.org/licenses/publicdomain/" />
      </cc:Work>
      <cc:License
         rdf:about="http://creativecommons.org/licenses/publicdomain/">
        <cc:permits
           rdf:resource="http://creativecommons.org/ns#Reproduction" />
        <cc:permits
           rdf:resource="http://creativecommons.org/ns#Distribution" />
        <cc:permits
           rdf:resource="http://creativecommons.org/ns#DerivativeWorks" />
      </cc:License>
    </rdf:RDF>
  </metadata>
  <sodipodi:namedview
     pagecolor="#ffffff"
     bordercolor="#666666"
     borderopacity="1"
     objecttolerance="10"
     gridtolerance="10"
     guidetolerance="10"
     inkscape:pageopacity="0"
     inkscape:pageshadow="2"
     inkscape:window-width="1429"
     inkscape:window-height="816"
     id="namedview149"
     showgrid="false"
     inkscape:zoom="0.056568542"
     inkscape:cx="-864.35438"
     inkscape:cy="1362.9171"
     inkscape:window-x="0"
     inkscape:window-y="26"
     inkscape:window-maximized="1"
     inkscape:current-layer="svg2" />
  <defs
     id="defs4" />
  <g
     id="layer1"
     transform="translate(4527.8567,1497.2102)">
    <g
       transform="matrix(0.7071068,0.7071068,-0.7071068,0.7071068,-2392.9517,-1322.9221)"
       id="g2540">
      <g
         id="g2542">
        <g
           transform="matrix(-1,0,0,-1,825,825)"
           id="g2544"
           style="fill:#000000;fill-opacity:1">
          <path
             d="M 425,25 C 204.2,25 25,204.2 25,425 25,645.8 204.2,825 425,825 314.6,825 225,735.4 225,625 225,514.6 314.6,425 425,425 535.4,425 625,335.4 625,225 625,114.6 535.4,25 425,25 z m 0,137.5 c 34.5,0 62.5,28 62.5,62.5 0,34.5 -28,62.5 -62.5,62.5 -34.5,0 -62.5,-28 -62.5,-62.5 0,-34.5 28,-62.5 62.5,-62.5 z"
             transform="matrix(-1,0,0,-1,825,825)"
             id="path2546"
             style="fill:#000000;fill-opacity:1;stroke:none" />
          <path
             d="m 450,200 a 50,50 0 1 1 -100,0 50,50 0 1 1 100,0 z"
             transform="matrix(1.25,0,0,1.25,-100,-50)"
             id="path2548"
             style="fill:#000000;fill-opacity:1;stroke:none" />
        </g>
        <g
           id="g2550">
          <path
             d="m 425,25 c 110.4,0 200,89.6 200,200 0,110.4 -89.6,200 -200,200 -110.4,0 -200,89.6 -200,200 0,110.4 89.6,200 200,200 C 645.8,825 825,645.8 825,425 825,204.2 645.8,25 425,25 z m 0,537.5 c 34.5,0 62.5,28 62.5,62.5 0,34.5 -28,62.5 -62.5,62.5 -34.5,0 -62.5,-28 -62.5,-62.5 0,-34.5 28,-62.5 62.5,-62.5 z"
             id="path2552"
             style="fill:#ffffff;fill-opacity:1;stroke:none" />
          <path
             d="m 450,200 a 50,50 0 1 1 -100,0 50,50 0 1 1 100,0 z"
             transform="matrix(1.25,0,0,-1.25,-75,475)"
             id="path2554"
             style="fill:#ffffff;fill-opacity:1;stroke:none" />
        </g>
      </g>
    </g>
    <g
       transform="matrix(0,1,-1,0,-606.4814,-1146.8814)"
       id="g2556">
      <g
         id="g2558">
        <g
           transform="matrix(-1,0,0,-1,825,825)"
           id="g2560"
           style="fill:#000000;fill-opacity:1">
          <path
             d="M 425,25 C 204.2,25 25,204.2 25,425 25,645.8 204.2,825 425,825 314.6,825 225,735.4 225,625 225,514.6 314.6,425 425,425 535.4,425 625,335.4 625,225 625,114.6 535.4,25 425,25 z m 0,137.5 c 34.5,0 62.5,28 62.5,62.5 0,34.5 -28,62.5 -62.5,62.5 -34.5,0 -62.5,-28 -62.5,-62.5 0,-34.5 28,-62.5 62.5,-62.5 z"
             transform="matrix(-1,0,0,-1,825,825)"
             id="path2562"
             style="fill:#000000;fill-opacity:1;stroke:none" />
          <path
             d="m 450,200 a 50,50 0 1 1 -100,0 50,50 0 1 1 100,0 z"
             transform="matrix(1.25,0,0,1.25,-100,-50)"
             id="path2564"
             style="fill:#000000;fill-opacity:1;stroke:none" />
        </g>
        <g
           id="g2566">
          <path
             d="m 425,25 c 110.4,0 200,89.6 200,200 0,110.4 -89.6,200 -200,200 -110.4,0 -200,89.6 -200,200 0,110.4 89.6,200 200,200 C 645.8,825 825,645.8 825,425 825,204.2 645.8,25 425,25 z m 0,537.5 c 34.5,0 62.5,28 62.5,62.5 0,34.5 -28,62.5 -62.5,62.5 -34.5,0 -62.5,-28 -62.5,-62.5 0,-34.5 28,-62.5 62.5,-62.5 z"
             id="path2568"
             style="fill:#ffffff;fill-opacity:1;stroke:none" />
          <path
             d="m 450,200 a 50,50 0 1 1 -100,0 50,50 0 1 1 100,0 z"
             transform="matrix(1.25,0,0,-1.25,-75,475)"
             id="path2570"
             style="fill:#ffffff;fill-opacity:1;stroke:none" />
        </g>
      </g>
    </g>
    <g
       transform="matrix(-0.7071068,0.7071068,-0.7071068,-0.7071068,931.02946,-721.88143)"
       id="g2572">
      <g
         id="g2574">
        <g
           transform="matrix(-1,0,0,-1,825,825)"
           id="g2576"
           style="fill:#000000;fill-opacity:1">
          <path
             d="M 425,25 C 204.2,25 25,204.2 25,425 25,645.8 204.2,825 425,825 314.6,825 225,735.4 225,625 225,514.6 314.6,425 425,425 535.4,425 625,335.4 625,225 625,114.6 535.4,25 425,25 z m 0,137.5 c 34.5,0 62.5,28 62.5,62.5 0,34.5 -28,62.5 -62.5,62.5 -34.5,0 -62.5,-28 -62.5,-62.5 0,-34.5 28,-62.5 62.5,-62.5 z"
             transform="matrix(-1,0,0,-1,825,825)"
             id="path2578"
             style="fill:#000000;fill-opacity:1;stroke:none" />
          <path
             d="m 450,200 a 50,50 0 1 1 -100,0 50,50 0 1 1 100,0 z"
             transform="matrix(1.25,0,0,1.25,-100,-50)"
             id="path2580"
             style="fill:#000000;fill-opacity:1;stroke:none" />
        </g>
        <g
           id="g2582">
          <path
             d="m 425,25 c 110.4,0 200,89.6 200,200 0,110.4 -89.6,200 -200,200 -110.4,0 -200,89.6 -200,200 0,110.4 89.6,200 200,200 C 645.8,825 825,645.8 825,425 825,204.2 645.8,25 425,25 z m 0,537.5 c 34.5,0 62.5,28 62.5,62.5 0,34.5 -28,62.5 -62.5,62.5 -34.5,0 -62.5,-28 -62.5,-62.5 0,-34.5 28,-62.5 62.5,-62.5 z"
             id="path2584"
             style="fill:#ffffff;fill-opacity:1;stroke:none" />
          <path
             d="m 450,200 a 50,50 0 1 1 -100,0 50,50 0 1 1 100,0 z"
             transform="matrix(1.25,0,0,-1.25,-75,475)"
             id="path2586"
             style="fill:#ffffff;fill-opacity:1;stroke:none" />
        </g>
      </g>
    </g>
    <g
       transform="translate(-4179.4215,-1146.8814)"
       id="g2604">
      <g
         id="g2606">
        <g
           transform="matrix(-1,0,0,-1,825,825)"
           id="g2608"
           style="fill:#000000;fill-opacity:1">
          <path
             d="M 425,25 C 204.2,25 25,204.2 25,425 25,645.8 204.2,825 425,825 314.6,825 225,735.4 225,625 225,514.6 314.6,425 425,425 535.4,425 625,335.4 625,225 625,114.6 535.4,25 425,25 z m 0,137.5 c 34.5,0 62.5,28 62.5,62.5 0,34.5 -28,62.5 -62.5,62.5 -34.5,0 -62.5,-28 -62.5,-62.5 0,-34.5 28,-62.5 62.5,-62.5 z"
             transform="matrix(-1,0,0,-1,825,825)"
             id="path2610"
             style="fill:#000000;fill-opacity:1;stroke:none" />
          <path
             d="m 450,200 a 50,50 0 1 1 -100,0 50,50 0 1 1 100,0 z"
             transform="matrix(1.25,0,0,1.25,-100,-50)"
             id="path2612"
             style="fill:#000000;fill-opacity:1;stroke:none" />
        </g>
        <g
           id="g2614">
          <path
             d="m 425,25 c 110.4,0 200,89.6 200,200 0,110.4 -89.6,200 -200,200 -110.4,0 -200,89.6 -200,200 0,110.4 89.6,200 200,200 C 645.8,825 825,645.8 825,425 825,204.2 645.8,25 425,25 z m 0,537.5 c 34.5,0 62.5,28 62.5,62.5 0,34.5 -28,62.5 -62.5,62.5 -34.5,0 -62.5,-28 -62.5,-62.5 0,-34.5 28,-62.5 62.5,-62.5 z"
             id="path2616"
             style="fill:#ffffff;fill-opacity:1;stroke:none" />
          <path
             d="m 450,200 a 50,50 0 1 1 -100,0 50,50 0 1 1 100,0 z"
             transform="matrix(1.25,0,0,-1.25,-75,475)"
             id="path2618"
             style="fill:#ffffff;fill-opacity:1;stroke:none" />
        </g>
      </g>
    </g>
    <g
       transform="translate(1266.4587,-1146.8814)"
       id="g2732">
      <g
         transform="matrix(-1,0,0,-1,850,850)"
         id="g2734">
        <g
           transform="matrix(-1,0,0,-1,825,825)"
           id="g2736"
           style="fill:#000000;fill-opacity:1">
          <path
             d="M 425,25 C 204.2,25 25,204.2 25,425 25,645.8 204.2,825 425,825 314.6,825 225,735.4 225,625 225,514.6 314.6,425 425,425 535.4,425 625,335.4 625,225 625,114.6 535.4,25 425,25 z m 0,137.5 c 34.5,0 62.5,28 62.5,62.5 0,34.5 -28,62.5 -62.5,62.5 -34.5,0 -62.5,-28 -62.5,-62.5 0,-34.5 28,-62.5 62.5,-62.5 z"
             transform="matrix(-1,0,0,-1,825,825)"
             id="path2738"
             style="fill:#000000;fill-opacity:1;stroke:none" />
          <path
             d="m 450,200 a 50,50 0 1 1 -100,0 50,50 0 1 1 100,0 z"
             transform="matrix(1.25,0,0,1.25,-100,-50)"
             id="path2740"
             style="fill:#000000;fill-opacity:1;stroke:none" />
        </g>
        <g
           id="g2742">
          <path
             d="m 425,25 c 110.4,0 200,89.6 200,200 0,110.4 -89.6,200 -200,200 -110.4,0 -200,89.6 -200,200 0,110.4 89.6,200 200,200 C 645.8,825 825,645.8 825,425 825,204.2 645.8,25 425,25 z m 0,537.5 c 34.5,0 62.5,28 62.5,62.5 0,34.5 -28,62.5 -62.5,62.5 -34.5,0 -62.5,-28 -62.5,-62.5 0,-34.5 28,-62.5 62.5,-62.5 z"
             id="path2744"
             style="fill:#ffffff;fill-opacity:1;stroke:none" />
          <path
             d="m 450,200 a 50,50 0 1 1 -100,0 50,50 0 1 1 100,0 z"
             transform="matrix(1.25,0,0,-1.25,-75,475)"
             id="path2746"
             style="fill:#ffffff;fill-opacity:1;stroke:none" />
        </g>
      </g>
    </g>
    <g
       transform="matrix(0.7071068,0.7071068,-0.7071068,0.7071068,3052.9291,-1322.9222)"
       id="g2780">
      <g
         transform="matrix(-1,0,0,-1,850,850)"
         id="g2782">
        <g
           transform="matrix(-1,0,0,-1,825,825)"
           id="g2784"
           style="fill:#000000;fill-opacity:1">
          <path
             d="M 425,25 C 204.2,25 25,204.2 25,425 25,645.8 204.2,825 425,825 314.6,825 225,735.4 225,625 225,514.6 314.6,425 425,425 535.4,425 625,335.4 625,225 625,114.6 535.4,25 425,25 z m 0,137.5 c 34.5,0 62.5,28 62.5,62.5 0,34.5 -28,62.5 -62.5,62.5 -34.5,0 -62.5,-28 -62.5,-62.5 0,-34.5 28,-62.5 62.5,-62.5 z"
             transform="matrix(-1,0,0,-1,825,825)"
             id="path2786"
             style="fill:#000000;fill-opacity:1;stroke:none" />
          <path
             d="m 450,200 a 50,50 0 1 1 -100,0 50,50 0 1 1 100,0 z"
             transform="matrix(1.25,0,0,1.25,-100,-50)"
             id="path2788"
             style="fill:#000000;fill-opacity:1;stroke:none" />
        </g>
        <g
           id="g2790">
          <path
             d="m 425,25 c 110.4,0 200,89.6 200,200 0,110.4 -89.6,200 -200,200 -110.4,0 -200,89.6 -200,200 0,110.4 89.6,200 200,200 C 645.8,825 825,645.8 825,425 825,204.2 645.8,25 425,25 z m 0,537.5 c 34.5,0 62.5,28 62.5,62.5 0,34.5 -28,62.5 -62.5,62.5 -34.5,0 -62.5,-28 -62.5,-62.5 0,-34.5 28,-62.5 62.5,-62.5 z"
             id="path2792"
             style="fill:#ffffff;fill-opacity:1;stroke:none" />
          <path
             d="m 450,200 a 50,50 0 1 1 -100,0 50,50 0 1 1 100,0 z"
             transform="matrix(1.25,0,0,-1.25,-75,475)"
             id="path2794"
             style="fill:#ffffff;fill-opacity:1;stroke:none" />
        </g>
      </g>
    </g>
    <g
       transform="matrix(0,1,-1,0,4839.3991,-1146.8814)"
       id="g2828">
      <g
         transform="matrix(-1,0,0,-1,850,850)"
         id="g2830">
        <g
           transform="matrix(-1,0,0,-1,825,825)"
           id="g2832"
           style="fill:#000000;fill-opacity:1">
          <path
             d="M 425,25 C 204.2,25 25,204.2 25,425 25,645.8 204.2,825 425,825 314.6,825 225,735.4 225,625 225,514.6 314.6,425 425,425 535.4,425 625,335.4 625,225 625,114.6 535.4,25 425,25 z m 0,137.5 c 34.5,0 62.5,28 62.5,62.5 0,34.5 -28,62.5 -62.5,62.5 -34.5,0 -62.5,-28 -62.5,-62.5 0,-34.5 28,-62.5 62.5,-62.5 z"
             transform="matrix(-1,0,0,-1,825,825)"
             id="path2834"
             style="fill:#000000;fill-opacity:1;stroke:none" />
          <path
             d="m 450,200 a 50,50 0 1 1 -100,0 50,50 0 1 1 100,0 z"
             transform="matrix(1.25,0,0,1.25,-100,-50)"
             id="path2836"
             style="fill:#000000;fill-opacity:1;stroke:none" />
        </g>
        <g
           id="g2838">
          <path
             d="m 425,25 c 110.4,0 200,89.6 200,200 0,110.4 -89.6,200 -200,200 -110.4,0 -200,89.6 -200,200 0,110.4 89.6,200 200,200 C 645.8,825 825,645.8 825,425 825,204.2 645.8,25 425,25 z m 0,537.5 c 34.5,0 62.5,28 62.5,62.5 0,34.5 -28,62.5 -62.5,62.5 -34.5,0 -62.5,-28 -62.5,-62.5 0,-34.5 28,-62.5 62.5,-62.5 z"
             id="path2840"
             style="fill:#ffffff;fill-opacity:1;stroke:none" />
          <path
             d="m 450,200 a 50,50 0 1 1 -100,0 50,50 0 1 1 100,0 z"
             transform="matrix(1.25,0,0,-1.25,-75,475)"
             id="path2842"
             style="fill:#ffffff;fill-opacity:1;stroke:none" />
        </g>
      </g>
    </g>
    <g
       transform="matrix(-0.7071068,0.7071068,-0.7071068,-0.7071068,6376.9094,-721.8814)"
       id="g2876">
      <g
         transform="matrix(-1,0,0,-1,850,850)"
         id="g2878">
        <g
           transform="matrix(-1,0,0,-1,825,825)"
           id="g2880"
           style="fill:#000000;fill-opacity:1">
          <path
             d="M 425,25 C 204.2,25 25,204.2 25,425 25,645.8 204.2,825 425,825 314.6,825 225,735.4 225,625 225,514.6 314.6,425 425,425 535.4,425 625,335.4 625,225 625,114.6 535.4,25 425,25 z m 0,137.5 c 34.5,0 62.5,28 62.5,62.5 0,34.5 -28,62.5 -62.5,62.5 -34.5,0 -62.5,-28 -62.5,-62.5 0,-34.5 28,-62.5 62.5,-62.5 z"
             transform="matrix(-1,0,0,-1,825,825)"
             id="path2882"
             style="fill:#000000;fill-opacity:1;stroke:none" />
          <path
             d="m 450,200 a 50,50 0 1 1 -100,0 50,50 0 1 1 100,0 z"
             transform="matrix(1.25,0,0,1.25,-100,-50)"
             id="path2884"
             style="fill:#000000;fill-opacity:1;stroke:none" />
        </g>
        <g
           id="g2886">
          <path
             d="m 425,25 c 110.4,0 200,89.6 200,200 0,110.4 -89.6,200 -200,200 -110.4,0 -200,89.6 -200,200 0,110.4 89.6,200 200,200 C 645.8,825 825,645.8 825,425 825,204.2 645.8,25 425,25 z m 0,537.5 c 34.5,0 62.5,28 62.5,62.5 0,34.5 -28,62.5 -62.5,62.5 -34.5,0 -62.5,-28 -62.5,-62.5 0,-34.5 28,-62.5 62.5,-62.5 z"
             id="path2888"
             style="fill:#ffffff;fill-opacity:1;stroke:none" />
          <path
             d="m 450,200 a 50,50 0 1 1 -100,0 50,50 0 1 1 100,0 z"
             transform="matrix(1.25,0,0,-1.25,-75,475)"
             id="path2890"
             style="fill:#ffffff;fill-opacity:1;stroke:none" />
        </g>
      </g>
    </g>
    <g
       transform="translate(-4179.4215,93.227713)"
       id="g2620">
      <g
         id="g2622">
        <g
           transform="matrix(-1,0,0,-1,825,825)"
           id="g2624"
           style="fill:#000000;fill-opacity:1">
          <path
             d="M 425,25 C 204.2,25 25,204.2 25,425 25,645.8 204.2,825 425,825 314.6,825 225,735.4 225,625 225,514.6 314.6,425 425,425 535.4,425 625,335.4 625,225 625,114.6 535.4,25 425,25 z m 0,137.5 c 34.5,0 62.5,28 62.5,62.5 0,34.5 -28,62.5 -62.5,62.5 -34.5,0 -62.5,-28 -62.5,-62.5 0,-34.5 28,-62.5 62.5,-62.5 z"
             transform="matrix(-1,0,0,-1,825,825)"
             id="path2626"
             style="fill:#000000;fill-opacity:1;stroke:none" />
          <path
             d="m 450,200 a 50,50 0 1 1 -100,0 50,50 0 1 1 100,0 z"
             transform="matrix(1.25,0,0,1.25,-100,-50)"
             id="path2628"
             style="fill:#000000;fill-opacity:1;stroke:none" />
        </g>
        <g
           id="g2630">
          <path
             d="m 425,25 c 110.4,0 200,89.6 200,200 0,110.4 -89.6,200 -200,200 -110.4,0 -200,89.6 -200,200 0,110.4 89.6,200 200,200 C 645.8,825 825,645.8 825,425 825,204.2 645.8,25 425,25 z m 0,537.5 c 34.5,0 62.5,28 62.5,62.5 0,34.5 -28,62.5 -62.5,62.5 -34.5,0 -62.5,-28 -62.5,-62.5 0,-34.5 28,-62.5 62.5,-62.5 z"
             id="path2632"
             style="fill:#ffffff;fill-opacity:1;stroke:none" />
          <path
             d="m 450,200 a 50,50 0 1 1 -100,0 50,50 0 1 1 100,0 z"
             transform="matrix(1.25,0,0,-1.25,-75,475)"
             id="path2634"
             style="fill:#ffffff;fill-opacity:1;stroke:none" />
        </g>
      </g>
    </g>
    <g
       transform="matrix(0.5,0.8660254,-0.8660254,0.5,-1793.3611,-62.333082)"
       id="g2636">
      <g
         id="g2638">
        <g
           transform="matrix(-1,0,0,-1,825,825)"
           id="g2640"
           style="fill:#000000;fill-opacity:1">
          <path
             d="M 425,25 C 204.2,25 25,204.2 25,425 25,645.8 204.2,825 425,825 314.6,825 225,735.4 225,625 225,514.6 314.6,425 425,425 535.4,425 625,335.4 625,225 625,114.6 535.4,25 425,25 z m 0,137.5 c 34.5,0 62.5,28 62.5,62.5 0,34.5 -28,62.5 -62.5,62.5 -34.5,0 -62.5,-28 -62.5,-62.5 0,-34.5 28,-62.5 62.5,-62.5 z"
             transform="matrix(-1,0,0,-1,825,825)"
             id="path2642"
             style="fill:#000000;fill-opacity:1;stroke:none" />
          <path
             d="m 450,200 a 50,50 0 1 1 -100,0 50,50 0 1 1 100,0 z"
             transform="matrix(1.25,0,0,1.25,-100,-50)"
             id="path2644"
             style="fill:#000000;fill-opacity:1;stroke:none" />
        </g>
        <g
           id="g2646">
          <path
             d="m 425,25 c 110.4,0 200,89.6 200,200 0,110.4 -89.6,200 -200,200 -110.4,0 -200,89.6 -200,200 0,110.4 89.6,200 200,200 C 645.8,825 825,645.8 825,425 825,204.2 645.8,25 425,25 z m 0,537.5 c 34.5,0 62.5,28 62.5,62.5 0,34.5 -28,62.5 -62.5,62.5 -34.5,0 -62.5,-28 -62.5,-62.5 0,-34.5 28,-62.5 62.5,-62.5 z"
             id="path2648"
             style="fill:#ffffff;fill-opacity:1;stroke:none" />
          <path
             d="m 450,200 a 50,50 0 1 1 -100,0 50,50 0 1 1 100,0 z"
             transform="matrix(1.25,0,0,-1.25,-75,475)"
             id="path2650"
             style="fill:#ffffff;fill-opacity:1;stroke:none" />
        </g>
      </g>
    </g>
    <g
       transform="matrix(-0.5,0.8660254,-0.8660254,-0.5,437.13852,362.66692)"
       id="g2652">
      <g
         id="g2654">
        <g
           transform="matrix(-1,0,0,-1,825,825)"
           id="g2656"
           style="fill:#000000;fill-opacity:1">
          <path
             d="M 425,25 C 204.2,25 25,204.2 25,425 25,645.8 204.2,825 425,825 314.6,825 225,735.4 225,625 225,514.6 314.6,425 425,425 535.4,425 625,335.4 625,225 625,114.6 535.4,25 425,25 z m 0,137.5 c 34.5,0 62.5,28 62.5,62.5 0,34.5 -28,62.5 -62.5,62.5 -34.5,0 -62.5,-28 -62.5,-62.5 0,-34.5 28,-62.5 62.5,-62.5 z"
             transform="matrix(-1,0,0,-1,825,825)"
             id="path2658"
             style="fill:#000000;fill-opacity:1;stroke:none" />
          <path
             d="m 450,200 a 50,50 0 1 1 -100,0 50,50 0 1 1 100,0 z"
             transform="matrix(1.25,0,0,1.25,-100,-50)"
             id="path2660"
             style="fill:#000000;fill-opacity:1;stroke:none" />
        </g>
        <g
           id="g2662">
          <path
             d="m 425,25 c 110.4,0 200,89.6 200,200 0,110.4 -89.6,200 -200,200 -110.4,0 -200,89.6 -200,200 0,110.4 89.6,200 200,200 C 645.8,825 825,645.8 825,425 825,204.2 645.8,25 425,25 z m 0,537.5 c 34.5,0 62.5,28 62.5,62.5 0,34.5 -28,62.5 -62.5,62.5 -34.5,0 -62.5,-28 -62.5,-62.5 0,-34.5 28,-62.5 62.5,-62.5 z"
             id="path2664"
             style="fill:#ffffff;fill-opacity:1;stroke:none" />
          <path
             d="m 450,200 a 50,50 0 1 1 -100,0 50,50 0 1 1 100,0 z"
             transform="matrix(1.25,0,0,-1.25,-75,475)"
             id="path2666"
             style="fill:#ffffff;fill-opacity:1;stroke:none" />
        </g>
      </g>
    </g>
    <g
       transform="translate(1237.0774,93.227713)"
       id="g2748">
      <g
         transform="matrix(-1,0,0,-1,850,850)"
         id="g2750">
        <g
           transform="matrix(-1,0,0,-1,825,825)"
           id="g2752"
           style="fill:#000000;fill-opacity:1">
          <path
             d="M 425,25 C 204.2,25 25,204.2 25,425 25,645.8 204.2,825 425,825 314.6,825 225,735.4 225,625 225,514.6 314.6,425 425,425 535.4,425 625,335.4 625,225 625,114.6 535.4,25 425,25 z m 0,137.5 c 34.5,0 62.5,28 62.5,62.5 0,34.5 -28,62.5 -62.5,62.5 -34.5,0 -62.5,-28 -62.5,-62.5 0,-34.5 28,-62.5 62.5,-62.5 z"
             transform="matrix(-1,0,0,-1,825,825)"
             id="path2754"
             style="fill:#000000;fill-opacity:1;stroke:none" />
          <path
             d="m 450,200 a 50,50 0 1 1 -100,0 50,50 0 1 1 100,0 z"
             transform="matrix(1.25,0,0,1.25,-100,-50)"
             id="path2756"
             style="fill:#000000;fill-opacity:1;stroke:none" />
        </g>
        <g
           id="g2758">
          <path
             d="m 425,25 c 110.4,0 200,89.6 200,200 0,110.4 -89.6,200 -200,200 -110.4,0 -200,89.6 -200,200 0,110.4 89.6,200 200,200 C 645.8,825 825,645.8 825,425 825,204.2 645.8,25 425,25 z m 0,537.5 c 34.5,0 62.5,28 62.5,62.5 0,34.5 -28,62.5 -62.5,62.5 -34.5,0 -62.5,-28 -62.5,-62.5 0,-34.5 28,-62.5 62.5,-62.5 z"
             id="path2760"
             style="fill:#ffffff;fill-opacity:1;stroke:none" />
          <path
             d="m 450,200 a 50,50 0 1 1 -100,0 50,50 0 1 1 100,0 z"
             transform="matrix(1.25,0,0,-1.25,-75,475)"
             id="path2762"
             style="fill:#ffffff;fill-opacity:1;stroke:none" />
        </g>
      </g>
    </g>
    <g
       transform="matrix(0.5,0.8660254,-0.8660254,0.5,3623.1377,-62.333082)"
       id="g2844">
      <g
         transform="matrix(-1,0,0,-1,850,850)"
         id="g2846">
        <g
           transform="matrix(-1,0,0,-1,825,825)"
           id="g2848"
           style="fill:#000000;fill-opacity:1">
          <path
             d="M 425,25 C 204.2,25 25,204.2 25,425 25,645.8 204.2,825 425,825 314.6,825 225,735.4 225,625 225,514.6 314.6,425 425,425 535.4,425 625,335.4 625,225 625,114.6 535.4,25 425,25 z m 0,137.5 c 34.5,0 62.5,28 62.5,62.5 0,34.5 -28,62.5 -62.5,62.5 -34.5,0 -62.5,-28 -62.5,-62.5 0,-34.5 28,-62.5 62.5,-62.5 z"
             transform="matrix(-1,0,0,-1,825,825)"
             id="path2850"
             style="fill:#000000;fill-opacity:1;stroke:none" />
          <path
             d="m 450,200 a 50,50 0 1 1 -100,0 50,50 0 1 1 100,0 z"
             transform="matrix(1.25,0,0,1.25,-100,-50)"
             id="path2852"
             style="fill:#000000;fill-opacity:1;stroke:none" />
        </g>
        <g
           id="g2854">
          <path
             d="m 425,25 c 110.4,0 200,89.6 200,200 0,110.4 -89.6,200 -200,200 -110.4,0 -200,89.6 -200,200 0,110.4 89.6,200 200,200 C 645.8,825 825,645.8 825,425 825,204.2 645.8,25 425,25 z m 0,537.5 c 34.5,0 62.5,28 62.5,62.5 0,34.5 -28,62.5 -62.5,62.5 -34.5,0 -62.5,-28 -62.5,-62.5 0,-34.5 28,-62.5 62.5,-62.5 z"
             id="path2856"
             style="fill:#ffffff;fill-opacity:1;stroke:none" />
          <path
             d="m 450,200 a 50,50 0 1 1 -100,0 50,50 0 1 1 100,0 z"
             transform="matrix(1.25,0,0,-1.25,-75,475)"
             id="path2858"
             style="fill:#ffffff;fill-opacity:1;stroke:none" />
        </g>
      </g>
    </g>
    <g
       transform="matrix(-0.5,0.8660254,-0.8660254,-0.5,5853.6375,362.66692)"
       id="g2892">
      <g
         transform="matrix(-1,0,0,-1,850,850)"
         id="g2894">
        <g
           transform="matrix(-1,0,0,-1,825,825)"
           id="g2896"
           style="fill:#000000;fill-opacity:1">
          <path
             d="M 425,25 C 204.2,25 25,204.2 25,425 25,645.8 204.2,825 425,825 314.6,825 225,735.4 225,625 225,514.6 314.6,425 425,425 535.4,425 625,335.4 625,225 625,114.6 535.4,25 425,25 z m 0,137.5 c 34.5,0 62.5,28 62.5,62.5 0,34.5 -28,62.5 -62.5,62.5 -34.5,0 -62.5,-28 -62.5,-62.5 0,-34.5 28,-62.5 62.5,-62.5 z"
             transform="matrix(-1,0,0,-1,825,825)"
             id="path2898"
             style="fill:#000000;fill-opacity:1;stroke:none" />
          <path
             d="m 450,200 a 50,50 0 1 1 -100,0 50,50 0 1 1 100,0 z"
             transform="matrix(1.25,0,0,1.25,-100,-50)"
             id="path2900"
             style="fill:#000000;fill-opacity:1;stroke:none" />
        </g>
        <g
           id="g2902">
          <path
             d="m 425,25 c 110.4,0 200,89.6 200,200 0,110.4 -89.6,200 -200,200 -110.4,0 -200,89.6 -200,200 0,110.4 89.6,200 200,200 C 645.8,825 825,645.8 825,425 825,204.2 645.8,25 425,25 z m 0,537.5 c 34.5,0 62.5,28 62.5,62.5 0,34.5 -28,62.5 -62.5,62.5 -34.5,0 -62.5,-28 -62.5,-62.5 0,-34.5 28,-62.5 62.5,-62.5 z"
             id="path2904"
             style="fill:#ffffff;fill-opacity:1;stroke:none" />
          <path
             d="m 450,200 a 50,50 0 1 1 -100,0 50,50 0 1 1 100,0 z"
             transform="matrix(1.25,0,0,-1.25,-75,475)"
             id="path2906"
             style="fill:#ffffff;fill-opacity:1;stroke:none" />
        </g>
      </g>
    </g>
    <g
       transform="translate(-4179.4215,1168.8407)"
       id="g2684">
      <g
         id="g2686">
        <g
           transform="matrix(-1,0,0,-1,825,825)"
           id="g2688"
           style="fill:#000000;fill-opacity:1">
          <path
             d="M 425,25 C 204.2,25 25,204.2 25,425 25,645.8 204.2,825 425,825 314.6,825 225,735.4 225,625 225,514.6 314.6,425 425,425 535.4,425 625,335.4 625,225 625,114.6 535.4,25 425,25 z m 0,137.5 c 34.5,0 62.5,28 62.5,62.5 0,34.5 -28,62.5 -62.5,62.5 -34.5,0 -62.5,-28 -62.5,-62.5 0,-34.5 28,-62.5 62.5,-62.5 z"
             transform="matrix(-1,0,0,-1,825,825)"
             id="path2690"
             style="fill:#000000;fill-opacity:1;stroke:none" />
          <path
             d="m 450,200 a 50,50 0 1 1 -100,0 50,50 0 1 1 100,0 z"
             transform="matrix(1.25,0,0,1.25,-100,-50)"
             id="path2692"
             style="fill:#000000;fill-opacity:1;stroke:none" />
        </g>
        <g
           id="g2694">
          <path
             d="m 425,25 c 110.4,0 200,89.6 200,200 0,110.4 -89.6,200 -200,200 -110.4,0 -200,89.6 -200,200 0,110.4 89.6,200 200,200 C 645.8,825 825,645.8 825,425 825,204.2 645.8,25 425,25 z m 0,537.5 c 34.5,0 62.5,28 62.5,62.5 0,34.5 -28,62.5 -62.5,62.5 -34.5,0 -62.5,-28 -62.5,-62.5 0,-34.5 28,-62.5 62.5,-62.5 z"
             id="path2696"
             style="fill:#ffffff;fill-opacity:1;stroke:none" />
          <path
             d="m 450,200 a 50,50 0 1 1 -100,0 50,50 0 1 1 100,0 z"
             transform="matrix(1.25,0,0,-1.25,-75,475)"
             id="path2698"
             style="fill:#ffffff;fill-opacity:1;stroke:none" />
        </g>
      </g>
    </g>
    <g
       transform="matrix(0,1,-1,0,-551.46899,1168.8407)"
       id="g2700">
      <g
         id="g2702">
        <g
           transform="matrix(-1,0,0,-1,825,825)"
           id="g2704"
           style="fill:#000000;fill-opacity:1">
          <path
             d="M 425,25 C 204.2,25 25,204.2 25,425 25,645.8 204.2,825 425,825 314.6,825 225,735.4 225,625 225,514.6 314.6,425 425,425 535.4,425 625,335.4 625,225 625,114.6 535.4,25 425,25 z m 0,137.5 c 34.5,0 62.5,28 62.5,62.5 0,34.5 -28,62.5 -62.5,62.5 -34.5,0 -62.5,-28 -62.5,-62.5 0,-34.5 28,-62.5 62.5,-62.5 z"
             transform="matrix(-1,0,0,-1,825,825)"
             id="path2706"
             style="fill:#000000;fill-opacity:1;stroke:none" />
          <path
             d="m 450,200 a 50,50 0 1 1 -100,0 50,50 0 1 1 100,0 z"
             transform="matrix(1.25,0,0,1.25,-100,-50)"
             id="path2708"
             style="fill:#000000;fill-opacity:1;stroke:none" />
        </g>
        <g
           id="g2710">
          <path
             d="m 425,25 c 110.4,0 200,89.6 200,200 0,110.4 -89.6,200 -200,200 -110.4,0 -200,89.6 -200,200 0,110.4 89.6,200 200,200 C 645.8,825 825,645.8 825,425 825,204.2 645.8,25 425,25 z m 0,537.5 c 34.5,0 62.5,28 62.5,62.5 0,34.5 -28,62.5 -62.5,62.5 -34.5,0 -62.5,-28 -62.5,-62.5 0,-34.5 28,-62.5 62.5,-62.5 z"
             id="path2712"
             style="fill:#ffffff;fill-opacity:1;stroke:none" />
          <path
             d="m 450,200 a 50,50 0 1 1 -100,0 50,50 0 1 1 100,0 z"
             transform="matrix(1.25,0,0,-1.25,-75,475)"
             id="path2714"
             style="fill:#ffffff;fill-opacity:1;stroke:none" />
        </g>
      </g>
    </g>
    <g
       transform="translate(1376.4834,1168.8407)"
       id="g2764">
      <g
         transform="matrix(-1,0,0,-1,850,850)"
         id="g2766">
        <g
           transform="matrix(-1,0,0,-1,825,825)"
           id="g2768"
           style="fill:#000000;fill-opacity:1">
          <path
             d="M 425,25 C 204.2,25 25,204.2 25,425 25,645.8 204.2,825 425,825 314.6,825 225,735.4 225,625 225,514.6 314.6,425 425,425 535.4,425 625,335.4 625,225 625,114.6 535.4,25 425,25 z m 0,137.5 c 34.5,0 62.5,28 62.5,62.5 0,34.5 -28,62.5 -62.5,62.5 -34.5,0 -62.5,-28 -62.5,-62.5 0,-34.5 28,-62.5 62.5,-62.5 z"
             transform="matrix(-1,0,0,-1,825,825)"
             id="path2770"
             style="fill:#000000;fill-opacity:1;stroke:none" />
          <path
             d="m 450,200 a 50,50 0 1 1 -100,0 50,50 0 1 1 100,0 z"
             transform="matrix(1.25,0,0,1.25,-100,-50)"
             id="path2772"
             style="fill:#000000;fill-opacity:1;stroke:none" />
        </g>
        <g
           id="g2774">
          <path
             d="m 425,25 c 110.4,0 200,89.6 200,200 0,110.4 -89.6,200 -200,200 -110.4,0 -200,89.6 -200,200 0,110.4 89.6,200 200,200 C 645.8,825 825,645.8 825,425 825,204.2 645.8,25 425,25 z m 0,537.5 c 34.5,0 62.5,28 62.5,62.5 0,34.5 -28,62.5 -62.5,62.5 -34.5,0 -62.5,-28 -62.5,-62.5 0,-34.5 28,-62.5 62.5,-62.5 z"
             id="path2776"
             style="fill:#ffffff;fill-opacity:1;stroke:none" />
          <path
             d="m 450,200 a 50,50 0 1 1 -100,0 50,50 0 1 1 100,0 z"
             transform="matrix(1.25,0,0,-1.25,-75,475)"
             id="path2778"
             style="fill:#ffffff;fill-opacity:1;stroke:none" />
        </g>
      </g>
    </g>
    <g
       transform="matrix(0,1,-1,0,5004.4357,1168.8407)"
       id="g2908">
      <g
         transform="matrix(-1,0,0,-1,850,850)"
         id="g2910">
        <g
           transform="matrix(-1,0,0,-1,825,825)"
           id="g2912"
           style="fill:#000000;fill-opacity:1">
          <path
             d="M 425,25 C 204.2,25 25,204.2 25,425 25,645.8 204.2,825 425,825 314.6,825 225,735.4 225,625 225,514.6 314.6,425 425,425 535.4,425 625,335.4 625,225 625,114.6 535.4,25 425,25 z m 0,137.5 c 34.5,0 62.5,28 62.5,62.5 0,34.5 -28,62.5 -62.5,62.5 -34.5,0 -62.5,-28 -62.5,-62.5 0,-34.5 28,-62.5 62.5,-62.5 z"
             transform="matrix(-1,0,0,-1,825,825)"
             id="path2914"
             style="fill:#000000;fill-opacity:1;stroke:none" />
          <path
             d="m 450,200 a 50,50 0 1 1 -100,0 50,50 0 1 1 100,0 z"
             transform="matrix(1.25,0,0,1.25,-100,-50)"
             id="path2916"
             style="fill:#000000;fill-opacity:1;stroke:none" />
        </g>
        <g
           id="g2918">
          <path
             d="m 425,25 c 110.4,0 200,89.6 200,200 0,110.4 -89.6,200 -200,200 -110.4,0 -200,89.6 -200,200 0,110.4 89.6,200 200,200 C 645.8,825 825,645.8 825,425 825,204.2 645.8,25 425,25 z m 0,537.5 c 34.5,0 62.5,28 62.5,62.5 0,34.5 -28,62.5 -62.5,62.5 -34.5,0 -62.5,-28 -62.5,-62.5 0,-34.5 28,-62.5 62.5,-62.5 z"
             id="path2920"
             style="fill:#ffffff;fill-opacity:1;stroke:none" />
          <path
             d="m 450,200 a 50,50 0 1 1 -100,0 50,50 0 1 1 100,0 z"
             transform="matrix(1.25,0,0,-1.25,-75,475)"
             id="path2922"
             style="fill:#ffffff;fill-opacity:1;stroke:none" />
        </g>
      </g>
    </g>
  </g>
</svg>
