<?xml version="1.0" encoding="UTF-8" standalone="no"?>
<!-- Created with Inkscape (http://www.inkscape.org/) -->
<svg
   xmlns:svg="http://www.w3.org/2000/svg"
   xmlns="http://www.w3.org/2000/svg"
   version="1.0"
   width="210mm"
   height="297mm"
   id="svg2">
  <defs
     id="defs4" />
  <g
     id="layer1">
    <g
       transform="matrix(0.7071068,0.7071068,-0.7071068,0.7071068,-2392.9517,-1322.9221)"
       id="g2540">
      <g
         id="g2542">
        <g
           transform="matrix(-1,0,0,-1,825,825)"
           id="g2544"
           style="fill:#000000;fill-opacity:1">
          <path
             d="M 425,25 C 204.2,25 25,204.2 25,425 C 25,645.8 204.2,825 425,825 C 314.6,825 225,735.4 225,625 C 225,514.6 314.6,425 425,425 C 535.4,425 625,335.4 625,225 C 625,114.6 535.4,25 425,25 z M 425,162.5 C 459.5,162.5 487.5,190.5 487.5,225 C 487.5,259.5 459.5,287.5 425,287.5 C 390.5,287.5 362.5,259.5 362.5,225 C 362.5,190.5 390.5,162.5 425,162.5 z"
             transform="matrix(-1,0,0,-1,825,825)"
             id="path2546"
             style="fill:#000000;fill-opacity:1;stroke:none" />
          <path
             d="M 450,200 A 50,50 0 1 1 350,200 A 50,50 0 1 1 450,200 z"
             transform="matrix(1.25,0,0,1.25,-100,-50)"
             id="path2548"
             style="opacity:1;fill:#000000;fill-opacity:1;stroke:none" />
        </g>
        <g
           id="g2550">
          <path
             d="M 425,25 C 535.4,25 625,114.6 625,225 C 625,335.4 535.4,425 425,425 C 314.6,425 225,514.6 225,625 C 225,735.4 314.6,825 425,825 C 645.8,825 825,645.8 825,425 C 825,204.2 645.8,25 425,25 z M 425,562.5 C 459.5,562.5 487.5,590.5 487.5,625 C 487.5,659.5 459.5,687.5 425,687.5 C 390.5,687.5 362.5,659.5 362.5,625 C 362.5,590.5 390.5,562.5 425,562.5 z"
             id="path2552"
             style="fill:#ffffff;fill-opacity:1;stroke:none" />
          <path
             d="M 450,200 A 50,50 0 1 1 350,200 A 50,50 0 1 1 450,200 z"
             transform="matrix(1.25,0,0,-1.25,-75,475)"
             id="path2554"
             style="fill:#ffffff;fill-opacity:1;stroke:none" />
        </g>
      </g>
    </g>
    <g
       transform="matrix(0,1,-1,0,-606.4814,-1146.8814)"
       id="g2556">
      <g
         id="g2558">
        <g
           transform="matrix(-1,0,0,-1,825,825)"
           id="g2560"
           style="fill:#000000;fill-opacity:1">
          <path
             d="M 425,25 C 204.2,25 25,204.2 25,425 C 25,645.8 204.2,825 425,825 C 314.6,825 225,735.4 225,625 C 225,514.6 314.6,425 425,425 C 535.4,425 625,335.4 625,225 C 625,114.6 535.4,25 425,25 z M 425,162.5 C 459.5,162.5 487.5,190.5 487.5,225 C 487.5,259.5 459.5,287.5 425,287.5 C 390.5,287.5 362.5,259.5 362.5,225 C 362.5,190.5 390.5,162.5 425,162.5 z"
             transform="matrix(-1,0,0,-1,825,825)"
             id="path2562"
             style="fill:#000000;fill-opacity:1;stroke:none" />
          <path
             d="M 450,200 A 50,50 0 1 1 350,200 A 50,50 0 1 1 450,200 z"
             transform="matrix(1.25,0,0,1.25,-100,-50)"
             id="path2564"
             style="opacity:1;fill:#000000;fill-opacity:1;stroke:none" />
        </g>
        <g
           id="g2566">
          <path
             d="M 425,25 C 535.4,25 625,114.6 625,225 C 625,335.4 535.4,425 425,425 C 314.6,425 225,514.6 225,625 C 225,735.4 314.6,825 425,825 C 645.8,825 825,645.8 825,425 C 825,204.2 645.8,25 425,25 z M 425,562.5 C 459.5,562.5 487.5,590.5 487.5,625 C 487.5,659.5 459.5,687.5 425,687.5 C 390.5,687.5 362.5,659.5 362.5,625 C 362.5,590.5 390.5,562.5 425,562.5 z"
             id="path2568"
             style="fill:#ffffff;fill-opacity:1;stroke:none" />
          <path
             d="M 450,200 A 50,50 0 1 1 350,200 A 50,50 0 1 1 450,200 z"
             transform="matrix(1.25,0,0,-1.25,-75,475)"
             id="path2570"
             style="fill:#ffffff;fill-opacity:1;stroke:none" />
        </g>
      </g>
    </g>
    <g
       transform="matrix(-0.7071068,0.7071068,-0.7071068,-0.7071068,931.02946,-721.88143)"
       id="g2572">
      <g
         id="g2574">
        <g
           transform="matrix(-1,0,0,-1,825,825)"
           id="g2576"
           style="fill:#000000;fill-opacity:1">
          <path
             d="M 425,25 C 204.2,25 25,204.2 25,425 C 25,645.8 204.2,825 425,825 C 314.6,825 225,735.4 225,625 C 225,514.6 314.6,425 425,425 C 535.4,425 625,335.4 625,225 C 625,114.6 535.4,25 425,25 z M 425,162.5 C 459.5,162.5 487.5,190.5 487.5,225 C 487.5,259.5 459.5,287.5 425,287.5 C 390.5,287.5 362.5,259.5 362.5,225 C 362.5,190.5 390.5,162.5 425,162.5 z"
             transform="matrix(-1,0,0,-1,825,825)"
             id="path2578"
             style="fill:#000000;fill-opacity:1;stroke:none" />
          <path
             d="M 450,200 A 50,50 0 1 1 350,200 A 50,50 0 1 1 450,200 z"
             transform="matrix(1.25,0,0,1.25,-100,-50)"
             id="path2580"
             style="opacity:1;fill:#000000;fill-opacity:1;stroke:none" />
        </g>
        <g
           id="g2582">
          <path
             d="M 425,25 C 535.4,25 625,114.6 625,225 C 625,335.4 535.4,425 425,425 C 314.6,425 225,514.6 225,625 C 225,735.4 314.6,825 425,825 C 645.8,825 825,645.8 825,425 C 825,204.2 645.8,25 425,25 z M 425,562.5 C 459.5,562.5 487.5,590.5 487.5,625 C 487.5,659.5 459.5,687.5 425,687.5 C 390.5,687.5 362.5,659.5 362.5,625 C 362.5,590.5 390.5,562.5 425,562.5 z"
             id="path2584"
             style="fill:#ffffff;fill-opacity:1;stroke:none" />
          <path
             d="M 450,200 A 50,50 0 1 1 350,200 A 50,50 0 1 1 450,200 z"
             transform="matrix(1.25,0,0,-1.25,-75,475)"
             id="path2586"
             style="fill:#ffffff;fill-opacity:1;stroke:none" />
        </g>
      </g>
    </g>
    <g
       transform="translate(-4179.4215,-1146.8814)"
       id="g2604">
      <g
         id="g2606">
        <g
           transform="matrix(-1,0,0,-1,825,825)"
           id="g2608"
           style="fill:#000000;fill-opacity:1">
          <path
             d="M 425,25 C 204.2,25 25,204.2 25,425 C 25,645.8 204.2,825 425,825 C 314.6,825 225,735.4 225,625 C 225,514.6 314.6,425 425,425 C 535.4,425 625,335.4 625,225 C 625,114.6 535.4,25 425,25 z M 425,162.5 C 459.5,162.5 487.5,190.5 487.5,225 C 487.5,259.5 459.5,287.5 425,287.5 C 390.5,287.5 362.5,259.5 362.5,225 C 362.5,190.5 390.5,162.5 425,162.5 z"
             transform="matrix(-1,0,0,-1,825,825)"
             id="path2610"
             style="fill:#000000;fill-opacity:1;stroke:none" />
          <path
             d="M 450,200 A 50,50 0 1 1 350,200 A 50,50 0 1 1 450,200 z"
             transform="matrix(1.25,0,0,1.25,-100,-50)"
             id="path2612"
             style="opacity:1;fill:#000000;fill-opacity:1;stroke:none" />
        </g>
        <g
           id="g2614">
          <path
             d="M 425,25 C 535.4,25 625,114.6 625,225 C 625,335.4 535.4,425 425,425 C 314.6,425 225,514.6 225,625 C 225,735.4 314.6,825 425,825 C 645.8,825 825,645.8 825,425 C 825,204.2 645.8,25 425,25 z M 425,562.5 C 459.5,562.5 487.5,590.5 487.5,625 C 487.5,659.5 459.5,687.5 425,687.5 C 390.5,687.5 362.5,659.5 362.5,625 C 362.5,590.5 390.5,562.5 425,562.5 z"
             id="path2616"
             style="fill:#ffffff;fill-opacity:1;stroke:none" />
          <path
             d="M 450,200 A 50,50 0 1 1 350,200 A 50,50 0 1 1 450,200 z"
             transform="matrix(1.25,0,0,-1.25,-75,475)"
             id="path2618"
             style="fill:#ffffff;fill-opacity:1;stroke:none" />
        </g>
      </g>
    </g>
    <g
       transform="translate(1266.4587,-1146.8814)"
       id="g2732">
      <g
         transform="matrix(-1,0,0,-1,850,850)"
         id="g2734">
        <g
           transform="matrix(-1,0,0,-1,825,825)"
           id="g2736"
           style="fill:#000000;fill-opacity:1">
          <path
             d="M 425,25 C 204.2,25 25,204.2 25,425 C 25,645.8 204.2,825 425,825 C 314.6,825 225,735.4 225,625 C 225,514.6 314.6,425 425,425 C 535.4,425 625,335.4 625,225 C 625,114.6 535.4,25 425,25 z M 425,162.5 C 459.5,162.5 487.5,190.5 487.5,225 C 487.5,259.5 459.5,287.5 425,287.5 C 390.5,287.5 362.5,259.5 362.5,225 C 362.5,190.5 390.5,162.5 425,162.5 z"
             transform="matrix(-1,0,0,-1,825,825)"
             id="path2738"
             style="fill:#000000;fill-opacity:1;stroke:none" />
          <path
             d="M 450,200 A 50,50 0 1 1 350,200 A 50,50 0 1 1 450,200 z"
             transform="matrix(1.25,0,0,1.25,-100,-50)"
             id="path2740"
             style="opacity:1;fill:#000000;fill-opacity:1;stroke:none" />
        </g>
        <g
           id="g2742">
          <path
             d="M 425,25 C 535.4,25 625,114.6 625,225 C 625,335.4 535.4,425 425,425 C 314.6,425 225,514.6 225,625 C 225,735.4 314.6,825 425,825 C 645.8,825 825,645.8 825,425 C 825,204.2 645.8,25 425,25 z M 425,562.5 C 459.5,562.5 487.5,590.5 487.5,625 C 487.5,659.5 459.5,687.5 425,687.5 C 390.5,687.5 362.5,659.5 362.5,625 C 362.5,590.5 390.5,562.5 425,562.5 z"
             id="path2744"
             style="fill:#ffffff;fill-opacity:1;stroke:none" />
          <path
             d="M 450,200 A 50,50 0 1 1 350,200 A 50,50 0 1 1 450,200 z"
             transform="matrix(1.25,0,0,-1.25,-75,475)"
             id="path2746"
             style="fill:#ffffff;fill-opacity:1;stroke:none" />
        </g>
      </g>
    </g>
    <g
       transform="matrix(0.7071068,0.7071068,-0.7071068,0.7071068,3052.9291,-1322.9222)"
       id="g2780">
      <g
         transform="matrix(-1,0,0,-1,850,850)"
         id="g2782">
        <g
           transform="matrix(-1,0,0,-1,825,825)"
           id="g2784"
           style="fill:#000000;fill-opacity:1">
          <path
             d="M 425,25 C 204.2,25 25,204.2 25,425 C 25,645.8 204.2,825 425,825 C 314.6,825 225,735.4 225,625 C 225,514.6 314.6,425 425,425 C 535.4,425 625,335.4 625,225 C 625,114.6 535.4,25 425,25 z M 425,162.5 C 459.5,162.5 487.5,190.5 487.5,225 C 487.5,259.5 459.5,287.5 425,287.5 C 390.5,287.5 362.5,259.5 362.5,225 C 362.5,190.5 390.5,162.5 425,162.5 z"
             transform="matrix(-1,0,0,-1,825,825)"
             id="path2786"
             style="fill:#000000;fill-opacity:1;stroke:none" />
          <path
             d="M 450,200 A 50,50 0 1 1 350,200 A 50,50 0 1 1 450,200 z"
             transform="matrix(1.25,0,0,1.25,-100,-50)"
             id="path2788"
             style="opacity:1;fill:#000000;fill-opacity:1;stroke:none" />
        </g>
        <g
           id="g2790">
          <path
             d="M 425,25 C 535.4,25 625,114.6 625,225 C 625,335.4 535.4,425 425,425 C 314.6,425 225,514.6 225,625 C 225,735.4 314.6,825 425,825 C 645.8,825 825,645.8 825,425 C 825,204.2 645.8,25 425,25 z M 425,562.5 C 459.5,562.5 487.5,590.5 487.5,625 C 487.5,659.5 459.5,687.5 425,687.5 C 390.5,687.5 362.5,659.5 362.5,625 C 362.5,590.5 390.5,562.5 425,562.5 z"
             id="path2792"
             style="fill:#ffffff;fill-opacity:1;stroke:none" />
          <path
             d="M 450,200 A 50,50 0 1 1 350,200 A 50,50 0 1 1 450,200 z"
             transform="matrix(1.25,0,0,-1.25,-75,475)"
             id="path2794"
             style="fill:#ffffff;fill-opacity:1;stroke:none" />
        </g>
      </g>
    </g>
    <g
       transform="matrix(0,1,-1,0,4839.3991,-1146.8814)"
       id="g2828">
      <g
         transform="matrix(-1,0,0,-1,850,850)"
         id="g2830">
        <g
           transform="matrix(-1,0,0,-1,825,825)"
           id="g2832"
           style="fill:#000000;fill-opacity:1">
          <path
             d="M 425,25 C 204.2,25 25,204.2 25,425 C 25,645.8 204.2,825 425,825 C 314.6,825 225,735.4 225,625 C 225,514.6 314.6,425 425,425 C 535.4,425 625,335.4 625,225 C 625,114.6 535.4,25 425,25 z M 425,162.5 C 459.5,162.5 487.5,190.5 487.5,225 C 487.5,259.5 459.5,287.5 425,287.5 C 390.5,287.5 362.5,259.5 362.5,225 C 362.5,190.5 390.5,162.5 425,162.5 z"
             transform="matrix(-1,0,0,-1,825,825)"
             id="path2834"
             style="fill:#000000;fill-opacity:1;stroke:none" />
          <path
             d="M 450,200 A 50,50 0 1 1 350,200 A 50,50 0 1 1 450,200 z"
             transform="matrix(1.25,0,0,1.25,-100,-50)"
             id="path2836"
             style="opacity:1;fill:#000000;fill-opacity:1;stroke:none" />
        </g>
        <g
           id="g2838">
          <path
             d="M 425,25 C 535.4,25 625,114.6 625,225 C 625,335.4 535.4,425 425,425 C 314.6,425 225,514.6 225,625 C 225,735.4 314.6,825 425,825 C 645.8,825 825,645.8 825,425 C 825,204.2 645.8,25 425,25 z M 425,562.5 C 459.5,562.5 487.5,590.5 487.5,625 C 487.5,659.5 459.5,687.5 425,687.5 C 390.5,687.5 362.5,659.5 362.5,625 C 362.5,590.5 390.5,562.5 425,562.5 z"
             id="path2840"
             style="fill:#ffffff;fill-opacity:1;stroke:none" />
          <path
             d="M 450,200 A 50,50 0 1 1 350,200 A 50,50 0 1 1 450,200 z"
             transform="matrix(1.25,0,0,-1.25,-75,475)"
             id="path2842"
             style="fill:#ffffff;fill-opacity:1;stroke:none" />
        </g>
      </g>
    </g>
    <g
       transform="matrix(-0.7071068,0.7071068,-0.7071068,-0.7071068,6376.9094,-721.8814)"
       id="g2876">
      <g
         transform="matrix(-1,0,0,-1,850,850)"
         id="g2878">
        <g
           transform="matrix(-1,0,0,-1,825,825)"
           id="g2880"
           style="fill:#000000;fill-opacity:1">
          <path
             d="M 425,25 C 204.2,25 25,204.2 25,425 C 25,645.8 204.2,825 425,825 C 314.6,825 225,735.4 225,625 C 225,514.6 314.6,425 425,425 C 535.4,425 625,335.4 625,225 C 625,114.6 535.4,25 425,25 z M 425,162.5 C 459.5,162.5 487.5,190.5 487.5,225 C 487.5,259.5 459.5,287.5 425,287.5 C 390.5,287.5 362.5,259.5 362.5,225 C 362.5,190.5 390.5,162.5 425,162.5 z"
             transform="matrix(-1,0,0,-1,825,825)"
             id="path2882"
             style="fill:#000000;fill-opacity:1;stroke:none" />
          <path
             d="M 450,200 A 50,50 0 1 1 350,200 A 50,50 0 1 1 450,200 z"
             transform="matrix(1.25,0,0,1.25,-100,-50)"
             id="path2884"
             style="opacity:1;fill:#000000;fill-opacity:1;stroke:none" />
        </g>
        <g
           id="g2886">
          <path
             d="M 425,25 C 535.4,25 625,114.6 625,225 C 625,335.4 535.4,425 425,425 C 314.6,425 225,514.6 225,625 C 225,735.4 314.6,825 425,825 C 645.8,825 825,645.8 825,425 C 825,204.2 645.8,25 425,25 z M 425,562.5 C 459.5,562.5 487.5,590.5 487.5,625 C 487.5,659.5 459.5,687.5 425,687.5 C 390.5,687.5 362.5,659.5 362.5,625 C 362.5,590.5 390.5,562.5 425,562.5 z"
             id="path2888"
             style="fill:#ffffff;fill-opacity:1;stroke:none" />
          <path
             d="M 450,200 A 50,50 0 1 1 350,200 A 50,50 0 1 1 450,200 z"
             transform="matrix(1.25,0,0,-1.25,-75,475)"
             id="path2890"
             style="fill:#ffffff;fill-opacity:1;stroke:none" />
        </g>
      </g>
    </g>
    <g
       transform="translate(-4179.4215,93.227713)"
       id="g2620">
      <g
         id="g2622">
        <g
           transform="matrix(-1,0,0,-1,825,825)"
           id="g2624"
           style="fill:#000000;fill-opacity:1">
          <path
             d="M 425,25 C 204.2,25 25,204.2 25,425 C 25,645.8 204.2,825 425,825 C 314.6,825 225,735.4 225,625 C 225,514.6 314.6,425 425,425 C 535.4,425 625,335.4 625,225 C 625,114.6 535.4,25 425,25 z M 425,162.5 C 459.5,162.5 487.5,190.5 487.5,225 C 487.5,259.5 459.5,287.5 425,287.5 C 390.5,287.5 362.5,259.5 362.5,225 C 362.5,190.5 390.5,162.5 425,162.5 z"
             transform="matrix(-1,0,0,-1,825,825)"
             id="path2626"
             style="fill:#000000;fill-opacity:1;stroke:none" />
          <path
             d="M 450,200 A 50,50 0 1 1 350,200 A 50,50 0 1 1 450,200 z"
             transform="matrix(1.25,0,0,1.25,-100,-50)"
             id="path2628"
             style="opacity:1;fill:#000000;fill-opacity:1;stroke:none" />
        </g>
        <g
           id="g2630">
          <path
             d="M 425,25 C 535.4,25 625,114.6 625,225 C 625,335.4 535.4,425 425,425 C 314.6,425 225,514.6 225,625 C 225,735.4 314.6,825 425,825 C 645.8,825 825,645.8 825,425 C 825,204.2 645.8,25 425,25 z M 425,562.5 C 459.5,562.5 487.5,590.5 487.5,625 C 487.5,659.5 459.5,687.5 425,687.5 C 390.5,687.5 362.5,659.5 362.5,625 C 362.5,590.5 390.5,562.5 425,562.5 z"
             id="path2632"
             style="fill:#ffffff;fill-opacity:1;stroke:none" />
          <path
             d="M 450,200 A 50,50 0 1 1 350,200 A 50,50 0 1 1 450,200 z"
             transform="matrix(1.25,0,0,-1.25,-75,475)"
             id="path2634"
             style="fill:#ffffff;fill-opacity:1;stroke:none" />
        </g>
      </g>
    </g>
    <g
       transform="matrix(0.5,0.8660254,-0.8660254,0.5,-1793.3611,-62.333082)"
       id="g2636">
      <g
         id="g2638">
        <g
           transform="matrix(-1,0,0,-1,825,825)"
           id="g2640"
           style="fill:#000000;fill-opacity:1">
          <path
             d="M 425,25 C 204.2,25 25,204.2 25,425 C 25,645.8 204.2,825 425,825 C 314.6,825 225,735.4 225,625 C 225,514.6 314.6,425 425,425 C 535.4,425 625,335.4 625,225 C 625,114.6 535.4,25 425,25 z M 425,162.5 C 459.5,162.5 487.5,190.5 487.5,225 C 487.5,259.5 459.5,287.5 425,287.5 C 390.5,287.5 362.5,259.5 362.5,225 C 362.5,190.5 390.5,162.5 425,162.5 z"
             transform="matrix(-1,0,0,-1,825,825)"
             id="path2642"
             style="fill:#000000;fill-opacity:1;stroke:none" />
          <path
             d="M 450,200 A 50,50 0 1 1 350,200 A 50,50 0 1 1 450,200 z"
             transform="matrix(1.25,0,0,1.25,-100,-50)"
             id="path2644"
             style="opacity:1;fill:#000000;fill-opacity:1;stroke:none" />
        </g>
        <g
           id="g2646">
          <path
             d="M 425,25 C 535.4,25 625,114.6 625,225 C 625,335.4 535.4,425 425,425 C 314.6,425 225,514.6 225,625 C 225,735.4 314.6,825 425,825 C 645.8,825 825,645.8 825,425 C 825,204.2 645.8,25 425,25 z M 425,562.5 C 459.5,562.5 487.5,590.5 487.5,625 C 487.5,659.5 459.5,687.5 425,687.5 C 390.5,687.5 362.5,659.5 362.5,625 C 362.5,590.5 390.5,562.5 425,562.5 z"
             id="path2648"
             style="fill:#ffffff;fill-opacity:1;stroke:none" />
          <path
             d="M 450,200 A 50,50 0 1 1 350,200 A 50,50 0 1 1 450,200 z"
             transform="matrix(1.25,0,0,-1.25,-75,475)"
             id="path2650"
             style="fill:#ffffff;fill-opacity:1;stroke:none" />
        </g>
      </g>
    </g>
    <g
       transform="matrix(-0.5,0.8660254,-0.8660254,-0.5,437.13852,362.66692)"
       id="g2652">
      <g
         id="g2654">
        <g
           transform="matrix(-1,0,0,-1,825,825)"
           id="g2656"
           style="fill:#000000;fill-opacity:1">
          <path
             d="M 425,25 C 204.2,25 25,204.2 25,425 C 25,645.8 204.2,825 425,825 C 314.6,825 225,735.4 225,625 C 225,514.6 314.6,425 425,425 C 535.4,425 625,335.4 625,225 C 625,114.6 535.4,25 425,25 z M 425,162.5 C 459.5,162.5 487.5,190.5 487.5,225 C 487.5,259.5 459.5,287.5 425,287.5 C 390.5,287.5 362.5,259.5 362.5,225 C 362.5,190.5 390.5,162.5 425,162.5 z"
             transform="matrix(-1,0,0,-1,825,825)"
             id="path2658"
             style="fill:#000000;fill-opacity:1;stroke:none" />
          <path
             d="M 450,200 A 50,50 0 1 1 350,200 A 50,50 0 1 1 450,200 z"
             transform="matrix(1.25,0,0,1.25,-100,-50)"
             id="path2660"
             style="opacity:1;fill:#000000;fill-opacity:1;stroke:none" />
        </g>
        <g
           id="g2662">
          <path
             d="M 425,25 C 535.4,25 625,114.6 625,225 C 625,335.4 535.4,425 425,425 C 314.6,425 225,514.6 225,625 C 225,735.4 314.6,825 425,825 C 645.8,825 825,645.8 825,425 C 825,204.2 645.8,25 425,25 z M 425,562.5 C 459.5,562.5 487.5,590.5 487.5,625 C 487.5,659.5 459.5,687.5 425,687.5 C 390.5,687.5 362.5,659.5 362.5,625 C 362.5,590.5 390.5,562.5 425,562.5 z"
             id="path2664"
             style="fill:#ffffff;fill-opacity:1;stroke:none" />
          <path
             d="M 450,200 A 50,50 0 1 1 350,200 A 50,50 0 1 1 450,200 z"
             transform="matrix(1.25,0,0,-1.25,-75,475)"
             id="path2666"
             style="fill:#ffffff;fill-opacity:1;stroke:none" />
        </g>
      </g>
    </g>
    <g
       transform="translate(1237.0774,93.227713)"
       id="g2748">
      <g
         transform="matrix(-1,0,0,-1,850,850)"
         id="g2750">
        <g
           transform="matrix(-1,0,0,-1,825,825)"
           id="g2752"
           style="fill:#000000;fill-opacity:1">
          <path
             d="M 425,25 C 204.2,25 25,204.2 25,425 C 25,645.8 204.2,825 425,825 C 314.6,825 225,735.4 225,625 C 225,514.6 314.6,425 425,425 C 535.4,425 625,335.4 625,225 C 625,114.6 535.4,25 425,25 z M 425,162.5 C 459.5,162.5 487.5,190.5 487.5,225 C 487.5,259.5 459.5,287.5 425,287.5 C 390.5,287.5 362.5,259.5 362.5,225 C 362.5,190.5 390.5,162.5 425,162.5 z"
             transform="matrix(-1,0,0,-1,825,825)"
             id="path2754"
             style="fill:#000000;fill-opacity:1;stroke:none" />
          <path
             d="M 450,200 A 50,50 0 1 1 350,200 A 50,50 0 1 1 450,200 z"
             transform="matrix(1.25,0,0,1.25,-100,-50)"
             id="path2756"
             style="opacity:1;fill:#000000;fill-opacity:1;stroke:none" />
        </g>
        <g
           id="g2758">
          <path
             d="M 425,25 C 535.4,25 625,114.6 625,225 C 625,335.4 535.4,425 425,425 C 314.6,425 225,514.6 225,625 C 225,735.4 314.6,825 425,825 C 645.8,825 825,645.8 825,425 C 825,204.2 645.8,25 425,25 z M 425,562.5 C 459.5,562.5 487.5,590.5 487.5,625 C 487.5,659.5 459.5,687.5 425,687.5 C 390.5,687.5 362.5,659.5 362.5,625 C 362.5,590.5 390.5,562.5 425,562.5 z"
             id="path2760"
             style="fill:#ffffff;fill-opacity:1;stroke:none" />
          <path
             d="M 450,200 A 50,50 0 1 1 350,200 A 50,50 0 1 1 450,200 z"
             transform="matrix(1.25,0,0,-1.25,-75,475)"
             id="path2762"
             style="fill:#ffffff;fill-opacity:1;stroke:none" />
        </g>
      </g>
    </g>
    <g
       transform="matrix(0.5,0.8660254,-0.8660254,0.5,3623.1377,-62.333082)"
       id="g2844">
      <g
         transform="matrix(-1,0,0,-1,850,850)"
         id="g2846">
        <g
           transform="matrix(-1,0,0,-1,825,825)"
           id="g2848"
           style="fill:#000000;fill-opacity:1">
          <path
             d="M 425,25 C 204.2,25 25,204.2 25,425 C 25,645.8 204.2,825 425,825 C 314.6,825 225,735.4 225,625 C 225,514.6 314.6,425 425,425 C 535.4,425 625,335.4 625,225 C 625,114.6 535.4,25 425,25 z M 425,162.5 C 459.5,162.5 487.5,190.5 487.5,225 C 487.5,259.5 459.5,287.5 425,287.5 C 390.5,287.5 362.5,259.5 362.5,225 C 362.5,190.5 390.5,162.5 425,162.5 z"
             transform="matrix(-1,0,0,-1,825,825)"
             id="path2850"
             style="fill:#000000;fill-opacity:1;stroke:none" />
          <path
             d="M 450,200 A 50,50 0 1 1 350,200 A 50,50 0 1 1 450,200 z"
             transform="matrix(1.25,0,0,1.25,-100,-50)"
             id="path2852"
             style="opacity:1;fill:#000000;fill-opacity:1;stroke:none" />
        </g>
        <g
           id="g2854">
          <path
             d="M 425,25 C 535.4,25 625,114.6 625,225 C 625,335.4 535.4,425 425,425 C 314.6,425 225,514.6 225,625 C 225,735.4 314.6,825 425,825 C 645.8,825 825,645.8 825,425 C 825,204.2 645.8,25 425,25 z M 425,562.5 C 459.5,562.5 487.5,590.5 487.5,625 C 487.5,659.5 459.5,687.5 425,687.5 C 390.5,687.5 362.5,659.5 362.5,625 C 362.5,590.5 390.5,562.5 425,562.5 z"
             id="path2856"
             style="fill:#ffffff;fill-opacity:1;stroke:none" />
          <path
             d="M 450,200 A 50,50 0 1 1 350,200 A 50,50 0 1 1 450,200 z"
             transform="matrix(1.25,0,0,-1.25,-75,475)"
             id="path2858"
             style="fill:#ffffff;fill-opacity:1;stroke:none" />
        </g>
      </g>
    </g>
    <g
       transform="matrix(-0.5,0.8660254,-0.8660254,-0.5,5853.6375,362.66692)"
       id="g2892">
      <g
         transform="matrix(-1,0,0,-1,850,850)"
         id="g2894">
        <g
           transform="matrix(-1,0,0,-1,825,825)"
           id="g2896"
           style="fill:#000000;fill-opacity:1">
          <path
             d="M 425,25 C 204.2,25 25,204.2 25,425 C 25,645.8 204.2,825 425,825 C 314.6,825 225,735.4 225,625 C 225,514.6 314.6,425 425,425 C 535.4,425 625,335.4 625,225 C 625,114.6 535.4,25 425,25 z M 425,162.5 C 459.5,162.5 487.5,190.5 487.5,225 C 487.5,259.5 459.5,287.5 425,287.5 C 390.5,287.5 362.5,259.5 362.5,225 C 362.5,190.5 390.5,162.5 425,162.5 z"
             transform="matrix(-1,0,0,-1,825,825)"
             id="path2898"
             style="fill:#000000;fill-opacity:1;stroke:none" />
          <path
             d="M 450,200 A 50,50 0 1 1 350,200 A 50,50 0 1 1 450,200 z"
             transform="matrix(1.25,0,0,1.25,-100,-50)"
             id="path2900"
             style="opacity:1;fill:#000000;fill-opacity:1;stroke:none" />
        </g>
        <g
           id="g2902">
          <path
             d="M 425,25 C 535.4,25 625,114.6 625,225 C 625,335.4 535.4,425 425,425 C 314.6,425 225,514.6 225,625 C 225,735.4 314.6,825 425,825 C 645.8,825 825,645.8 825,425 C 825,204.2 645.8,25 425,25 z M 425,562.5 C 459.5,562.5 487.5,590.5 487.5,625 C 487.5,659.5 459.5,687.5 425,687.5 C 390.5,687.5 362.5,659.5 362.5,625 C 362.5,590.5 390.5,562.5 425,562.5 z"
             id="path2904"
             style="fill:#ffffff;fill-opacity:1;stroke:none" />
          <path
             d="M 450,200 A 50,50 0 1 1 350,200 A 50,50 0 1 1 450,200 z"
             transform="matrix(1.25,0,0,-1.25,-75,475)"
             id="path2906"
             style="fill:#ffffff;fill-opacity:1;stroke:none" />
        </g>
      </g>
    </g>
    <g
       transform="translate(-4179.4215,1168.8407)"
       id="g2684">
      <g
         id="g2686">
        <g
           transform="matrix(-1,0,0,-1,825,825)"
           id="g2688"
           style="fill:#000000;fill-opacity:1">
          <path
             d="M 425,25 C 204.2,25 25,204.2 25,425 C 25,645.8 204.2,825 425,825 C 314.6,825 225,735.4 225,625 C 225,514.6 314.6,425 425,425 C 535.4,425 625,335.4 625,225 C 625,114.6 535.4,25 425,25 z M 425,162.5 C 459.5,162.5 487.5,190.5 487.5,225 C 487.5,259.5 459.5,287.5 425,287.5 C 390.5,287.5 362.5,259.5 362.5,225 C 362.5,190.5 390.5,162.5 425,162.5 z"
             transform="matrix(-1,0,0,-1,825,825)"
             id="path2690"
             style="fill:#000000;fill-opacity:1;stroke:none" />
          <path
             d="M 450,200 A 50,50 0 1 1 350,200 A 50,50 0 1 1 450,200 z"
             transform="matrix(1.25,0,0,1.25,-100,-50)"
             id="path2692"
             style="opacity:1;fill:#000000;fill-opacity:1;stroke:none" />
        </g>
        <g
           id="g2694">
          <path
             d="M 425,25 C 535.4,25 625,114.6 625,225 C 625,335.4 535.4,425 425,425 C 314.6,425 225,514.6 225,625 C 225,735.4 314.6,825 425,825 C 645.8,825 825,645.8 825,425 C 825,204.2 645.8,25 425,25 z M 425,562.5 C 459.5,562.5 487.5,590.5 487.5,625 C 487.5,659.5 459.5,687.5 425,687.5 C 390.5,687.5 362.5,659.5 362.5,625 C 362.5,590.5 390.5,562.5 425,562.5 z"
             id="path2696"
             style="fill:#ffffff;fill-opacity:1;stroke:none" />
          <path
             d="M 450,200 A 50,50 0 1 1 350,200 A 50,50 0 1 1 450,200 z"
             transform="matrix(1.25,0,0,-1.25,-75,475)"
             id="path2698"
             style="fill:#ffffff;fill-opacity:1;stroke:none" />
        </g>
      </g>
    </g>
    <g
       transform="matrix(0,1,-1,0,-551.46899,1168.8407)"
       id="g2700">
      <g
         id="g2702">
        <g
           transform="matrix(-1,0,0,-1,825,825)"
           id="g2704"
           style="fill:#000000;fill-opacity:1">
          <path
             d="M 425,25 C 204.2,25 25,204.2 25,425 C 25,645.8 204.2,825 425,825 C 314.6,825 225,735.4 225,625 C 225,514.6 314.6,425 425,425 C 535.4,425 625,335.4 625,225 C 625,114.6 535.4,25 425,25 z M 425,162.5 C 459.5,162.5 487.5,190.5 487.5,225 C 487.5,259.5 459.5,287.5 425,287.5 C 390.5,287.5 362.5,259.5 362.5,225 C 362.5,190.5 390.5,162.5 425,162.5 z"
             transform="matrix(-1,0,0,-1,825,825)"
             id="path2706"
             style="fill:#000000;fill-opacity:1;stroke:none" />
          <path
             d="M 450,200 A 50,50 0 1 1 350,200 A 50,50 0 1 1 450,200 z"
             transform="matrix(1.25,0,0,1.25,-100,-50)"
             id="path2708"
             style="opacity:1;fill:#000000;fill-opacity:1;stroke:none" />
        </g>
        <g
           id="g2710">
          <path
             d="M 425,25 C 535.4,25 625,114.6 625,225 C 625,335.4 535.4,425 425,425 C 314.6,425 225,514.6 225,625 C 225,735.4 314.6,825 425,825 C 645.8,825 825,645.8 825,425 C 825,204.2 645.8,25 425,25 z M 425,562.5 C 459.5,562.5 487.5,590.5 487.5,625 C 487.5,659.5 459.5,687.5 425,687.5 C 390.5,687.5 362.5,659.5 362.5,625 C 362.5,590.5 390.5,562.5 425,562.5 z"
             id="path2712"
             style="fill:#ffffff;fill-opacity:1;stroke:none" />
          <path
             d="M 450,200 A 50,50 0 1 1 350,200 A 50,50 0 1 1 450,200 z"
             transform="matrix(1.25,0,0,-1.25,-75,475)"
             id="path2714"
             style="fill:#ffffff;fill-opacity:1;stroke:none" />
        </g>
      </g>
    </g>
    <g
       transform="translate(1376.4834,1168.8407)"
       id="g2764">
      <g
         transform="matrix(-1,0,0,-1,850,850)"
         id="g2766">
        <g
           transform="matrix(-1,0,0,-1,825,825)"
           id="g2768"
           style="fill:#000000;fill-opacity:1">
          <path
             d="M 425,25 C 204.2,25 25,204.2 25,425 C 25,645.8 204.2,825 425,825 C 314.6,825 225,735.4 225,625 C 225,514.6 314.6,425 425,425 C 535.4,425 625,335.4 625,225 C 625,114.6 535.4,25 425,25 z M 425,162.5 C 459.5,162.5 487.5,190.5 487.5,225 C 487.5,259.5 459.5,287.5 425,287.5 C 390.5,287.5 362.5,259.5 362.5,225 C 362.5,190.5 390.5,162.5 425,162.5 z"
             transform="matrix(-1,0,0,-1,825,825)"
             id="path2770"
             style="fill:#000000;fill-opacity:1;stroke:none" />
          <path
             d="M 450,200 A 50,50 0 1 1 350,200 A 50,50 0 1 1 450,200 z"
             transform="matrix(1.25,0,0,1.25,-100,-50)"
             id="path2772"
             style="opacity:1;fill:#000000;fill-opacity:1;stroke:none" />
        </g>
        <g
           id="g2774">
          <path
             d="M 425,25 C 535.4,25 625,114.6 625,225 C 625,335.4 535.4,425 425,425 C 314.6,425 225,514.6 225,625 C 225,735.4 314.6,825 425,825 C 645.8,825 825,645.8 825,425 C 825,204.2 645.8,25 425,25 z M 425,562.5 C 459.5,562.5 487.5,590.5 487.5,625 C 487.5,659.5 459.5,687.5 425,687.5 C 390.5,687.5 362.5,659.5 362.5,625 C 362.5,590.5 390.5,562.5 425,562.5 z"
             id="path2776"
             style="fill:#ffffff;fill-opacity:1;stroke:none" />
          <path
             d="M 450,200 A 50,50 0 1 1 350,200 A 50,50 0 1 1 450,200 z"
             transform="matrix(1.25,0,0,-1.25,-75,475)"
             id="path2778"
             style="fill:#ffffff;fill-opacity:1;stroke:none" />
        </g>
      </g>
    </g>
    <g
       transform="matrix(0,1,-1,0,5004.4357,1168.8407)"
       id="g2908">
      <g
         transform="matrix(-1,0,0,-1,850,850)"
         id="g2910">
        <g
           transform="matrix(-1,0,0,-1,825,825)"
           id="g2912"
           style="fill:#000000;fill-opacity:1">
          <path
             d="M 425,25 C 204.2,25 25,204.2 25,425 C 25,645.8 204.2,825 425,825 C 314.6,825 225,735.4 225,625 C 225,514.6 314.6,425 425,425 C 535.4,425 625,335.4 625,225 C 625,114.6 535.4,25 425,25 z M 425,162.5 C 459.5,162.5 487.5,190.5 487.5,225 C 487.5,259.5 459.5,287.5 425,287.5 C 390.5,287.5 362.5,259.5 362.5,225 C 362.5,190.5 390.5,162.5 425,162.5 z"
             transform="matrix(-1,0,0,-1,825,825)"
             id="path2914"
             style="fill:#000000;fill-opacity:1;stroke:none" />
          <path
             d="M 450,200 A 50,50 0 1 1 350,200 A 50,50 0 1 1 450,200 z"
             transform="matrix(1.25,0,0,1.25,-100,-50)"
             id="path2916"
             style="opacity:1;fill:#000000;fill-opacity:1;stroke:none" />
        </g>
        <g
           id="g2918">
          <path
             d="M 425,25 C 535.4,25 625,114.6 625,225 C 625,335.4 535.4,425 425,425 C 314.6,425 225,514.6 225,625 C 225,735.4 314.6,825 425,825 C 645.8,825 825,645.8 825,425 C 825,204.2 645.8,25 425,25 z M 425,562.5 C 459.5,562.5 487.5,590.5 487.5,625 C 487.5,659.5 459.5,687.5 425,687.5 C 390.5,687.5 362.5,659.5 362.5,625 C 362.5,590.5 390.5,562.5 425,562.5 z"
             id="path2920"
             style="fill:#ffffff;fill-opacity:1;stroke:none" />
          <path
             d="M 450,200 A 50,50 0 1 1 350,200 A 50,50 0 1 1 450,200 z"
             transform="matrix(1.25,0,0,-1.25,-75,475)"
             id="path2922"
             style="fill:#ffffff;fill-opacity:1;stroke:none" />
        </g>
      </g>
    </g>
  </g>
</svg>
