P3
64 1
255
# The part above is the header
# "P3" means this is a RGB color image in ASCII
# "3 2" is the width and height of the image in pixels
# "255" is the maximum value for each color
# The part below is image data: RGB triplets
1 1 1
20 22 23
21 21 20
31 30 28
32 156 230
39 39 39
44 53 75
44 104 30
49 51 52
52 53 58
54 55 52
55 81 95
69 62 65
69 70 69
71 195 227
74 93 211
76 150 75
77 140 36
78 76 49
83 81 81
85 85 84
87 105 113
89 162 217
97 44 31
100 114 147
104 92 40
105 100 87
110 145 161
112 113 112
116 167 207
119 122 121
141 140 109
142 178 210
144 79 44
146 147 145
152 104 87
155 23 20
159 78 207
161 162 157
164 95 35
168 168 168
168 202 223
169 149 100
176 170 145
180 184 202
181 181 180
187 194 179
188 186 183
197 197 197
197 217 216
204 179 156
205 106 88
209 177 44
212 160 93
213 81 61
215 214 208
221 212 169
224 99 28
225 28 22
230 161 31
232 232 215
237 237 233
241 211 111
255 255 255
